<?xml version="1.0" encoding="UTF-8" standalone="no"?>
<!-- Created with Inkscape (http://www.inkscape.org/) -->
<svg
   xmlns:dc="http://purl.org/dc/elements/1.1/"
   xmlns:cc="http://creativecommons.org/ns#"
   xmlns:rdf="http://www.w3.org/1999/02/22-rdf-syntax-ns#"
   xmlns:svg="http://www.w3.org/2000/svg"
   xmlns="http://www.w3.org/2000/svg"
   xmlns:xlink="http://www.w3.org/1999/xlink"
   xmlns:sodipodi="http://sodipodi.sourceforge.net/DTD/sodipodi-0.dtd"
   xmlns:inkscape="http://www.inkscape.org/namespaces/inkscape"
   id="svg18904"
   sodipodi:version="0.32"
   inkscape:version="0.46"
   width="527.89148"
   height="244.75056"
   xml:space="preserve"
   sodipodi:docname="solutionDesignClientMode.svg"
   inkscape:output_extension="org.inkscape.output.svg.inkscape"
   version="1.0"><metadata
     id="metadata18909"><rdf:RDF><cc:Work
         rdf:about=""><dc:format>image/svg+xml</dc:format><dc:type
           rdf:resource="http://purl.org/dc/dcmitype/StillImage" /></cc:Work></rdf:RDF></metadata><defs
     id="defs18907"><pattern
   inkscape:collect="always"
   xlink:href="#pattern19117"
   id="pattern19788"
   patternTransform="translate(-69.9945,0)" /><inkscape:perspective
   sodipodi:type="inkscape:persp3d"
   inkscape:vp_x="0 : 526.18109 : 1"
   inkscape:vp_y="0 : 1000 : 0"
   inkscape:vp_z="744.09448 : 526.18109 : 1"
   inkscape:persp3d-origin="372.04724 : 350.78739 : 1"
   id="perspective18911" /><clipPath
   clipPathUnits="userSpaceOnUse"
   id="clipPath18993"><path
     d="M 0,0 L 422.31317,0 L 422.31317,195.80045 L 0,195.80045 L 0,0 z"
     id="path18995" /></clipPath><mask
   maskUnits="userSpaceOnUse"
   x="0"
   y="0"
   width="1"
   height="1"
   id="mask18997"><g
     id="g18999"><g
       clip-path="url(#clipPath18993)"
       id="g19001"><path
         d="M 0,0 L 422.31317,0 L 422.31317,195.80045 L 0,195.80045 L 0,0 z"
         style="fill:#ffffff;fill-opacity:0.6;fill-rule:nonzero;stroke:none"
         id="path19003" /></g></g></mask><clipPath
   clipPathUnits="userSpaceOnUse"
   id="clipPath19009"><path
     d="M 0,0 L 422.31317,0 L 422.31317,195.80045 L 0,195.80045 L 0,0 z"
     id="path19011" /></clipPath><clipPath
   clipPathUnits="userSpaceOnUse"
   id="clipPath19013"><path
     d="M 0,0 L 423,0 L 423,196 L 0,196 L 0,0 z"
     id="path19015" /></clipPath><pattern
   patternUnits="userSpaceOnUse"
   x="0"
   y="0"
   width="423"
   height="196"
   id="pattern19017"><g
     id="g19019" /><g
     id="g19021"><g
       clip-path="url(#clipPath19013)"
       id="g19023"><g
         id="g19025"><g
           transform="matrix(1,0,0,-1,0,196)"
           id="g19027"><path
             d="M 308.25,160.809 L 324.047,169.895"
             style="fill:#ff0300;fill-opacity:1;fill-rule:evenodd;stroke:#ff0000;stroke-opacity:1;stroke-width:1.6;stroke-linecap:butt;stroke-linejoin:miter;stroke-miterlimit:4;stroke-dasharray:1.6,1.6;stroke-dashoffset:0"
             id="path19029" /></g></g></g></g></pattern><clipPath
   clipPathUnits="userSpaceOnUse"
   id="clipPath19043"><path
     d="M 0,0 L 422.31317,0 L 422.31317,195.80045 L 0,195.80045 L 0,0 z"
     id="path19045" /></clipPath><mask
   maskUnits="userSpaceOnUse"
   x="0"
   y="0"
   width="1"
   height="1"
   id="mask19047"><g
     id="g19049"><g
       clip-path="url(#clipPath19043)"
       id="g19051"><path
         d="M 0,0 L 422.31317,0 L 422.31317,195.80045 L 0,195.80045 L 0,0 z"
         style="fill:#ffffff;fill-opacity:0.6;fill-rule:nonzero;stroke:none"
         id="path19053" /></g></g></mask><clipPath
   clipPathUnits="userSpaceOnUse"
   id="clipPath19059"><path
     d="M 0,0 L 422.31317,0 L 422.31317,195.80045 L 0,195.80045 L 0,0 z"
     id="path19061" /></clipPath><clipPath
   clipPathUnits="userSpaceOnUse"
   id="clipPath19063"><path
     d="M 0,0 L 423,0 L 423,196 L 0,196 L 0,0 z"
     id="path19065" /></clipPath><pattern
   patternUnits="userSpaceOnUse"
   x="0"
   y="0"
   width="423"
   height="196"
   id="pattern19067"><g
     id="g19069" /><g
     id="g19071"><g
       clip-path="url(#clipPath19063)"
       id="g19073"><g
         id="g19075"><g
           transform="matrix(1,0,0,-1,0,196)"
           id="g19077"><path
             d="M 308.371,169.82 L 323.926,160.316"
             style="fill:#ff0300;fill-opacity:1;fill-rule:evenodd;stroke:#ff0000;stroke-opacity:1;stroke-width:1.6;stroke-linecap:butt;stroke-linejoin:miter;stroke-miterlimit:4;stroke-dasharray:1.6,1.6;stroke-dashoffset:0"
             id="path19079" /></g></g></g></g></pattern><clipPath
   clipPathUnits="userSpaceOnUse"
   id="clipPath19093"><path
     d="M 0,0 L 422.31317,0 L 422.31317,195.80045 L 0,195.80045 L 0,0 z"
     id="path19095" /></clipPath><mask
   maskUnits="userSpaceOnUse"
   x="0"
   y="0"
   width="1"
   height="1"
   id="mask19097"><g
     id="g19099"><g
       clip-path="url(#clipPath19093)"
       id="g19101"><path
         d="M 0,0 L 422.31317,0 L 422.31317,195.80045 L 0,195.80045 L 0,0 z"
         style="fill:#ffffff;fill-opacity:0.6;fill-rule:nonzero;stroke:none"
         id="path19103" /></g></g></mask><clipPath
   clipPathUnits="userSpaceOnUse"
   id="clipPath19109"><path
     d="M 0,0 L 422.31317,0 L 422.31317,195.80045 L 0,195.80045 L 0,0 z"
     id="path19111" /></clipPath><clipPath
   clipPathUnits="userSpaceOnUse"
   id="clipPath19113"><path
     d="M 0,0 L 423,0 L 423,196 L 0,196 L 0,0 z"
     id="path19115" /></clipPath><pattern
   patternUnits="userSpaceOnUse"
   x="0"
   y="0"
   width="423"
   height="196"
   id="pattern19117"><g
     id="g19119" /><g
     id="g19121"><g
       clip-path="url(#clipPath19113)"
       id="g19123"><g
         id="g19125"><g
           transform="matrix(1,0,0,-1,0,196)"
           id="g19127"><path
             d="M 17.32,161.004 L 33.121,170.09"
             style="fill:#ff0300;fill-opacity:1;fill-rule:evenodd;stroke:#ff0000;stroke-opacity:1;stroke-width:1.6;stroke-linecap:butt;stroke-linejoin:miter;stroke-miterlimit:4;stroke-dasharray:1.6,1.6;stroke-dashoffset:0"
             id="path19129" /></g></g></g></g></pattern><clipPath
   clipPathUnits="userSpaceOnUse"
   id="clipPath19143"><path
     d="M 0,0 L 422.31317,0 L 422.31317,195.80045 L 0,195.80045 L 0,0 z"
     id="path19145" /></clipPath><mask
   maskUnits="userSpaceOnUse"
   x="0"
   y="0"
   width="1"
   height="1"
   id="mask19147"><g
     id="g19149"><g
       clip-path="url(#clipPath19143)"
       id="g19151"><path
         d="M 0,0 L 422.31317,0 L 422.31317,195.80045 L 0,195.80045 L 0,0 z"
         style="fill:#ffffff;fill-opacity:0.6;fill-rule:nonzero;stroke:none"
         id="path19153" /></g></g></mask><clipPath
   clipPathUnits="userSpaceOnUse"
   id="clipPath19159"><path
     d="M 0,0 L 422.31317,0 L 422.31317,195.80045 L 0,195.80045 L 0,0 z"
     id="path19161" /></clipPath><clipPath
   clipPathUnits="userSpaceOnUse"
   id="clipPath19163"><path
     d="M 0,0 L 423,0 L 423,196 L 0,196 L 0,0 z"
     id="path19165" /></clipPath><pattern
   patternUnits="userSpaceOnUse"
   x="0"
   y="0"
   width="423"
   height="196"
   id="pattern19167"><g
     id="g19169" /><g
     id="g19171"><g
       clip-path="url(#clipPath19163)"
       id="g19173"><g
         id="g19175"><g
           transform="matrix(1,0,0,-1,0,196)"
           id="g19177"><path
             d="M 17.445,170.016 L 32.996,160.512"
             style="fill:#ff0300;fill-opacity:1;fill-rule:evenodd;stroke:#ff0000;stroke-opacity:1;stroke-width:1.6;stroke-linecap:butt;stroke-linejoin:miter;stroke-miterlimit:4;stroke-dasharray:1.6,1.6;stroke-dashoffset:0"
             id="path19179" /></g></g></g></g></pattern>





</defs><sodipodi:namedview
     inkscape:window-height="1150"
     inkscape:window-width="1920"
     inkscape:pageshadow="2"
     inkscape:pageopacity="0.0"
     guidetolerance="10.0"
     gridtolerance="10.0"
     objecttolerance="10.0"
     borderopacity="1.0"
     bordercolor="#666666"
     pagecolor="#ffffff"
     id="base"
     showgrid="false"
     inkscape:zoom="2.8933042"
     inkscape:cx="254.49946"
     inkscape:cy="104.69974"
     inkscape:window-x="0"
     inkscape:window-y="0"
     inkscape:current-layer="g18913" /><g
     id="g18913"
     inkscape:groupmode="layer"
     inkscape:label="solutionDesignClientMode"
     transform="matrix(1.25,0,0,-1.25,0,244.75056)"><path
   id="path18917"
   style="fill:#e3eff5;fill-opacity:1;fill-rule:nonzero;stroke:#b5c4ca;stroke-width:2.17588997;stroke-linecap:butt;stroke-linejoin:round;stroke-miterlimit:4;stroke-dasharray:none;stroke-opacity:1"
   d="M 305.621,162.621 L 406.359,162.621 C 414.594,162.621 421.227,157.597 421.227,151.355 L 421.227,26.015 C 421.227,19.773 414.594,14.75 406.359,14.75 L 305.621,14.75 C 297.387,14.75 290.754,19.773 290.754,26.015 L 290.754,151.355 C 290.754,157.597 297.387,162.621 305.621,162.621 z" /><path
   id="path18919"
   style="fill:#e3eff5;fill-opacity:1;fill-rule:nonzero;stroke:#b5c4ca;stroke-width:2.17588997;stroke-linecap:butt;stroke-linejoin:round;stroke-miterlimit:4;stroke-dasharray:none;stroke-opacity:1"
   d="M 15.953,162.39 L 116.691,162.39 C 124.926,162.39 131.559,157.367 131.559,151.125 L 131.559,25.785 C 131.559,19.543 124.926,14.519 116.691,14.519 L 15.953,14.519 C 7.719,14.519 1.09,19.543 1.09,25.785 L 1.09,151.125 C 1.09,157.367 7.719,162.39 15.953,162.39 z" /><text
   id="text18921"
   transform="scale(1,-1)"
   x="44.000004"
   y="-166.62978"><tspan
     id="tspan18923"
     sodipodi:role="line"
     y="-166.62978"
     x="44.000004 50.37986 56.777321 60.77243 66.351509 69.528236 75.908096 82.30555"
     style="font-size:8.79980469px;font-variant:normal;font-weight:normal;writing-mode:lr-tb;fill:#63777f;fill-opacity:1;fill-rule:nonzero;stroke:none;font-family:DejaVuSans;-inkscape-font-specification:DejaVuSans">Servidor</tspan><tspan
     id="tspan18925"
     sodipodi:role="line"
     y="-167.02977"
     x="338 344.38867 348.39258 354.76364 360.34271 366.72256 373.11124"
     style="font-size:8.79980469px;font-variant:normal;font-weight:normal;writing-mode:lr-tb;fill:#63777f;fill-opacity:1;fill-rule:nonzero;stroke:none;font-family:DejaVuSans;-inkscape-font-specification:DejaVuSans">Atacant</tspan></text>

<path
   id="path18927"
   style="fill:none;stroke:#000000;stroke-width:0.80000001;stroke-linecap:butt;stroke-linejoin:miter;stroke-miterlimit:4;stroke-dasharray:none;stroke-opacity:1"
   d="M -153.301,214.125 C -153.301,213.937 -153.301,213.75 -153.301,214.125 z" /><path
   id="path18929"
   style="fill:none;stroke:#000000;stroke-width:0.73460704;stroke-linecap:butt;stroke-linejoin:miter;stroke-miterlimit:4;stroke-dasharray:none;stroke-opacity:1"
   d="M 24.891,147.07649 L 24.891,30.217512" /><path
   id="path18931"
   style="fill:#ff0300;fill-opacity:1;fill-rule:evenodd;stroke:#000000;stroke-width:0.73725384;stroke-linecap:butt;stroke-linejoin:miter;stroke-miterlimit:4;stroke-dasharray:none;stroke-opacity:1"
   d="M 315.938,148.07653 L 315.938,30.369473" />
<path
   id="path18937"
   style="fill:none;stroke:#b5c4ca;stroke-width:0.80000001;stroke-linecap:butt;stroke-linejoin:miter;stroke-miterlimit:4;stroke-dasharray:none;stroke-opacity:0"
   d="M -129.258,87.695 C -129.258,87.789 -129.258,87.882 -129.258,87.695 z M -146.23,73.269 C -146.23,73.175 -146.23,73.082 -146.23,73.269 z M -81.742,96.746 L -57.984,33.953 M -113.703,140.586 L -35.922,123.05 M 45.5,134.48 L 25.137,134.398" /><path
   id="path18939"
   style="fill:none;stroke:#b5c4ca;stroke-width:0.7464;stroke-linecap:butt;stroke-linejoin:miter;stroke-miterlimit:4;stroke-dasharray:2.2392, 0.7464;stroke-dashoffset:0;stroke-opacity:1"
   d="M 45.141,133.574 C 45.141,133.511 45.141,133.453 45.141,133.574 z M 25.57,133.754 L 44.945,133.754" /><path
   id="path18941"
   style="fill:none;stroke:#000000;stroke-width:0.79817897;stroke-linecap:butt;stroke-linejoin:miter;stroke-miterlimit:4;stroke-dasharray:2.394536, 0.798179;stroke-dashoffset:0;stroke-opacity:1"
   d="M 24.891,124.183 L 314.809,124.183" /><path
   id="path18943"
   style="fill:#000000;fill-opacity:1;fill-rule:evenodd;stroke:none"
   d="M 306.273,127.722 L 315.867,124.195 L 306.273,120.668 C 307.809,122.75 307.801,125.601 306.273,127.722 z" /><path
   id="path18945"
   style="fill:none;stroke:#000000;stroke-width:0.797454;stroke-linecap:butt;stroke-linejoin:miter;stroke-miterlimit:4;stroke-dasharray:none;stroke-opacity:1"
   d="M 25.684,94.187 L 315.043,94.187" /><path
   id="path18947"
   style="fill:#000000;fill-opacity:1;fill-rule:evenodd;stroke:none"
   d="M 34.211,90.648 L 24.625,94.172 L 34.211,97.695 C 32.68,95.617 32.688,92.769 34.211,90.648 z" /><path
   id="path18949"
   style="fill:#000000;fill-opacity:1;fill-rule:evenodd;stroke:none"
   d="M 306.52,97.726 L 316.102,94.199 L 306.52,90.675 C 308.051,92.757 308.043,95.605 306.52,97.726 z" /><path
   id="path18951"
   style="fill:none;stroke:#000000;stroke-width:0.797454;stroke-linecap:butt;stroke-linejoin:miter;stroke-miterlimit:4;stroke-dasharray:2.392362, 0.797454;stroke-dashoffset:0;stroke-opacity:1"
   d="M 25.875,61.672 L 315.234,61.672" /><path
   id="path18953"
   style="fill:#000000;fill-opacity:1;fill-rule:evenodd;stroke:none"
   d="M 34.398,58.136 L 24.816,61.66 L 34.398,65.183 C 32.867,63.101 32.879,60.257 34.398,58.136 z" /><text
   id="text18955"
   transform="scale(1,-1)"
   x="179.32227"
   y="-127.57562"><tspan
     id="tspan18957"
     sodipodi:role="line"
     y="-127.57562"
     x="179.32227 181.70924 186.48961 188.87659 192.86342 195.2504 197.63739 201.61781 206.41098 211.19774 215.9781 219.97774 223.96457 226.35155 231.13832 233.5253 237.51213 242.3053"
     style="font-size:6.39941406px;font-variant:normal;font-weight:normal;writing-mode:lr-tb;fill:#000000;fill-opacity:1;fill-rule:nonzero;stroke:none;font-family:DejaVuSans;-inkscape-font-specification:DejaVuSans">Inici connexió TCP</tspan><tspan
     id="tspan18959"
     sodipodi:role="line"
     y="-97.594292"
     x="165.18015 169.97331 174.76007 179.54044 184.32719 188.32043 192.31366 194.70065 199.48741 201.87439 205.86763 210.65439 215.44754 217.84093 221.83417 225.821 229.02071 233.18015 237.96051 240.34749 244.34073 247.54044 250.74014"
     style="font-size:6.39941406px;font-variant:normal;font-weight:normal;writing-mode:lr-tb;fill:#000000;fill-opacity:1;fill-rule:nonzero;stroke:none;font-family:DejaVuSans;-inkscape-font-specification:DejaVuSans">Connexió TCP establerta</tspan><tspan
     id="tspan18961"
     sodipodi:role="line"
     y="-64.784546"
     x="162.35173 166.35136 168.73193 173.5123 177.49913 179.89252 182.2731 185.47281 189.45964 193.44008 197.42691 199.8075 204.59425 206.98764 211.7744 215.76764 218.16101 220.5416 224.52843 227.15172 231.13216 235.92532 240.71208 245.49245 249.49208 253.47891 255.8595"
     style="font-size:6.39941406px;font-variant:normal;font-weight:normal;writing-mode:lr-tb;fill:#000000;fill-opacity:1;fill-rule:nonzero;stroke:none;font-family:DejaVuSans;-inkscape-font-specification:DejaVuSans">Finalització de la connexió</tspan></text>


<path
   id="path18967"
   style="fill:#ffffff;fill-opacity:1;fill-rule:nonzero;stroke:#b5c4ca;stroke-width:0.49730301;stroke-linecap:butt;stroke-linejoin:round;stroke-miterlimit:4;stroke-dasharray:none;stroke-opacity:1"
   d="M 45.328,139.433 L 83.473,139.433 C 84.957,139.433 86.152,138.168 86.152,136.593 L 86.152,131.168 C 86.152,129.597 84.957,128.328 83.473,128.328 L 45.328,128.328 C 43.844,128.328 42.648,129.597 42.648,131.168 L 42.648,136.593 C 42.648,138.168 43.844,139.433 45.328,139.433 z" /><path
   id="path18969"
   style="fill:none;stroke:#b5c4ca;stroke-width:0.7464;stroke-linecap:butt;stroke-linejoin:miter;stroke-miterlimit:4;stroke-dasharray:2.2392, 0.7464;stroke-dashoffset:0;stroke-opacity:1"
   d="M 335.742,132.172 C 335.742,132.113 335.742,132.05 335.742,132.172 z M 316.172,132.351 L 335.547,132.351" /><g
   transform="matrix(1,0,0,-0.673917,0,195.80045)"
   id="g18971"><path
     id="path18973"
     style="fill:#ffffff;fill-opacity:1;fill-rule:nonzero;stroke:#b5c4ca;stroke-width:0.73792899;stroke-linecap:butt;stroke-linejoin:round;stroke-miterlimit:4;stroke-dasharray:none;stroke-opacity:1"
     d="M 337.348,85.722 L 393.949,85.722 C 396.152,85.722 397.926,87.6 397.926,89.93 L 397.926,97.981 C 397.926,100.317 396.152,102.195 393.949,102.195 L 337.348,102.195 C 335.145,102.195 333.371,100.317 333.371,97.981 L 333.371,89.93 C 333.371,87.6 335.145,85.722 337.348,85.722 z" /></g><text
   id="text18975"
   transform="scale(1,-1)"
   x="343.55588"
   y="-130.86041"><tspan
     id="tspan18977"
     sodipodi:role="line"
     y="-130.86041"
     x="343.55588 347.55411 350.54919 353.54428 355.54581 357.54251 360.5376 362.5343 365.5246 367.51651 370.5116 371.50034 374.49542 377.48569 379.47763 382.47269 385.46298 387.45969"
     style="font-size:4.79980516px;font-variant:normal;font-weight:normal;writing-mode:lr-tb;fill:#000000;fill-opacity:1;fill-rule:nonzero;stroke:none;font-family:DejaVuSans;-inkscape-font-specification:DejaVuSans">Obertura d'un port</tspan><tspan
     id="tspan18979"
     sodipodi:role="line"
     y="-132.32928"
     x="53.617619 56.809513 59.996586 63.198032 66.385101 69.576965 72.764038 74.352783"
     style="font-size:4.79980516px;font-variant:normal;font-weight:normal;writing-mode:lr-tb;fill:#000000;fill-opacity:1;fill-rule:nonzero;stroke:none;font-family:DejaVuSans;-inkscape-font-specification:DejaVuSans">Execució</tspan></text>

<path
   id="path18981"
   style="fill:none;stroke:#b5c4ca;stroke-width:0.7464;stroke-linecap:butt;stroke-linejoin:miter;stroke-miterlimit:4;stroke-dasharray:2.2392, 0.7464;stroke-dashoffset:0;stroke-opacity:1"
   d="M 336.141,76.972 C 336.141,76.914 336.141,76.851 336.141,76.972 z M 316.57,77.152 L 335.949,77.152" /><path
   id="path18983"
   style="fill:#ffffff;fill-opacity:1;fill-rule:nonzero;stroke:#b5c4ca;stroke-width:0.49730301;stroke-linecap:butt;stroke-linejoin:round;stroke-miterlimit:4;stroke-dasharray:none;stroke-opacity:1"
   d="M 336.328,82.832 L 374.473,82.832 C 375.957,82.832 377.152,81.566 377.152,79.992 L 377.152,74.57 C 377.152,72.996 375.957,71.73 374.473,71.73 L 336.328,71.73 C 334.844,71.73 333.648,72.996 333.648,74.57 L 333.648,79.992 C 333.648,81.566 334.844,82.832 336.328,82.832 z" /><text
   id="text18985"
   transform="scale(1,-1)"
   x="342.39999"
   y="-75.280754"><tspan
     id="tspan18987"
     sodipodi:role="line"
     y="-75.280754"
     x="342.39999 346.38864 348.78854 350.37729 351.96121 353.55475 355.95465 359.14651 362.33359 365.52066 367.10941"
     style="font-size:4.79980516px;font-variant:normal;font-weight:normal;writing-mode:lr-tb;fill:#000000;fill-opacity:1;fill-rule:nonzero;stroke:none;font-family:DejaVuSans;-inkscape-font-specification:DejaVuSans">Utilització</tspan></text>

<g
   id="g19089"><g
     id="g19091" /><g
     mask="url(#mask19097)"
     id="g19105"><g
       id="g19107" /><g
       id="g19131"><g
         id="g19133"
         clip-path="url(#clipPath19109)"><g
           id="g19135" /></g></g></g></g><path
   style="opacity:0.30194804;color:#000000;fill:#63777f;fill-opacity:1;fill-rule:evenodd;stroke:#63777f;stroke-width:2.2181232;stroke-linecap:butt;stroke-linejoin:miter;marker:none;marker-start:none;marker-mid:none;marker-end:none;stroke-miterlimit:4;stroke-dasharray:6.65436981, 2.21812326;stroke-dashoffset:0;stroke-opacity:1;visibility:visible;display:inline;overflow:visible;enable-background:accumulate"
   d="M 214.09968,178.64881 L 214.09968,2.3462761"
   id="path10629" /><text
   transform="scale(1,-1)"
   xml:space="preserve"
   style="font-size:9.60000038px;font-style:normal;font-variant:normal;font-weight:bold;font-stretch:normal;opacity:0.30194804;fill:#63777f;fill-opacity:1;stroke:none;stroke-width:1px;stroke-linecap:butt;stroke-linejoin:miter;stroke-opacity:1;font-family:Sans;-inkscape-font-specification:Sans"
   x="188.79741"
   y="-187.6922"
   id="text10631"><tspan
     sodipodi:role="line"
     id="tspan10633"
     x="188.79741"
     y="-187.6922">INTERNET</tspan></text>


<g
   id="g16027"
   transform="matrix(0.8,0,0,-0.8,-26.593412,114.44877)"><path
     id="path13899"
     d="M 55.1641,99.325438 L 74.91454,110.68276"
     style="opacity:0.6;color:#000000;fill:#ff0300;fill-opacity:1;fill-rule:evenodd;stroke:#ff0000;stroke-width:2;stroke-linecap:butt;stroke-linejoin:miter;marker:none;marker-start:none;marker-mid:none;marker-end:none;stroke-miterlimit:4;stroke-dasharray:2, 2;stroke-dashoffset:0;stroke-opacity:1;visibility:visible;display:inline;overflow:visible;enable-background:accumulate" /><path
     inkscape:transform-center-y="-2.8284271"
     inkscape:transform-center-x="-10.362094"
     id="path13901"
     d="M 55.3192,110.59078 L 74.75943,98.710308"
     style="opacity:0.6;color:#000000;fill:#ff0300;fill-opacity:1;fill-rule:evenodd;stroke:#ff0000;stroke-width:2;stroke-linecap:butt;stroke-linejoin:miter;marker:none;marker-start:none;marker-mid:none;marker-end:none;stroke-miterlimit:4;stroke-dasharray:2, 2;stroke-dashoffset:0;stroke-opacity:1;visibility:visible;display:inline;overflow:visible;enable-background:accumulate" /></g><g
   id="g19793"
   transform="matrix(0.8,0,0,-0.8,264.28509,114.44878)"><path
     id="path19795"
     d="M 55.1641,99.325438 L 74.91454,110.68276"
     style="opacity:0.6;color:#000000;fill:#ff0300;fill-opacity:1;fill-rule:evenodd;stroke:#ff0000;stroke-width:2;stroke-linecap:butt;stroke-linejoin:miter;marker:none;marker-start:none;marker-mid:none;marker-end:none;stroke-miterlimit:4;stroke-dasharray:2, 2;stroke-dashoffset:0;stroke-opacity:1;visibility:visible;display:inline;overflow:visible;enable-background:accumulate" /><path
     inkscape:transform-center-y="-2.8284271"
     inkscape:transform-center-x="-10.362094"
     id="path19797"
     d="M 55.3192,110.59078 L 74.75943,98.710308"
     style="opacity:0.6;color:#000000;fill:#ff0300;fill-opacity:1;fill-rule:evenodd;stroke:#ff0000;stroke-width:2;stroke-linecap:butt;stroke-linejoin:miter;marker:none;marker-start:none;marker-mid:none;marker-end:none;stroke-miterlimit:4;stroke-dasharray:2, 2;stroke-dashoffset:0;stroke-opacity:1;visibility:visible;display:inline;overflow:visible;enable-background:accumulate" /></g><text
   xml:space="preserve"
   style="font-size:7.19999980999999956px;font-style:normal;font-variant:normal;font-weight:bold;font-stretch:normal;fill:#000000;fill-opacity:1;stroke:none;stroke-width:1px;stroke-linecap:butt;stroke-linejoin:miter;stroke-opacity:1;font-family:Sans;-inkscape-font-specification:Sans Bold"
   x="9.4010162"
   y="-150.69276"
   id="text3915"
   transform="scale(1,-1)"><tspan
     sodipodi:role="line"
     id="tspan3917"
     x="9.4010162"
     y="-150.69276">launcher - mode client</tspan></text>
<text
   xml:space="preserve"
   style="font-size:7.19999981px;font-style:normal;font-variant:normal;font-weight:bold;font-stretch:normal;fill:#000000;fill-opacity:1;stroke:none;stroke-width:1px;stroke-linecap:butt;stroke-linejoin:miter;stroke-opacity:1;font-family:Sans;-inkscape-font-specification:Sans"
   x="298.0675"
   y="-151.79877"
   id="text3919"
   transform="scale(1,-1)"><tspan
     sodipodi:role="line"
     id="tspan3921"
     x="298.0675"
     y="-151.79877">client - mode connexió listen</tspan></text>
</g></svg>