<?xml version="1.0" encoding="UTF-8" standalone="no"?>
<!-- Created with Inkscape (http://www.inkscape.org/) -->
<svg
   xmlns:dc="http://purl.org/dc/elements/1.1/"
   xmlns:cc="http://creativecommons.org/ns#"
   xmlns:rdf="http://www.w3.org/1999/02/22-rdf-syntax-ns#"
   xmlns:svg="http://www.w3.org/2000/svg"
   xmlns="http://www.w3.org/2000/svg"
   xmlns:sodipodi="http://sodipodi.sourceforge.net/DTD/sodipodi-0.dtd"
   xmlns:inkscape="http://www.inkscape.org/namespaces/inkscape"
   width="744.09448819"
   height="1052.3622047"
   id="svg2"
   sodipodi:version="0.32"
   inkscape:version="0.46"
   sodipodi:docname="solutionDesignModules.svg"
   inkscape:output_extension="org.inkscape.output.svg.inkscape"
   inkscape:export-filename="/home/whats/Desktop/PFC/svn-pfc/projecte/diagrames/solutionDesignModules.png"
   inkscape:export-xdpi="198"
   inkscape:export-ydpi="198">
  <defs
     id="defs4">
    <inkscape:perspective
       sodipodi:type="inkscape:persp3d"
       inkscape:vp_x="0 : 526.18109 : 1"
       inkscape:vp_y="0 : 1000 : 0"
       inkscape:vp_z="744.09448 : 526.18109 : 1"
       inkscape:persp3d-origin="372.04724 : 350.78739 : 1"
       id="perspective10" />
    <inkscape:perspective
       sodipodi:type="inkscape:persp3d"
       inkscape:vp_x="0 : 526.18109 : 1"
       inkscape:vp_y="0 : 1000 : 0"
       inkscape:vp_z="744.09448 : 526.18109 : 1"
       inkscape:persp3d-origin="372.04724 : 350.78739 : 1"
       id="perspective3543" />
    <filter
       id="filter14635"
       height="1.2794148"
       y="-0.13970741"
       width="1.2833163"
       x="-0.14165815"
       inkscape:collect="always">
      <feGaussianBlur
         id="feGaussianBlur14637"
         stdDeviation="16.599332"
         inkscape:collect="always" />
    </filter>
    <filter
       id="filter3641"
       height="1.3632466"
       y="-0.18162331"
       width="1.2136371"
       x="-0.10681856"
       inkscape:collect="always">
      <feGaussianBlur
         id="feGaussianBlur3643"
         stdDeviation="6.4662762"
         inkscape:collect="always" />
    </filter>
    <inkscape:perspective
       id="perspective2687"
       inkscape:persp3d-origin="372.04724 : 350.78739 : 1"
       inkscape:vp_z="744.09448 : 526.18109 : 1"
       inkscape:vp_y="0 : 1000 : 0"
       inkscape:vp_x="0 : 526.18109 : 1"
       sodipodi:type="inkscape:persp3d" />
  </defs>
  <sodipodi:namedview
     id="base"
     pagecolor="#ffffff"
     bordercolor="#666666"
     borderopacity="1.0"
     gridtolerance="10000"
     guidetolerance="10"
     objecttolerance="10"
     inkscape:pageopacity="0.0"
     inkscape:pageshadow="2"
     inkscape:zoom="1.4142136"
     inkscape:cx="301.77376"
     inkscape:cy="905.5223"
     inkscape:document-units="px"
     inkscape:current-layer="layer1"
     showgrid="false"
     inkscape:connector-spacing="10"
     inkscape:window-width="1920"
     inkscape:window-height="1150"
     inkscape:window-x="0"
     inkscape:window-y="0" />
  <metadata
     id="metadata7">
    <rdf:RDF>
      <cc:Work
         rdf:about="">
        <dc:format>image/svg+xml</dc:format>
        <dc:type
           rdf:resource="http://purl.org/dc/dcmitype/StillImage" />
      </cc:Work>
    </rdf:RDF>
  </metadata>
  <g
     inkscape:label="Capa 1"
     inkscape:groupmode="layer"
     id="capa1">
    <g
       id="layer1"
       inkscape:label="Layer 1"
       transform="translate(2.279685,84.376958)">
      <g
         id="g3690"
         style="stroke:#63777f;stroke-opacity:1"
         transform="matrix(0.7491847,0,0,0.643872,491.12671,-156.59597)"
         inkscape:export-filename="/home/whats/Desktop/PFC/svn-pfc/projecte/diagrames/path8798.png"
         inkscape:export-xdpi="198"
         inkscape:export-ydpi="198">
        <path
           sodipodi:type="star"
           style="opacity:1;color:#000000;fill:#000000;fill-opacity:1;fill-rule:nonzero;stroke:#63777f;stroke-width:6.37171316;stroke-linecap:square;stroke-linejoin:miter;marker:none;marker-start:none;marker-mid:none;marker-end:none;stroke-miterlimit:4;stroke-dasharray:none;stroke-dashoffset:0;stroke-opacity:1;visibility:visible;display:inline;overflow:visible;filter:url(#filter14635);enable-background:accumulate"
           id="path13588"
           sodipodi:sides="50"
           sodipodi:cx="-603.23578"
           sodipodi:cy="534.51593"
           sodipodi:r1="138.32973"
           sodipodi:r2="124.08177"
           sodipodi:arg1="0.22082877"
           sodipodi:arg2="0.28366062"
           inkscape:flatsided="false"
           inkscape:rounded="0"
           inkscape:randomized="0"
           d="M -468.26522,564.81544 L -484.11264,569.24292 L -473.12704,581.49282 L -489.40441,583.89918 L -480.04075,597.42934 L -496.49137,597.77663 L -488.89732,612.37368 L -505.26175,610.65643 L -499.55708,626.09016 L -515.57723,622.33544 L -511.85191,638.36246 L -527.27515,632.62948 L -525.58792,648.99703 L -540.17101,641.37622 L -540.54848,657.82617 L -554.06144,648.4377 L -556.49766,664.71064 L -568.72738,653.70258 L -573.18393,669.54185 L -583.93754,657.0878 L -590.34413,672.24363 L -599.45204,658.54 L -607.70764,672.77336 L -615.02621,658.03626 L -625.00063,671.12268 L -630.41444,655.58453 L -641.95038,667.31764 L -645.37405,651.22348 L -658.28957,661.41823 L -659.66911,645.02188 L -673.76053,653.5175 L -673.07419,637.07753 L -688.11927,643.74004 L -685.37787,627.51573 L -701.13935,632.24005 L -696.38612,616.48727 L -712.61543,619.1989 L -705.92533,604.16607 L -722.36653,604.82224 L -713.84507,590.74644 L -730.23887,589.33681 L -720.02044,576.44002 L -736.10829,572.98683 L -724.35404,561.47244 L -739.88223,556.03013 L -726.77753,546.07974 L -741.50118,538.73415 L -727.2527,530.50467 L -740.93959,521.37163 L -725.77204,514.99286 L -738.20634,504.21642 L -722.35892,499.78894 L -733.34452,487.53904 L -717.06715,485.13268 L -726.43081,471.60252 L -709.98019,471.25523 L -717.57424,456.65818 L -701.20981,458.37544 L -706.91448,442.9417 L -690.89432,446.69642 L -694.61965,430.6694 L -679.19641,436.40238 L -680.88364,420.03483 L -666.30055,427.65564 L -665.92308,411.20569 L -652.41012,420.59416 L -649.9739,404.32122 L -637.74418,415.32928 L -633.28763,399.49001 L -622.53402,411.94406 L -616.12743,396.78823 L -607.01952,410.49186 L -598.76391,396.2585 L -591.44534,410.9956 L -581.47093,397.90918 L -576.05711,413.44733 L -564.52118,401.71422 L -561.09751,417.80838 L -548.18199,407.61363 L -546.80244,424.00998 L -532.71103,415.51436 L -533.39737,431.95433 L -518.35229,425.29182 L -521.09369,441.51613 L -505.33221,436.79181 L -510.08544,452.54459 L -493.85613,449.83296 L -500.54622,464.86579 L -484.10503,464.20962 L -492.62648,478.28542 L -476.23269,479.69505 L -486.45112,492.59184 L -470.36327,496.04503 L -482.11752,507.55942 L -466.58933,513.00173 L -479.69403,522.95212 L -464.97038,530.29772 L -479.21886,538.52719 L -465.53196,547.66023 L -480.69952,554.039 L -468.26522,564.81544 z"
           transform="matrix(0.5321035,0,0,0.2893154,-53.023442,301.48654)" />
        <path
           sodipodi:type="star"
           style="opacity:1;color:#000000;fill:#b1d3e2;fill-opacity:1;fill-rule:nonzero;stroke:#63777f;stroke-width:6.37171316;stroke-linecap:square;stroke-linejoin:miter;marker:none;marker-start:none;marker-mid:none;marker-end:none;stroke-miterlimit:4;stroke-dasharray:none;stroke-dashoffset:0;stroke-opacity:1;visibility:visible;display:inline;overflow:visible;enable-background:accumulate"
           id="path6067"
           sodipodi:sides="50"
           sodipodi:cx="-603.23578"
           sodipodi:cy="534.51593"
           sodipodi:r1="138.32973"
           sodipodi:r2="124.08177"
           sodipodi:arg1="0.22082877"
           sodipodi:arg2="0.28366062"
           inkscape:flatsided="false"
           inkscape:rounded="0"
           inkscape:randomized="0"
           d="M -468.26522,564.81544 L -484.11264,569.24292 L -473.12704,581.49282 L -489.40441,583.89918 L -480.04075,597.42934 L -496.49137,597.77663 L -488.89732,612.37368 L -505.26175,610.65643 L -499.55708,626.09016 L -515.57723,622.33544 L -511.85191,638.36246 L -527.27515,632.62948 L -525.58792,648.99703 L -540.17101,641.37622 L -540.54848,657.82617 L -554.06144,648.4377 L -556.49766,664.71064 L -568.72738,653.70258 L -573.18393,669.54185 L -583.93754,657.0878 L -590.34413,672.24363 L -599.45204,658.54 L -607.70764,672.77336 L -615.02621,658.03626 L -625.00063,671.12268 L -630.41444,655.58453 L -641.95038,667.31764 L -645.37405,651.22348 L -658.28957,661.41823 L -659.66911,645.02188 L -673.76053,653.5175 L -673.07419,637.07753 L -688.11927,643.74004 L -685.37787,627.51573 L -701.13935,632.24005 L -696.38612,616.48727 L -712.61543,619.1989 L -705.92533,604.16607 L -722.36653,604.82224 L -713.84507,590.74644 L -730.23887,589.33681 L -720.02044,576.44002 L -736.10829,572.98683 L -724.35404,561.47244 L -739.88223,556.03013 L -726.77753,546.07974 L -741.50118,538.73415 L -727.2527,530.50467 L -740.93959,521.37163 L -725.77204,514.99286 L -738.20634,504.21642 L -722.35892,499.78894 L -733.34452,487.53904 L -717.06715,485.13268 L -726.43081,471.60252 L -709.98019,471.25523 L -717.57424,456.65818 L -701.20981,458.37544 L -706.91448,442.9417 L -690.89432,446.69642 L -694.61965,430.6694 L -679.19641,436.40238 L -680.88364,420.03483 L -666.30055,427.65564 L -665.92308,411.20569 L -652.41012,420.59416 L -649.9739,404.32122 L -637.74418,415.32928 L -633.28763,399.49001 L -622.53402,411.94406 L -616.12743,396.78823 L -607.01952,410.49186 L -598.76391,396.2585 L -591.44534,410.9956 L -581.47093,397.90918 L -576.05711,413.44733 L -564.52118,401.71422 L -561.09751,417.80838 L -548.18199,407.61363 L -546.80244,424.00998 L -532.71103,415.51436 L -533.39737,431.95433 L -518.35229,425.29182 L -521.09369,441.51613 L -505.33221,436.79181 L -510.08544,452.54459 L -493.85613,449.83296 L -500.54622,464.86579 L -484.10503,464.20962 L -492.62648,478.28542 L -476.23269,479.69505 L -486.45112,492.59184 L -470.36327,496.04503 L -482.11752,507.55942 L -466.58933,513.00173 L -479.69403,522.95212 L -464.97038,530.29772 L -479.21886,538.52719 L -465.53196,547.66023 L -480.69952,554.039 L -468.26522,564.81544 z"
           transform="matrix(0.5321035,0,0,0.2893154,-54.359922,299.01943)" />
      </g>
      <text
         id="text17937"
         y="150.68535"
         x="193.2294"
         style="font-size:13.8907032px;font-style:normal;font-weight:normal;text-align:center;text-anchor:middle;fill:#000000;fill-opacity:1;stroke:none;stroke-width:1px;stroke-linecap:butt;stroke-linejoin:miter;stroke-opacity:1;font-family:Bitstream Vera Sans"
         xml:space="preserve"
         transform="scale(1.0786851,0.9270546)"
         inkscape:export-filename="/home/whats/Desktop/PFC/svn-pfc/projecte/diagrames/path8798.png"
         inkscape:export-xdpi="198"
         inkscape:export-ydpi="198"><tspan
           id="tspan17941"
           y="150.68535"
           x="193.2294"
           sodipodi:role="line">Launcher</tspan></text>
      <text
         transform="scale(1.0443366,0.9575457)"
         xml:space="preserve"
         style="font-size:6.71820498px;font-style:normal;font-weight:normal;text-align:center;text-anchor:middle;fill:#664444;fill-opacity:1;stroke:none;stroke-width:1px;stroke-linecap:butt;stroke-linejoin:miter;stroke-opacity:1;font-family:Bitstream Vera Sans"
         x="-668.50012"
         y="199.72632"
         id="text3819"><tspan
           sodipodi:role="line"
           x="-668.50012"
           y="199.72632"
           id="tspan3821" /></text>
      <text
         xml:space="preserve"
         style="font-size:10px;font-style:normal;font-variant:normal;font-weight:bold;font-stretch:normal;fill:#000000;fill-opacity:1;stroke:none;stroke-width:1px;stroke-linecap:butt;stroke-linejoin:miter;stroke-opacity:1;font-family:Sans;-inkscape-font-specification:Sans"
         x="-150"
         y="620.93359"
         id="text3611"
         transform="translate(-2.279685,-84.376958)"><tspan
           sodipodi:role="line"
           id="tspan3613"
           x="-150"
           y="620.93359" /></text>
      <g
         transform="matrix(0.5200251,0,0,0.3791795,-96.083567,67.187363)"
         id="g3629"
         style="fill:#b1d3e2;fill-opacity:1;stroke:#63777f;stroke-opacity:1"
         inkscape:connector-avoid="true"
         inkscape:export-filename="/home/whats/Desktop/PFC/svn-pfc/projecte/diagrames/path8798.png"
         inkscape:export-xdpi="198"
         inkscape:export-ydpi="198">
        <path
           sodipodi:type="arc"
           style="opacity:0.63888891;color:#000000;fill:#b1d3e2;fill-opacity:1;fill-rule:nonzero;stroke:#63777f;stroke-width:2.50692391;stroke-linecap:square;stroke-linejoin:miter;marker:none;marker-start:none;marker-mid:none;marker-end:none;stroke-miterlimit:4;stroke-dasharray:none;stroke-dashoffset:0;stroke-opacity:1;visibility:visible;display:inline;overflow:visible;filter:url(#filter3641);enable-background:accumulate"
           id="path3631"
           sodipodi:cx="325.71429"
           sodipodi:cy="150.93361"
           sodipodi:rx="71.428574"
           sodipodi:ry="41.42857"
           d="M 397.14287,150.93361 A 71.428574,41.42857 0 1 1 254.28572,150.93361 A 71.428574,41.42857 0 1 1 397.14287,150.93361 z"
           transform="matrix(1.030001,0,0,0.9655173,85.923502,-201.75162)" />
        <path
           sodipodi:type="arc"
           style="opacity:1;color:#000000;fill:#b1d3e2;fill-opacity:1;fill-rule:nonzero;stroke:#63777f;stroke-width:2.50692391;stroke-linecap:square;stroke-linejoin:miter;marker:none;marker-start:none;marker-mid:none;marker-end:none;stroke-miterlimit:4;stroke-dasharray:none;stroke-dashoffset:0;stroke-opacity:1;visibility:visible;display:inline;overflow:visible;enable-background:accumulate"
           id="path3633"
           sodipodi:cx="325.71429"
           sodipodi:cy="150.93361"
           sodipodi:rx="71.428574"
           sodipodi:ry="41.42857"
           d="M 397.14287,150.93361 A 71.428574,41.42857 0 1 1 254.28572,150.93361 A 71.428574,41.42857 0 1 1 397.14287,150.93361 z"
           transform="matrix(1.030001,0,0,0.9655173,83.674052,-208.75775)" />
      </g>
      <g
         transform="matrix(0.5200251,0,0,0.3791795,-162.79803,190.54719)"
         id="g3654"
         style="fill:#b1d3e2;fill-opacity:1;stroke:#63777f;stroke-opacity:1"
         inkscape:export-filename="/home/whats/Desktop/PFC/svn-pfc/projecte/diagrames/path8798.png"
         inkscape:export-xdpi="198"
         inkscape:export-ydpi="198">
        <path
           sodipodi:type="arc"
           style="opacity:0.63888891;color:#000000;fill:#b1d3e2;fill-opacity:1;fill-rule:nonzero;stroke:#63777f;stroke-width:2.50692391;stroke-linecap:square;stroke-linejoin:miter;marker:none;marker-start:none;marker-mid:none;marker-end:none;stroke-miterlimit:4;stroke-dasharray:none;stroke-dashoffset:0;stroke-opacity:1;visibility:visible;display:inline;overflow:visible;filter:url(#filter3641);enable-background:accumulate"
           id="path3656"
           sodipodi:cx="325.71429"
           sodipodi:cy="150.93361"
           sodipodi:rx="71.428574"
           sodipodi:ry="41.42857"
           d="M 397.14287,150.93361 A 71.428574,41.42857 0 1 1 254.28572,150.93361 A 71.428574,41.42857 0 1 1 397.14287,150.93361 z"
           transform="matrix(1.030001,0,0,0.9655173,85.923502,-201.75162)" />
        <path
           sodipodi:type="arc"
           style="opacity:1;color:#000000;fill:#b1d3e2;fill-opacity:1;fill-rule:nonzero;stroke:#63777f;stroke-width:2.50692391;stroke-linecap:square;stroke-linejoin:miter;marker:none;marker-start:none;marker-mid:none;marker-end:none;stroke-miterlimit:4;stroke-dasharray:none;stroke-dashoffset:0;stroke-opacity:1;visibility:visible;display:inline;overflow:visible;enable-background:accumulate"
           id="path3658"
           sodipodi:cx="325.71429"
           sodipodi:cy="150.93361"
           sodipodi:rx="71.428574"
           sodipodi:ry="41.42857"
           d="M 397.14287,150.93361 A 71.428574,41.42857 0 1 1 254.28572,150.93361 A 71.428574,41.42857 0 1 1 397.14287,150.93361 z"
           transform="matrix(1.030001,0,0,0.9655173,83.674052,-208.75775)"
           inkscape:connector-avoid="true" />
      </g>
      <g
         transform="matrix(0.5200251,0,0,0.3791795,-40.842132,275.1609)"
         id="g3660"
         style="fill:#b1d3e2;fill-opacity:1;stroke:#63777f;stroke-opacity:1"
         inkscape:connector-avoid="true"
         inkscape:export-filename="/home/whats/Desktop/PFC/svn-pfc/projecte/diagrames/path8798.png"
         inkscape:export-xdpi="198"
         inkscape:export-ydpi="198">
        <path
           sodipodi:type="arc"
           style="opacity:0.63888891;color:#000000;fill:#b1d3e2;fill-opacity:1;fill-rule:nonzero;stroke:#63777f;stroke-width:2.50692391;stroke-linecap:square;stroke-linejoin:miter;marker:none;marker-start:none;marker-mid:none;marker-end:none;stroke-miterlimit:4;stroke-dasharray:none;stroke-dashoffset:0;stroke-opacity:1;visibility:visible;display:inline;overflow:visible;filter:url(#filter3641);enable-background:accumulate"
           id="path3662"
           sodipodi:cx="325.71429"
           sodipodi:cy="150.93361"
           sodipodi:rx="71.428574"
           sodipodi:ry="41.42857"
           d="M 397.14287,150.93361 A 71.428574,41.42857 0 1 1 254.28572,150.93361 A 71.428574,41.42857 0 1 1 397.14287,150.93361 z"
           transform="matrix(1.030001,0,0,0.9655173,85.923502,-201.75162)" />
        <path
           sodipodi:type="arc"
           style="opacity:1;color:#000000;fill:#b1d3e2;fill-opacity:1;fill-rule:nonzero;stroke:#63777f;stroke-width:2.50692391;stroke-linecap:square;stroke-linejoin:miter;marker:none;marker-start:none;marker-mid:none;marker-end:none;stroke-miterlimit:4;stroke-dasharray:none;stroke-dashoffset:0;stroke-opacity:1;visibility:visible;display:inline;overflow:visible;enable-background:accumulate"
           id="path3664"
           sodipodi:cx="325.71429"
           sodipodi:cy="150.93361"
           sodipodi:rx="71.428574"
           sodipodi:ry="41.42857"
           d="M 397.14287,150.93361 A 71.428574,41.42857 0 1 1 254.28572,150.93361 A 71.428574,41.42857 0 1 1 397.14287,150.93361 z"
           transform="matrix(1.030001,0,0,0.9655173,83.674052,-208.75775)" />
      </g>
      <g
         transform="matrix(0.5200251,0,0,0.3791795,123.60018,262.89468)"
         id="g3666"
         style="fill:#b1d3e2;fill-opacity:1;stroke:#63777f;stroke-opacity:1"
         inkscape:connector-avoid="true"
         inkscape:export-filename="/home/whats/Desktop/PFC/svn-pfc/projecte/diagrames/path8798.png"
         inkscape:export-xdpi="198"
         inkscape:export-ydpi="198">
        <path
           sodipodi:type="arc"
           style="opacity:0.63888891;color:#000000;fill:#b1d3e2;fill-opacity:1;fill-rule:nonzero;stroke:#63777f;stroke-width:2.50692391;stroke-linecap:square;stroke-linejoin:miter;marker:none;marker-start:none;marker-mid:none;marker-end:none;stroke-miterlimit:4;stroke-dasharray:none;stroke-dashoffset:0;stroke-opacity:1;visibility:visible;display:inline;overflow:visible;filter:url(#filter3641);enable-background:accumulate"
           id="path3668"
           sodipodi:cx="325.71429"
           sodipodi:cy="150.93361"
           sodipodi:rx="71.428574"
           sodipodi:ry="41.42857"
           d="M 397.14287,150.93361 A 71.428574,41.42857 0 1 1 254.28572,150.93361 A 71.428574,41.42857 0 1 1 397.14287,150.93361 z"
           transform="matrix(1.030001,0,0,0.9655173,85.923502,-201.75162)" />
        <path
           sodipodi:type="arc"
           style="opacity:1;color:#000000;fill:#b1d3e2;fill-opacity:1;fill-rule:nonzero;stroke:#63777f;stroke-width:2.50692391;stroke-linecap:square;stroke-linejoin:miter;marker:none;marker-start:none;marker-mid:none;marker-end:none;stroke-miterlimit:4;stroke-dasharray:none;stroke-dashoffset:0;stroke-opacity:1;visibility:visible;display:inline;overflow:visible;enable-background:accumulate"
           id="path3670"
           sodipodi:cx="325.71429"
           sodipodi:cy="150.93361"
           sodipodi:rx="71.428574"
           sodipodi:ry="41.42857"
           d="M 397.14287,150.93361 A 71.428574,41.42857 0 1 1 254.28572,150.93361 A 71.428574,41.42857 0 1 1 397.14287,150.93361 z"
           transform="matrix(1.030001,0,0,0.9655173,83.674052,-208.75775)" />
      </g>
      <g
         transform="matrix(0.5200251,0,0,0.3791795,143.45484,203.60922)"
         id="g3672"
         style="fill:#b1d3e2;fill-opacity:1;stroke:#63777f;stroke-opacity:1"
         inkscape:connector-avoid="true"
         inkscape:export-filename="/home/whats/Desktop/PFC/svn-pfc/projecte/diagrames/path8798.png"
         inkscape:export-xdpi="198"
         inkscape:export-ydpi="198">
        <path
           sodipodi:type="arc"
           style="opacity:0.63888891;color:#000000;fill:#b1d3e2;fill-opacity:1;fill-rule:nonzero;stroke:#63777f;stroke-width:2.50692391;stroke-linecap:square;stroke-linejoin:miter;marker:none;marker-start:none;marker-mid:none;marker-end:none;stroke-miterlimit:4;stroke-dasharray:none;stroke-dashoffset:0;stroke-opacity:1;visibility:visible;display:inline;overflow:visible;filter:url(#filter3641);enable-background:accumulate"
           id="path3674"
           sodipodi:cx="325.71429"
           sodipodi:cy="150.93361"
           sodipodi:rx="71.428574"
           sodipodi:ry="41.42857"
           d="M 397.14287,150.93361 A 71.428574,41.42857 0 1 1 254.28572,150.93361 A 71.428574,41.42857 0 1 1 397.14287,150.93361 z"
           transform="matrix(1.030001,0,0,0.9655173,85.923502,-201.75162)" />
        <path
           sodipodi:type="arc"
           style="opacity:1;color:#000000;fill:#b1d3e2;fill-opacity:1;fill-rule:nonzero;stroke:#63777f;stroke-width:2.50692391;stroke-linecap:square;stroke-linejoin:miter;marker:none;marker-start:none;marker-mid:none;marker-end:none;stroke-miterlimit:4;stroke-dasharray:none;stroke-dashoffset:0;stroke-opacity:1;visibility:visible;display:inline;overflow:visible;enable-background:accumulate"
           id="path3676"
           sodipodi:cx="325.71429"
           sodipodi:cy="150.93361"
           sodipodi:rx="71.428574"
           sodipodi:ry="41.42857"
           d="M 397.14287,150.93361 A 71.428574,41.42857 0 1 1 254.28572,150.93361 A 71.428574,41.42857 0 1 1 397.14287,150.93361 z"
           transform="matrix(1.030001,0,0,0.9655173,83.674052,-208.75775)" />
      </g>
      <g
         transform="matrix(0.5200251,0,0,0.3791795,141.09895,126.42071)"
         id="g3678"
         style="fill:#b1d3e2;fill-opacity:1;stroke:#63777f;stroke-opacity:1"
         inkscape:connector-avoid="true"
         inkscape:export-filename="/home/whats/Desktop/PFC/svn-pfc/projecte/diagrames/path8798.png"
         inkscape:export-xdpi="198"
         inkscape:export-ydpi="198">
        <path
           sodipodi:type="arc"
           style="opacity:0.63888891;color:#000000;fill:#b1d3e2;fill-opacity:1;fill-rule:nonzero;stroke:#63777f;stroke-width:2.50692391;stroke-linecap:square;stroke-linejoin:miter;marker:none;marker-start:none;marker-mid:none;marker-end:none;stroke-miterlimit:4;stroke-dasharray:none;stroke-dashoffset:0;stroke-opacity:1;visibility:visible;display:inline;overflow:visible;filter:url(#filter3641);enable-background:accumulate"
           id="path3680"
           sodipodi:cx="325.71429"
           sodipodi:cy="150.93361"
           sodipodi:rx="71.428574"
           sodipodi:ry="41.42857"
           d="M 397.14287,150.93361 A 71.428574,41.42857 0 1 1 254.28572,150.93361 A 71.428574,41.42857 0 1 1 397.14287,150.93361 z"
           transform="matrix(1.030001,0,0,0.9655173,85.923502,-201.75162)" />
        <path
           sodipodi:type="arc"
           style="opacity:1;color:#000000;fill:#b1d3e2;fill-opacity:1;fill-rule:nonzero;stroke:#63777f;stroke-width:2.50692391;stroke-linecap:square;stroke-linejoin:miter;marker:none;marker-start:none;marker-mid:none;marker-end:none;stroke-miterlimit:4;stroke-dasharray:none;stroke-dashoffset:0;stroke-opacity:1;visibility:visible;display:inline;overflow:visible;enable-background:accumulate"
           id="path3682"
           sodipodi:cx="325.71429"
           sodipodi:cy="150.93361"
           sodipodi:rx="71.428574"
           sodipodi:ry="41.42857"
           d="M 397.14287,150.93361 A 71.428574,41.42857 0 1 1 254.28572,150.93361 A 71.428574,41.42857 0 1 1 397.14287,150.93361 z"
           transform="matrix(1.030001,0,0,0.9655173,83.674052,-208.75775)" />
      </g>
      <g
         transform="matrix(0.5200251,0,0,0.3791795,74.05067,57.795318)"
         id="g3684"
         style="fill:#b1d3e2;fill-opacity:1;stroke:#63777f;stroke-opacity:1"
         inkscape:connector-avoid="true"
         inkscape:export-filename="/home/whats/Desktop/PFC/svn-pfc/projecte/diagrames/path8798.png"
         inkscape:export-xdpi="198"
         inkscape:export-ydpi="198">
        <path
           sodipodi:type="arc"
           style="opacity:0.63888891;color:#000000;fill:#b1d3e2;fill-opacity:1;fill-rule:nonzero;stroke:#63777f;stroke-width:2.50692391;stroke-linecap:square;stroke-linejoin:miter;marker:none;marker-start:none;marker-mid:none;marker-end:none;stroke-miterlimit:4;stroke-dasharray:none;stroke-dashoffset:0;stroke-opacity:1;visibility:visible;display:inline;overflow:visible;filter:url(#filter3641);enable-background:accumulate"
           id="path3686"
           sodipodi:cx="325.71429"
           sodipodi:cy="150.93361"
           sodipodi:rx="71.428574"
           sodipodi:ry="41.42857"
           d="M 397.14287,150.93361 A 71.428574,41.42857 0 1 1 254.28572,150.93361 A 71.428574,41.42857 0 1 1 397.14287,150.93361 z"
           transform="matrix(1.030001,0,0,0.9655173,85.923502,-201.75162)" />
        <path
           sodipodi:type="arc"
           style="opacity:1;color:#000000;fill:#b1d3e2;fill-opacity:1;fill-rule:nonzero;stroke:#63777f;stroke-width:2.50692391;stroke-linecap:square;stroke-linejoin:miter;marker:none;marker-start:none;marker-mid:none;marker-end:none;stroke-miterlimit:4;stroke-dasharray:none;stroke-dashoffset:0;stroke-opacity:1;visibility:visible;display:inline;overflow:visible;enable-background:accumulate"
           id="path3688"
           sodipodi:cx="325.71429"
           sodipodi:cy="150.93361"
           sodipodi:rx="71.428574"
           sodipodi:ry="41.42857"
           d="M 397.14287,150.93361 A 71.428574,41.42857 0 1 1 254.28572,150.93361 A 71.428574,41.42857 0 1 1 397.14287,150.93361 z"
           transform="matrix(1.030001,0,0,0.9655173,83.674052,-208.75775)" />
      </g>
      <g
         id="g3694"
         style="stroke:#63777f;stroke-opacity:1"
         transform="matrix(0.7491847,0,0,0.643872,828.7652,-130.78446)"
         inkscape:export-filename="/home/whats/Desktop/PFC/svn-pfc/projecte/diagrames/path8798.png"
         inkscape:export-xdpi="198"
         inkscape:export-ydpi="198">
        <path
           sodipodi:type="star"
           style="opacity:1;color:#000000;fill:#000000;fill-opacity:1;fill-rule:nonzero;stroke:#63777f;stroke-width:6.37171316;stroke-linecap:square;stroke-linejoin:miter;marker:none;marker-start:none;marker-mid:none;marker-end:none;stroke-miterlimit:4;stroke-dasharray:none;stroke-dashoffset:0;stroke-opacity:1;visibility:visible;display:inline;overflow:visible;filter:url(#filter14635);enable-background:accumulate"
           id="path3696"
           sodipodi:sides="50"
           sodipodi:cx="-603.23578"
           sodipodi:cy="534.51593"
           sodipodi:r1="138.32973"
           sodipodi:r2="124.08177"
           sodipodi:arg1="0.22082877"
           sodipodi:arg2="0.28366062"
           inkscape:flatsided="false"
           inkscape:rounded="0"
           inkscape:randomized="0"
           d="M -468.26522,564.81544 L -484.11264,569.24292 L -473.12704,581.49282 L -489.40441,583.89918 L -480.04075,597.42934 L -496.49137,597.77663 L -488.89732,612.37368 L -505.26175,610.65643 L -499.55708,626.09016 L -515.57723,622.33544 L -511.85191,638.36246 L -527.27515,632.62948 L -525.58792,648.99703 L -540.17101,641.37622 L -540.54848,657.82617 L -554.06144,648.4377 L -556.49766,664.71064 L -568.72738,653.70258 L -573.18393,669.54185 L -583.93754,657.0878 L -590.34413,672.24363 L -599.45204,658.54 L -607.70764,672.77336 L -615.02621,658.03626 L -625.00063,671.12268 L -630.41444,655.58453 L -641.95038,667.31764 L -645.37405,651.22348 L -658.28957,661.41823 L -659.66911,645.02188 L -673.76053,653.5175 L -673.07419,637.07753 L -688.11927,643.74004 L -685.37787,627.51573 L -701.13935,632.24005 L -696.38612,616.48727 L -712.61543,619.1989 L -705.92533,604.16607 L -722.36653,604.82224 L -713.84507,590.74644 L -730.23887,589.33681 L -720.02044,576.44002 L -736.10829,572.98683 L -724.35404,561.47244 L -739.88223,556.03013 L -726.77753,546.07974 L -741.50118,538.73415 L -727.2527,530.50467 L -740.93959,521.37163 L -725.77204,514.99286 L -738.20634,504.21642 L -722.35892,499.78894 L -733.34452,487.53904 L -717.06715,485.13268 L -726.43081,471.60252 L -709.98019,471.25523 L -717.57424,456.65818 L -701.20981,458.37544 L -706.91448,442.9417 L -690.89432,446.69642 L -694.61965,430.6694 L -679.19641,436.40238 L -680.88364,420.03483 L -666.30055,427.65564 L -665.92308,411.20569 L -652.41012,420.59416 L -649.9739,404.32122 L -637.74418,415.32928 L -633.28763,399.49001 L -622.53402,411.94406 L -616.12743,396.78823 L -607.01952,410.49186 L -598.76391,396.2585 L -591.44534,410.9956 L -581.47093,397.90918 L -576.05711,413.44733 L -564.52118,401.71422 L -561.09751,417.80838 L -548.18199,407.61363 L -546.80244,424.00998 L -532.71103,415.51436 L -533.39737,431.95433 L -518.35229,425.29182 L -521.09369,441.51613 L -505.33221,436.79181 L -510.08544,452.54459 L -493.85613,449.83296 L -500.54622,464.86579 L -484.10503,464.20962 L -492.62648,478.28542 L -476.23269,479.69505 L -486.45112,492.59184 L -470.36327,496.04503 L -482.11752,507.55942 L -466.58933,513.00173 L -479.69403,522.95212 L -464.97038,530.29772 L -479.21886,538.52719 L -465.53196,547.66023 L -480.69952,554.039 L -468.26522,564.81544 z"
           transform="matrix(0.5321035,0,0,0.2893154,-53.023442,301.48654)" />
        <path
           sodipodi:type="star"
           style="opacity:1;color:#000000;fill:#b1d3e2;fill-opacity:1;fill-rule:nonzero;stroke:#63777f;stroke-width:6.37171316;stroke-linecap:square;stroke-linejoin:miter;marker:none;marker-start:none;marker-mid:none;marker-end:none;stroke-miterlimit:4;stroke-dasharray:none;stroke-dashoffset:0;stroke-opacity:1;visibility:visible;display:inline;overflow:visible;enable-background:accumulate"
           id="path3698"
           sodipodi:sides="50"
           sodipodi:cx="-603.23578"
           sodipodi:cy="534.51593"
           sodipodi:r1="138.32973"
           sodipodi:r2="124.08177"
           sodipodi:arg1="0.22082877"
           sodipodi:arg2="0.28366062"
           inkscape:flatsided="false"
           inkscape:rounded="0"
           inkscape:randomized="0"
           d="M -468.26522,564.81544 L -484.11264,569.24292 L -473.12704,581.49282 L -489.40441,583.89918 L -480.04075,597.42934 L -496.49137,597.77663 L -488.89732,612.37368 L -505.26175,610.65643 L -499.55708,626.09016 L -515.57723,622.33544 L -511.85191,638.36246 L -527.27515,632.62948 L -525.58792,648.99703 L -540.17101,641.37622 L -540.54848,657.82617 L -554.06144,648.4377 L -556.49766,664.71064 L -568.72738,653.70258 L -573.18393,669.54185 L -583.93754,657.0878 L -590.34413,672.24363 L -599.45204,658.54 L -607.70764,672.77336 L -615.02621,658.03626 L -625.00063,671.12268 L -630.41444,655.58453 L -641.95038,667.31764 L -645.37405,651.22348 L -658.28957,661.41823 L -659.66911,645.02188 L -673.76053,653.5175 L -673.07419,637.07753 L -688.11927,643.74004 L -685.37787,627.51573 L -701.13935,632.24005 L -696.38612,616.48727 L -712.61543,619.1989 L -705.92533,604.16607 L -722.36653,604.82224 L -713.84507,590.74644 L -730.23887,589.33681 L -720.02044,576.44002 L -736.10829,572.98683 L -724.35404,561.47244 L -739.88223,556.03013 L -726.77753,546.07974 L -741.50118,538.73415 L -727.2527,530.50467 L -740.93959,521.37163 L -725.77204,514.99286 L -738.20634,504.21642 L -722.35892,499.78894 L -733.34452,487.53904 L -717.06715,485.13268 L -726.43081,471.60252 L -709.98019,471.25523 L -717.57424,456.65818 L -701.20981,458.37544 L -706.91448,442.9417 L -690.89432,446.69642 L -694.61965,430.6694 L -679.19641,436.40238 L -680.88364,420.03483 L -666.30055,427.65564 L -665.92308,411.20569 L -652.41012,420.59416 L -649.9739,404.32122 L -637.74418,415.32928 L -633.28763,399.49001 L -622.53402,411.94406 L -616.12743,396.78823 L -607.01952,410.49186 L -598.76391,396.2585 L -591.44534,410.9956 L -581.47093,397.90918 L -576.05711,413.44733 L -564.52118,401.71422 L -561.09751,417.80838 L -548.18199,407.61363 L -546.80244,424.00998 L -532.71103,415.51436 L -533.39737,431.95433 L -518.35229,425.29182 L -521.09369,441.51613 L -505.33221,436.79181 L -510.08544,452.54459 L -493.85613,449.83296 L -500.54622,464.86579 L -484.10503,464.20962 L -492.62648,478.28542 L -476.23269,479.69505 L -486.45112,492.59184 L -470.36327,496.04503 L -482.11752,507.55942 L -466.58933,513.00173 L -479.69403,522.95212 L -464.97038,530.29772 L -479.21886,538.52719 L -465.53196,547.66023 L -480.69952,554.039 L -468.26522,564.81544 z"
           transform="matrix(0.5321035,0,0,0.2893154,-54.359922,299.01943)" />
      </g>
      <path
         style="fill:none;fill-rule:evenodd;stroke:#63777f;stroke-width:2;stroke-linecap:butt;stroke-linejoin:round;stroke-opacity:1;stroke-miterlimit:4;stroke-dasharray:none"
         d="M 335.31226,114.56924 L 263.09219,134.82292"
         id="path8726"
         inkscape:connector-type="polyline"
         inkscape:connection-end="#g3690"
         inkscape:connection-start="#g3678"
         inkscape:export-filename="/home/whats/Desktop/PFC/svn-pfc/projecte/diagrames/path8798.png"
         inkscape:export-xdpi="198"
         inkscape:export-ydpi="198"
         sodipodi:nodetypes="cc" />
      <path
         style="fill:none;fill-rule:evenodd;stroke:#63777f;stroke-width:2;stroke-linecap:butt;stroke-linejoin:round;stroke-opacity:1;stroke-miterlimit:4;stroke-dasharray:none"
         d="M 323.01955,178.14804 L 246.14828,153.02824"
         id="path8728"
         inkscape:connector-type="polyline"
         inkscape:connection-start="#g3672"
         inkscape:connection-end="#g3690"
         inkscape:export-filename="/home/whats/Desktop/PFC/svn-pfc/projecte/diagrames/path8798.png"
         inkscape:export-xdpi="198"
         inkscape:export-ydpi="198"
         sodipodi:nodetypes="cc" />
      <path
         style="fill:none;fill-rule:evenodd;stroke:#63777f;stroke-width:2;stroke-linecap:butt;stroke-linejoin:round;stroke-opacity:1;stroke-miterlimit:4;stroke-dasharray:none"
         d="M 304.91489,234.32966 L 230.25784,157.52824"
         id="path8730"
         inkscape:connector-type="polyline"
         inkscape:connection-start="#g3666"
         inkscape:connection-end="#g3690"
         inkscape:export-filename="/home/whats/Desktop/PFC/svn-pfc/projecte/diagrames/path8798.png"
         inkscape:export-xdpi="198"
         inkscape:export-ydpi="198"
         sodipodi:nodetypes="cc" />
      <path
         style="fill:none;fill-rule:evenodd;stroke:#63777f;stroke-width:2;stroke-linecap:butt;stroke-linejoin:round;stroke-opacity:1;stroke-miterlimit:4;stroke-dasharray:none"
         d="M 187.82099,236.62054 L 207.27755,160.65324"
         id="path8732"
         inkscape:connector-type="polyline"
         inkscape:connection-start="#g3660"
         inkscape:connection-end="#g3690"
         inkscape:export-filename="/home/whats/Desktop/PFC/svn-pfc/projecte/diagrames/path8798.png"
         inkscape:export-xdpi="198"
         inkscape:export-ydpi="198"
         sodipodi:nodetypes="cc" />
      <path
         style="fill:none;fill-rule:evenodd;stroke:#63777f;stroke-width:2;stroke-linecap:butt;stroke-linejoin:round;stroke-opacity:1;stroke-miterlimit:4;stroke-dasharray:none"
         d="M 91.048033,160.9388 L 159.52571,141.73985"
         id="path8734"
         inkscape:connector-type="polyline"
         inkscape:export-filename="/home/whats/Desktop/PFC/svn-pfc/projecte/diagrames/path8798.png"
         inkscape:export-xdpi="198"
         inkscape:export-ydpi="198"
         sodipodi:nodetypes="cc" />
      <path
         style="fill:none;fill-rule:evenodd;stroke:#63777f;stroke-width:2;stroke-linecap:butt;stroke-linejoin:round;stroke-opacity:1;stroke-miterlimit:4;stroke-dasharray:none"
         d="M 141.18849,56.386107 L 184.57767,114.63191"
         id="path8736"
         inkscape:connector-type="polyline"
         inkscape:export-filename="/home/whats/Desktop/PFC/svn-pfc/projecte/diagrames/path8798.png"
         inkscape:export-xdpi="198"
         inkscape:export-ydpi="198"
         sodipodi:nodetypes="cc" />
      <path
         style="fill:none;fill-rule:evenodd;stroke:#63777f;stroke-width:2;stroke-linecap:butt;stroke-linejoin:round;stroke-opacity:1;stroke-miterlimit:4;stroke-dasharray:none"
         d="M 233.04015,112.03706 L 276.81256,47.597654"
         id="path8738"
         inkscape:connector-type="polyline"
         inkscape:connection-start="#g3690"
         inkscape:connection-end="#g3684"
         inkscape:export-filename="/home/whats/Desktop/PFC/svn-pfc/projecte/diagrames/path8798.png"
         inkscape:export-xdpi="198"
         inkscape:export-ydpi="198"
         sodipodi:nodetypes="cc" />
      <path
         style="fill:none;fill-rule:evenodd;stroke:#63777f;stroke-width:2;stroke-linecap:butt;stroke-linejoin:round;stroke-opacity:1;stroke-miterlimit:4;stroke-dasharray:none"
         d="M 501.40337,173.96475 L 397.61835,185.04071"
         id="path8740"
         inkscape:connector-type="polyline"
         inkscape:connection-start="#g3694"
         inkscape:connection-end="#g3672"
         inkscape:export-filename="/home/whats/Desktop/PFC/svn-pfc/projecte/diagrames/path8798.png"
         inkscape:export-xdpi="198"
         inkscape:export-ydpi="198"
         sodipodi:nodetypes="cc" />
      <path
         style="fill:none;fill-rule:evenodd;stroke:#63777f;stroke-width:2;stroke-linecap:butt;stroke-linejoin:round;stroke-opacity:1;stroke-miterlimit:4;stroke-dasharray:none"
         d="M 494.75825,160.29628 L 381.98973,114.98561"
         id="path8742"
         inkscape:connector-type="polyline"
         inkscape:connection-start="#g3694"
         inkscape:connection-end="#g3678"
         inkscape:export-filename="/home/whats/Desktop/PFC/svn-pfc/projecte/diagrames/path8798.png"
         inkscape:export-xdpi="198"
         inkscape:export-ydpi="198"
         sodipodi:nodetypes="cc" />
      <path
         style="fill:none;fill-rule:evenodd;stroke:#63777f;stroke-width:2;stroke-linecap:butt;stroke-linejoin:round;stroke-opacity:1;stroke-miterlimit:4;stroke-dasharray:none"
         d="M 518.55626,182.96475 L 380.40278,238.99311"
         id="path8744"
         inkscape:connector-type="polyline"
         inkscape:connection-start="#g3694"
         inkscape:connection-end="#g3666"
         inkscape:export-filename="/home/whats/Desktop/PFC/svn-pfc/projecte/diagrames/path8798.png"
         inkscape:export-xdpi="198"
         inkscape:export-ydpi="198"
         sodipodi:nodetypes="cc" />
      <text
         id="text8756"
         y="180.09665"
         x="506.97058"
         style="font-size:13.8907032px;font-style:normal;font-weight:normal;text-align:center;text-anchor:middle;fill:#000000;fill-opacity:1;stroke:none;stroke-width:1px;stroke-linecap:butt;stroke-linejoin:miter;stroke-opacity:1;font-family:Bitstream Vera Sans"
         xml:space="preserve"
         transform="scale(1.0786851,0.9270546)"
         inkscape:export-filename="/home/whats/Desktop/PFC/svn-pfc/projecte/diagrames/path8798.png"
         inkscape:export-xdpi="198"
         inkscape:export-ydpi="198"><tspan
           y="180.09665"
           x="506.97058"
           sodipodi:role="line"
           id="tspan8760">Client</tspan></text>
      <text
         id="text8764"
         y="39.961391"
         x="271.69403"
         style="font-size:12.50163269px;font-style:normal;font-weight:normal;text-align:center;text-anchor:middle;fill:#000000;fill-opacity:1;stroke:none;stroke-width:1px;stroke-linecap:butt;stroke-linejoin:miter;stroke-opacity:1;font-family:Bitstream Vera Sans"
         xml:space="preserve"
         transform="scale(1.0786851,0.9270546)"
         inkscape:export-filename="/home/whats/Desktop/PFC/svn-pfc/projecte/diagrames/path8798.png"
         inkscape:export-xdpi="198"
         inkscape:export-ydpi="198"><tspan
           id="tspan8766"
           y="39.961391"
           x="271.69403"
           sodipodi:role="line">sha1</tspan></text>
      <text
         id="text8768"
         y="50.379417"
         x="113.34001"
         style="font-size:12.50163269px;font-style:normal;font-weight:normal;text-align:center;text-anchor:middle;fill:#000000;fill-opacity:1;stroke:none;stroke-width:1px;stroke-linecap:butt;stroke-linejoin:miter;stroke-opacity:1;font-family:Bitstream Vera Sans"
         xml:space="preserve"
         transform="scale(1.0786851,0.9270546)"
         inkscape:export-filename="/home/whats/Desktop/PFC/svn-pfc/projecte/diagrames/path8798.png"
         inkscape:export-xdpi="198"
         inkscape:export-ydpi="198"><tspan
           id="tspan8770"
           y="50.379417"
           x="113.34001"
           sodipodi:role="line">keylogger</tspan></text>
      <text
         id="text8772"
         y="184.42468"
         x="50.831856"
         style="font-size:12.50163269px;font-style:normal;font-weight:normal;text-align:center;text-anchor:middle;fill:#000000;fill-opacity:1;stroke:none;stroke-width:1px;stroke-linecap:butt;stroke-linejoin:miter;stroke-opacity:1;font-family:Bitstream Vera Sans"
         xml:space="preserve"
         transform="scale(1.0786851,0.9270546)"
         inkscape:export-filename="/home/whats/Desktop/PFC/svn-pfc/projecte/diagrames/path8798.png"
         inkscape:export-xdpi="198"
         inkscape:export-ydpi="198"><tspan
           id="tspan8774"
           y="184.42468"
           x="50.831856"
           sodipodi:role="line">antidebug</tspan></text>
      <text
         id="text8776"
         y="113.58211"
         x="333.50769"
         style="font-size:12.50163269px;font-style:normal;font-weight:normal;text-align:center;text-anchor:middle;fill:#000000;fill-opacity:1;stroke:none;stroke-width:1px;stroke-linecap:butt;stroke-linejoin:miter;stroke-opacity:1;font-family:Bitstream Vera Sans"
         xml:space="preserve"
         transform="scale(1.0786851,0.9270546)"
         inkscape:export-filename="/home/whats/Desktop/PFC/svn-pfc/projecte/diagrames/path8798.png"
         inkscape:export-xdpi="198"
         inkscape:export-ydpi="198"><tspan
           id="tspan8778"
           y="113.58211"
           x="333.50769"
           sodipodi:role="line">common</tspan></text>
      <text
         id="text8780"
         y="261.51807"
         x="316.14426"
         style="font-size:12.50163269px;font-style:normal;font-weight:normal;text-align:center;text-anchor:middle;fill:#000000;fill-opacity:1;stroke:none;stroke-width:1px;stroke-linecap:butt;stroke-linejoin:miter;stroke-opacity:1;font-family:Bitstream Vera Sans"
         xml:space="preserve"
         transform="scale(1.0786851,0.9270546)"
         inkscape:export-filename="/home/whats/Desktop/PFC/svn-pfc/projecte/diagrames/path8798.png"
         inkscape:export-xdpi="198"
         inkscape:export-ydpi="198"><tspan
           id="tspan8782"
           y="261.51807"
           x="316.14426"
           sodipodi:role="line">rc4</tspan></text>
      <text
         id="text8784"
         y="197.62086"
         x="334.20218"
         style="font-size:12.50163269px;font-style:normal;font-weight:normal;text-align:center;text-anchor:middle;fill:#000000;fill-opacity:1;stroke:none;stroke-width:1px;stroke-linecap:butt;stroke-linejoin:miter;stroke-opacity:1;font-family:Bitstream Vera Sans"
         xml:space="preserve"
         transform="scale(1.0786851,0.9270546)"
         inkscape:export-filename="/home/whats/Desktop/PFC/svn-pfc/projecte/diagrames/path8798.png"
         inkscape:export-xdpi="198"
         inkscape:export-ydpi="198"><tspan
           id="tspan8786"
           y="197.62086"
           x="334.20218"
           sodipodi:role="line">config</tspan></text>
      <text
         id="text8788"
         y="274.71426"
         x="164.04112"
         style="font-size:12.50163269px;font-style:normal;font-weight:normal;text-align:center;text-anchor:middle;fill:#000000;fill-opacity:1;stroke:none;stroke-width:1px;stroke-linecap:butt;stroke-linejoin:miter;stroke-opacity:1;font-family:Bitstream Vera Sans"
         xml:space="preserve"
         transform="scale(1.0786851,0.9270546)"
         inkscape:export-filename="/home/whats/Desktop/PFC/svn-pfc/projecte/diagrames/path8798.png"
         inkscape:export-xdpi="198"
         inkscape:export-ydpi="198"><tspan
           id="tspan8790"
           y="274.71426"
           x="164.04112"
           sodipodi:role="line">raw</tspan></text>
      <path
         style="fill:none;fill-rule:evenodd;stroke:#63777f;stroke-width:2;stroke-linecap:butt;stroke-linejoin:round;stroke-opacity:1;stroke-miterlimit:4;stroke-dasharray:none"
         d="M 324.83329,41.790673 L 409.5685,78.444726 L 497.75825,152.7242"
         id="path9089"
         inkscape:connector-type="polyline"
         inkscape:connection-start="#g3684"
         inkscape:connection-end="#g3694"
         sodipodi:nodetypes="ccc"
         inkscape:export-filename="/home/whats/Desktop/PFC/svn-pfc/projecte/diagrames/path8798.png"
         inkscape:export-xdpi="198"
         inkscape:export-ydpi="198" />
    </g>
  </g>
</svg>
