<?xml version="1.0" encoding="UTF-8" standalone="no"?>
<!-- Created with Inkscape (http://www.inkscape.org/) -->
<svg
   xmlns:dc="http://purl.org/dc/elements/1.1/"
   xmlns:cc="http://creativecommons.org/ns#"
   xmlns:rdf="http://www.w3.org/1999/02/22-rdf-syntax-ns#"
   xmlns:svg="http://www.w3.org/2000/svg"
   xmlns="http://www.w3.org/2000/svg"
   xmlns:xlink="http://www.w3.org/1999/xlink"
   xmlns:sodipodi="http://sodipodi.sourceforge.net/DTD/sodipodi-0.dtd"
   xmlns:inkscape="http://www.inkscape.org/namespaces/inkscape"
   id="svg18904"
   sodipodi:version="0.32"
   inkscape:version="0.46"
   width="487.79852"
   height="241.81679"
   xml:space="preserve"
   sodipodi:docname="arquitectura.svg"
   inkscape:output_extension="org.inkscape.output.svg.inkscape"
   version="1.0"><metadata
     id="metadata18909"><rdf:RDF><cc:Work
         rdf:about=""><dc:format>image/svg+xml</dc:format><dc:type
           rdf:resource="http://purl.org/dc/dcmitype/StillImage" /></cc:Work></rdf:RDF></metadata><defs
     id="defs18907"><pattern
   inkscape:collect="always"
   xlink:href="#pattern19117"
   id="pattern19788"
   patternTransform="translate(-69.9945,0)" /><inkscape:perspective
   sodipodi:type="inkscape:persp3d"
   inkscape:vp_x="0 : 526.18109 : 1"
   inkscape:vp_y="0 : 1000 : 0"
   inkscape:vp_z="744.09448 : 526.18109 : 1"
   inkscape:persp3d-origin="372.04724 : 350.78739 : 1"
   id="perspective18911" /><clipPath
   clipPathUnits="userSpaceOnUse"
   id="clipPath18993"><path
     d="M 0,0 L 422.31317,0 L 422.31317,195.80045 L 0,195.80045 L 0,0 z"
     id="path18995" /></clipPath><mask
   maskUnits="userSpaceOnUse"
   x="0"
   y="0"
   width="1"
   height="1"
   id="mask18997"><g
     id="g18999"><g
       clip-path="url(#clipPath18993)"
       id="g19001"><path
         d="M 0,0 L 422.31317,0 L 422.31317,195.80045 L 0,195.80045 L 0,0 z"
         style="fill:#ffffff;fill-opacity:0.6;fill-rule:nonzero;stroke:none"
         id="path19003" /></g></g></mask><clipPath
   clipPathUnits="userSpaceOnUse"
   id="clipPath19009"><path
     d="M 0,0 L 422.31317,0 L 422.31317,195.80045 L 0,195.80045 L 0,0 z"
     id="path19011" /></clipPath><clipPath
   clipPathUnits="userSpaceOnUse"
   id="clipPath19013"><path
     d="M 0,0 L 423,0 L 423,196 L 0,196 L 0,0 z"
     id="path19015" /></clipPath><pattern
   patternUnits="userSpaceOnUse"
   x="0"
   y="0"
   width="423"
   height="196"
   id="pattern19017"><g
     id="g19019" /><g
     id="g19021"><g
       clip-path="url(#clipPath19013)"
       id="g19023"><g
         id="g19025"><g
           transform="matrix(1,0,0,-1,0,196)"
           id="g19027"><path
             d="M 308.25,160.809 L 324.047,169.895"
             style="fill:#ff0300;fill-opacity:1;fill-rule:evenodd;stroke:#ff0000;stroke-opacity:1;stroke-width:1.6;stroke-linecap:butt;stroke-linejoin:miter;stroke-miterlimit:4;stroke-dasharray:1.6,1.6;stroke-dashoffset:0"
             id="path19029" /></g></g></g></g></pattern><clipPath
   clipPathUnits="userSpaceOnUse"
   id="clipPath19043"><path
     d="M 0,0 L 422.31317,0 L 422.31317,195.80045 L 0,195.80045 L 0,0 z"
     id="path19045" /></clipPath><mask
   maskUnits="userSpaceOnUse"
   x="0"
   y="0"
   width="1"
   height="1"
   id="mask19047"><g
     id="g19049"><g
       clip-path="url(#clipPath19043)"
       id="g19051"><path
         d="M 0,0 L 422.31317,0 L 422.31317,195.80045 L 0,195.80045 L 0,0 z"
         style="fill:#ffffff;fill-opacity:0.6;fill-rule:nonzero;stroke:none"
         id="path19053" /></g></g></mask><clipPath
   clipPathUnits="userSpaceOnUse"
   id="clipPath19059"><path
     d="M 0,0 L 422.31317,0 L 422.31317,195.80045 L 0,195.80045 L 0,0 z"
     id="path19061" /></clipPath><clipPath
   clipPathUnits="userSpaceOnUse"
   id="clipPath19063"><path
     d="M 0,0 L 423,0 L 423,196 L 0,196 L 0,0 z"
     id="path19065" /></clipPath><pattern
   patternUnits="userSpaceOnUse"
   x="0"
   y="0"
   width="423"
   height="196"
   id="pattern19067"><g
     id="g19069" /><g
     id="g19071"><g
       clip-path="url(#clipPath19063)"
       id="g19073"><g
         id="g19075"><g
           transform="matrix(1,0,0,-1,0,196)"
           id="g19077"><path
             d="M 308.371,169.82 L 323.926,160.316"
             style="fill:#ff0300;fill-opacity:1;fill-rule:evenodd;stroke:#ff0000;stroke-opacity:1;stroke-width:1.6;stroke-linecap:butt;stroke-linejoin:miter;stroke-miterlimit:4;stroke-dasharray:1.6,1.6;stroke-dashoffset:0"
             id="path19079" /></g></g></g></g></pattern><clipPath
   clipPathUnits="userSpaceOnUse"
   id="clipPath19093"><path
     d="M 0,0 L 422.31317,0 L 422.31317,195.80045 L 0,195.80045 L 0,0 z"
     id="path19095" /></clipPath><mask
   maskUnits="userSpaceOnUse"
   x="0"
   y="0"
   width="1"
   height="1"
   id="mask19097"><g
     id="g19099"><g
       clip-path="url(#clipPath19093)"
       id="g19101"><path
         d="M 0,0 L 422.31317,0 L 422.31317,195.80045 L 0,195.80045 L 0,0 z"
         style="fill:#ffffff;fill-opacity:0.6;fill-rule:nonzero;stroke:none"
         id="path19103" /></g></g></mask><clipPath
   clipPathUnits="userSpaceOnUse"
   id="clipPath19109"><path
     d="M 0,0 L 422.31317,0 L 422.31317,195.80045 L 0,195.80045 L 0,0 z"
     id="path19111" /></clipPath><clipPath
   clipPathUnits="userSpaceOnUse"
   id="clipPath19113"><path
     d="M 0,0 L 423,0 L 423,196 L 0,196 L 0,0 z"
     id="path19115" /></clipPath><pattern
   patternUnits="userSpaceOnUse"
   x="0"
   y="0"
   width="423"
   height="196"
   id="pattern19117"><g
     id="g19119" /><g
     id="g19121"><g
       clip-path="url(#clipPath19113)"
       id="g19123"><g
         id="g19125"><g
           transform="matrix(1,0,0,-1,0,196)"
           id="g19127"><path
             d="M 17.32,161.004 L 33.121,170.09"
             style="fill:#ff0300;fill-opacity:1;fill-rule:evenodd;stroke:#ff0000;stroke-opacity:1;stroke-width:1.6;stroke-linecap:butt;stroke-linejoin:miter;stroke-miterlimit:4;stroke-dasharray:1.6,1.6;stroke-dashoffset:0"
             id="path19129" /></g></g></g></g></pattern><clipPath
   clipPathUnits="userSpaceOnUse"
   id="clipPath19143"><path
     d="M 0,0 L 422.31317,0 L 422.31317,195.80045 L 0,195.80045 L 0,0 z"
     id="path19145" /></clipPath><mask
   maskUnits="userSpaceOnUse"
   x="0"
   y="0"
   width="1"
   height="1"
   id="mask19147"><g
     id="g19149"><g
       clip-path="url(#clipPath19143)"
       id="g19151"><path
         d="M 0,0 L 422.31317,0 L 422.31317,195.80045 L 0,195.80045 L 0,0 z"
         style="fill:#ffffff;fill-opacity:0.6;fill-rule:nonzero;stroke:none"
         id="path19153" /></g></g></mask><clipPath
   clipPathUnits="userSpaceOnUse"
   id="clipPath19159"><path
     d="M 0,0 L 422.31317,0 L 422.31317,195.80045 L 0,195.80045 L 0,0 z"
     id="path19161" /></clipPath><clipPath
   clipPathUnits="userSpaceOnUse"
   id="clipPath19163"><path
     d="M 0,0 L 423,0 L 423,196 L 0,196 L 0,0 z"
     id="path19165" /></clipPath><pattern
   patternUnits="userSpaceOnUse"
   x="0"
   y="0"
   width="423"
   height="196"
   id="pattern19167"><g
     id="g19169" /><g
     id="g19171"><g
       clip-path="url(#clipPath19163)"
       id="g19173"><g
         id="g19175"><g
           transform="matrix(1,0,0,-1,0,196)"
           id="g19177"><path
             d="M 17.445,170.016 L 32.996,160.512"
             style="fill:#ff0300;fill-opacity:1;fill-rule:evenodd;stroke:#ff0000;stroke-opacity:1;stroke-width:1.6;stroke-linecap:butt;stroke-linejoin:miter;stroke-miterlimit:4;stroke-dasharray:1.6,1.6;stroke-dashoffset:0"
             id="path19179" /></g></g></g></g></pattern>





</defs><sodipodi:namedview
     inkscape:window-height="1150"
     inkscape:window-width="1920"
     inkscape:pageshadow="2"
     inkscape:pageopacity="0.0"
     guidetolerance="10.0"
     gridtolerance="10.0"
     objecttolerance="10.0"
     borderopacity="1.0"
     bordercolor="#666666"
     pagecolor="#ffffff"
     id="base"
     showgrid="false"
     inkscape:zoom="1.4466521"
     inkscape:cx="333.05876"
     inkscape:cy="25.765731"
     inkscape:window-x="0"
     inkscape:window-y="0"
     inkscape:current-layer="g18913"
     borderlayer="false" /><g
     id="g18913"
     inkscape:groupmode="layer"
     inkscape:label="solutionDesignClientMode"
     transform="matrix(1.25,0,0,-1.25,-2.5687695e-3,242.32642)"><path
   id="path18917"
   style="fill:#e3eff5;fill-opacity:1;fill-rule:nonzero;stroke:#b5c4ca;stroke-width:2.17588997;stroke-linecap:butt;stroke-linejoin:round;stroke-miterlimit:4;stroke-dasharray:none;stroke-opacity:1"
   d="M 273.54694,162.621 L 374.28494,162.621 C 382.51994,162.621 389.15294,157.597 389.15294,151.355 L 389.15294,26.015 C 389.15294,19.773 382.51994,14.75 374.28494,14.75 L 273.54694,14.75 C 265.31294,14.75 258.67994,19.773 258.67994,26.015 L 258.67994,151.355 C 258.67994,157.597 265.31294,162.621 273.54694,162.621 z" /><path
   id="path18919"
   style="fill:#e3eff5;fill-opacity:1;fill-rule:nonzero;stroke:#b5c4ca;stroke-width:2.17588997;stroke-linecap:butt;stroke-linejoin:round;stroke-miterlimit:4;stroke-dasharray:none;stroke-opacity:1"
   d="M 15.953,162.39 L 116.691,162.39 C 124.926,162.39 131.559,157.367 131.559,151.125 L 131.559,25.785 C 131.559,19.543 124.926,14.519 116.691,14.519 L 15.953,14.519 C 7.719,14.519 1.09,19.543 1.09,25.785 L 1.09,151.125 C 1.09,157.367 7.719,162.39 15.953,162.39 z" /><text
   id="text18921"
   transform="scale(0.9455989,-1.0575309)"
   x="46.596291"
   y="-157.56493"
   style="font-size:11.34718609px"><tspan
     id="tspan18923"
     sodipodi:role="line"
     y="-157.56493"
     x="46.596291 52.629074 58.678509 62.45628 67.73185 70.735756 76.768547 82.81797"
     style="font-size:8.32108498px;font-variant:normal;font-weight:normal;writing-mode:lr-tb;fill:#63777f;fill-opacity:1;fill-rule:nonzero;stroke:none;font-family:DejaVuSans;-inkscape-font-specification:DejaVuSans">Servidor</tspan><tspan
     id="tspan18925"
     sodipodi:role="line"
     y="-157.94316"
     x="324.60236 330.64346 334.42957 340.45404 345.72958 351.76239 357.8035"
     style="font-size:8.32108498px;font-variant:normal;font-weight:normal;writing-mode:lr-tb;fill:#63777f;fill-opacity:1;fill-rule:nonzero;stroke:none;font-family:DejaVuSans;-inkscape-font-specification:DejaVuSans">Atacant</tspan></text>



<path
   id="path18927"
   style="fill:none;stroke:#000000;stroke-width:0.80000001;stroke-linecap:butt;stroke-linejoin:miter;stroke-miterlimit:4;stroke-dasharray:none;stroke-opacity:1"
   d="M -153.301,214.125 C -153.301,213.937 -153.301,213.75 -153.301,214.125 z" /><path
   id="path18929"
   style="fill:none;stroke:#000000;stroke-width:0.73460704;stroke-linecap:butt;stroke-linejoin:miter;stroke-miterlimit:4;stroke-dasharray:none;stroke-opacity:1"
   d="M 24.891,147.07649 L 24.891,30.217512" /><path
   id="path18931"
   style="fill:#ff0300;fill-opacity:1;fill-rule:evenodd;stroke:#000000;stroke-width:0.73725384;stroke-linecap:butt;stroke-linejoin:miter;stroke-miterlimit:4;stroke-dasharray:none;stroke-opacity:1"
   d="M 283.86394,148.07653 L 283.86394,30.369473" />
<path
   id="path18937"
   style="fill:none;stroke:#b5c4ca;stroke-width:0.80000001;stroke-linecap:butt;stroke-linejoin:miter;stroke-miterlimit:4;stroke-dasharray:none;stroke-opacity:0"
   d="M -129.258,87.695 C -129.258,87.789 -129.258,87.882 -129.258,87.695 z M -146.23,73.269 C -146.23,73.175 -146.23,73.082 -146.23,73.269 z M -81.742,96.746 L -57.984,33.953 M -113.703,140.586 L -35.922,123.05 M 45.5,134.48 L 25.137,134.398" /><path
   id="path18939"
   style="fill:none;stroke:#b5c4ca;stroke-width:0.7464;stroke-linecap:butt;stroke-linejoin:miter;stroke-miterlimit:4;stroke-dasharray:2.2392, 0.7464;stroke-dashoffset:0;stroke-opacity:1"
   d="M 45.141,133.574 C 45.141,133.511 45.141,133.453 45.141,133.574 z M 25.57,133.754 L 44.945,133.754" /><path
   id="path18941"
   style="fill:none;stroke:#000000;stroke-width:0.75366628;stroke-linecap:butt;stroke-linejoin:miter;stroke-miterlimit:4;stroke-dasharray:2.26099803, 0.75366632;stroke-dashoffset:0;stroke-opacity:1"
   d="M 24.847729,124.183 L 283.33122,124.183" /><path
   id="path18943"
   style="fill:#000000;fill-opacity:1;fill-rule:evenodd;stroke:none"
   d="M 274.19894,127.722 L 283.79294,124.195 L 274.19894,120.668 C 275.73494,122.75 275.72694,125.601 274.19894,127.722 z" /><path
   id="path18945"
   style="fill:none;stroke:#000000;stroke-width:0.75289345;stroke-linecap:butt;stroke-linejoin:miter;stroke-miterlimit:4;stroke-dasharray:none;stroke-opacity:1"
   d="M 25.640684,94.187 L 283.56526,94.187" /><path
   id="path18947"
   style="fill:#000000;fill-opacity:1;fill-rule:evenodd;stroke:none"
   d="M 34.211,90.648 L 24.625,94.172 L 34.211,97.695 C 32.68,95.617 32.688,92.769 34.211,90.648 z" /><path
   id="path18949"
   style="fill:#000000;fill-opacity:1;fill-rule:evenodd;stroke:none"
   d="M 274.44594,97.726 L 284.02794,94.199 L 274.44594,90.675 C 275.97694,92.757 275.96894,95.605 274.44594,97.726 z" /><path
   id="path18951"
   style="fill:none;stroke:#000000;stroke-width:0.75249088;stroke-linecap:butt;stroke-linejoin:miter;stroke-miterlimit:4;stroke-dasharray:2.25747261, 0.75249087;stroke-dashoffset:0;stroke-opacity:1"
   d="M 25.831304,61.672 L 283.48014,61.672" /><path
   id="path18953"
   style="fill:#000000;fill-opacity:1;fill-rule:evenodd;stroke:none"
   d="M 34.398,58.136 L 24.816,61.66 L 34.398,65.183 C 32.867,63.101 32.879,60.257 34.398,58.136 z" /><text
   id="text18955"
   transform="scale(1,-1)"
   x="161.90274"
   y="-126.74612"><tspan
     id="tspan18957"
     sodipodi:role="line"
     y="-126.74612"
     x="161.90274 164.28972 169.07008 171.45706 175.44389 177.83087 180.21786 184.19829 188.99146 193.77821 198.55858 202.55821 206.54504 208.93202 213.7188 216.10577 220.09261 224.88577"
     style="font-size:6.39941406px;font-variant:normal;font-weight:normal;writing-mode:lr-tb;fill:#000000;fill-opacity:1;fill-rule:nonzero;stroke:none;font-family:DejaVuSans;-inkscape-font-specification:DejaVuSans">Inici connexió TCP</tspan><tspan
     id="tspan18959"
     sodipodi:role="line"
     y="-96.764786"
     x="147.76062 152.55379 157.34055 162.12091 166.90767 170.90091 174.89413 177.28113 182.06789 184.45486 188.4481 193.23486 198.02802 200.4214 204.41464 208.40147 211.60118 215.76062 220.54099 222.92796 226.9212 230.12091 233.32062"
     style="font-size:6.39941406px;font-variant:normal;font-weight:normal;writing-mode:lr-tb;fill:#000000;fill-opacity:1;fill-rule:nonzero;stroke:none;font-family:DejaVuSans;-inkscape-font-specification:DejaVuSans">Connexió TCP establerta</tspan><tspan
     id="tspan18961"
     sodipodi:role="line"
     y="-63.95504"
     x="144.93221 148.93184 151.31241 156.09277 160.07961 162.47299 164.85358 168.05328 172.04012 176.02055 180.00739 182.38797 187.17473 189.56812 194.35487 198.34811 200.74149 203.12207 207.1089 209.73219 213.71263 218.5058 223.29256 228.07292 232.07256 236.05939 238.43997"
     style="font-size:6.39941406px;font-variant:normal;font-weight:normal;writing-mode:lr-tb;fill:#000000;fill-opacity:1;fill-rule:nonzero;stroke:none;font-family:DejaVuSans;-inkscape-font-specification:DejaVuSans">Finalització de la connexió</tspan></text>




<path
   id="path18967"
   style="fill:#ffffff;fill-opacity:1;fill-rule:nonzero;stroke:#b5c4ca;stroke-width:0.49730301;stroke-linecap:butt;stroke-linejoin:round;stroke-miterlimit:4;stroke-dasharray:none;stroke-opacity:1"
   d="M 45.328,139.433 L 83.473,139.433 C 84.957,139.433 86.152,138.168 86.152,136.593 L 86.152,131.168 C 86.152,129.597 84.957,128.328 83.473,128.328 L 45.328,128.328 C 43.844,128.328 42.648,129.597 42.648,131.168 L 42.648,136.593 C 42.648,138.168 43.844,139.433 45.328,139.433 z" /><path
   id="path18969"
   style="fill:none;stroke:#b5c4ca;stroke-width:0.7464;stroke-linecap:butt;stroke-linejoin:miter;stroke-miterlimit:4;stroke-dasharray:2.2392, 0.7464;stroke-dashoffset:0;stroke-opacity:1"
   d="M 303.66794,132.172 C 303.66794,132.113 303.66794,132.05 303.66794,132.172 z M 284.09794,132.351 L 303.47294,132.351" /><g
   transform="matrix(1,0,0,-0.673917,-32.074056,195.80045)"
   id="g18971"><path
     id="path18973"
     style="fill:#ffffff;fill-opacity:1;fill-rule:nonzero;stroke:#b5c4ca;stroke-width:0.73792899;stroke-linecap:butt;stroke-linejoin:round;stroke-miterlimit:4;stroke-dasharray:none;stroke-opacity:1"
     d="M 337.348,85.722 L 393.949,85.722 C 396.152,85.722 397.926,87.6 397.926,89.93 L 397.926,97.981 C 397.926,100.317 396.152,102.195 393.949,102.195 L 337.348,102.195 C 335.145,102.195 333.371,100.317 333.371,97.981 L 333.371,89.93 C 333.371,87.6 335.145,85.722 337.348,85.722 z" /></g><text
   id="text18975"
   transform="scale(0.9474681,-1.0554445)"
   x="331.34854"
   y="-123.98606"
   style="font-size:11.36961651px"><tspan
     id="tspan18977"
     sodipodi:role="line"
     y="-123.98606"
     x="331.34854 335.13672 337.97449 340.81223 342.70862 344.6004 347.43817 349.32999 352.16318 354.05048 356.88821 357.82501 360.66275 363.49594 365.38324 368.22098 371.05417 372.94598"
     style="font-size:4.54766226px;font-variant:normal;font-weight:normal;writing-mode:lr-tb;fill:#000000;fill-opacity:1;fill-rule:nonzero;stroke:none;font-family:DejaVuSans;-inkscape-font-specification:DejaVuSans">Obertura d'un port</tspan><tspan
     id="tspan18979"
     sodipodi:role="line"
     y="-125.37777"
     x="56.641289 59.665504 62.685154 65.718422 68.738068 71.76226 74.781906 76.287193"
     style="font-size:4.54766226px;font-variant:normal;font-weight:normal;writing-mode:lr-tb;fill:#000000;fill-opacity:1;fill-rule:nonzero;stroke:none;font-family:DejaVuSans;-inkscape-font-specification:DejaVuSans">Execució</tspan></text>



<path
   id="path18981"
   style="fill:none;stroke:#b5c4ca;stroke-width:0.7464;stroke-linecap:butt;stroke-linejoin:miter;stroke-miterlimit:4;stroke-dasharray:2.2392, 0.7464;stroke-dashoffset:0;stroke-opacity:1"
   d="M 304.06694,76.972 C 304.06694,76.914 304.06694,76.851 304.06694,76.972 z M 284.49594,77.152 L 303.87494,77.152" /><path
   id="path18983"
   style="fill:#ffffff;fill-opacity:1;fill-rule:nonzero;stroke:#b5c4ca;stroke-width:0.49730301;stroke-linecap:butt;stroke-linejoin:round;stroke-miterlimit:4;stroke-dasharray:none;stroke-opacity:1"
   d="M 304.25394,82.832 L 342.39894,82.832 C 343.88294,82.832 345.07794,81.566 345.07794,79.992 L 345.07794,74.57 C 345.07794,72.996 343.88294,71.73 342.39894,71.73 L 304.25394,71.73 C 302.76994,71.73 301.57394,72.996 301.57394,74.57 L 301.57394,79.992 C 301.57394,81.566 302.76994,82.832 304.25394,82.832 z" /><text
   id="text18985"
   transform="scale(1,-1)"
   x="310.32593"
   y="-75.280754"><tspan
     id="tspan18987"
     sodipodi:role="line"
     y="-75.280754"
     x="310.32593 314.31458 316.71448 318.30322 319.88715 321.48068 323.88058 327.07245 330.25952 333.44659 335.03534"
     style="font-size:4.79980516px;font-variant:normal;font-weight:normal;writing-mode:lr-tb;fill:#000000;fill-opacity:1;fill-rule:nonzero;stroke:none;font-family:DejaVuSans;-inkscape-font-specification:DejaVuSans">Utilització</tspan></text>



<g
   id="g19089"><g
     id="g19091" /><g
     mask="url(#mask19097)"
     id="g19105"><g
       id="g19107" /><g
       id="g19131"><g
         id="g19133"
         clip-path="url(#clipPath19109)"><g
           id="g19135" /></g></g></g></g><path
   style="opacity:0.30194804;color:#000000;fill:#63777f;fill-opacity:1;fill-rule:evenodd;stroke:#63777f;stroke-width:2.2181232;stroke-linecap:butt;stroke-linejoin:miter;marker:none;marker-start:none;marker-mid:none;marker-end:none;stroke-miterlimit:4;stroke-dasharray:6.65436981, 2.21812326;stroke-dashoffset:0;stroke-opacity:1;visibility:visible;display:inline;overflow:visible;enable-background:accumulate"
   d="M 196.68015,177.81931 L 196.68015,1.5167746"
   id="path10629" /><text
   transform="scale(1,-1)"
   xml:space="preserve"
   style="font-size:9.60000038px;font-style:normal;font-variant:normal;font-weight:bold;font-stretch:normal;opacity:0.30194804;fill:#63777f;fill-opacity:1;stroke:none;stroke-width:1px;stroke-linecap:butt;stroke-linejoin:miter;stroke-opacity:1;font-family:Sans;-inkscape-font-specification:Sans"
   x="171.37788"
   y="-186.8627"
   id="text10631"><tspan
     sodipodi:role="line"
     id="tspan10633"
     x="171.37788"
     y="-186.8627">INTERNET</tspan></text>




<g
   id="g16027"
   transform="matrix(0.8,0,0,-0.8,-26.593412,114.44877)"><path
     id="path13899"
     d="M 55.1641,99.325438 L 74.91454,110.68276"
     style="opacity:0.6;color:#000000;fill:#ff0300;fill-opacity:1;fill-rule:evenodd;stroke:#ff0000;stroke-width:2;stroke-linecap:butt;stroke-linejoin:miter;marker:none;marker-start:none;marker-mid:none;marker-end:none;stroke-miterlimit:4;stroke-dasharray:2, 2;stroke-dashoffset:0;stroke-opacity:1;visibility:visible;display:inline;overflow:visible;enable-background:accumulate" /><path
     inkscape:transform-center-y="-2.8284271"
     inkscape:transform-center-x="-10.362094"
     id="path13901"
     d="M 55.3192,110.59078 L 74.75943,98.710308"
     style="opacity:0.6;color:#000000;fill:#ff0300;fill-opacity:1;fill-rule:evenodd;stroke:#ff0000;stroke-width:2;stroke-linecap:butt;stroke-linejoin:miter;marker:none;marker-start:none;marker-mid:none;marker-end:none;stroke-miterlimit:4;stroke-dasharray:2, 2;stroke-dashoffset:0;stroke-opacity:1;visibility:visible;display:inline;overflow:visible;enable-background:accumulate" /></g><g
   id="g19793"
   transform="matrix(0.8,0,0,-0.8,232.21103,114.44878)"><path
     id="path19795"
     d="M 55.1641,99.325438 L 74.91454,110.68276"
     style="opacity:0.6;color:#000000;fill:#ff0300;fill-opacity:1;fill-rule:evenodd;stroke:#ff0000;stroke-width:2;stroke-linecap:butt;stroke-linejoin:miter;marker:none;marker-start:none;marker-mid:none;marker-end:none;stroke-miterlimit:4;stroke-dasharray:2, 2;stroke-dashoffset:0;stroke-opacity:1;visibility:visible;display:inline;overflow:visible;enable-background:accumulate" /><path
     inkscape:transform-center-y="-2.8284271"
     inkscape:transform-center-x="-10.362094"
     id="path19797"
     d="M 55.3192,110.59078 L 74.75943,98.710308"
     style="opacity:0.6;color:#000000;fill:#ff0300;fill-opacity:1;fill-rule:evenodd;stroke:#ff0000;stroke-width:2;stroke-linecap:butt;stroke-linejoin:miter;marker:none;marker-start:none;marker-mid:none;marker-end:none;stroke-miterlimit:4;stroke-dasharray:2, 2;stroke-dashoffset:0;stroke-opacity:1;visibility:visible;display:inline;overflow:visible;enable-background:accumulate" /></g><text
   xml:space="preserve"
   style="font-size:7.19999981px;font-style:normal;font-variant:normal;font-weight:bold;font-stretch:normal;fill:#000000;fill-opacity:1;stroke:none;stroke-width:1px;stroke-linecap:butt;stroke-linejoin:miter;stroke-opacity:1;font-family:Sans;-inkscape-font-specification:Sans Bold"
   x="9.4010162"
   y="-150.69276"
   id="text3915"
   transform="scale(1,-1)"><tspan
     sodipodi:role="line"
     id="tspan3917"
     x="9.4010162"
     y="-150.69276">launcher - mode client</tspan></text>


<text
   xml:space="preserve"
   style="font-size:7.19999981px;font-style:normal;font-variant:normal;font-weight:bold;font-stretch:normal;fill:#000000;fill-opacity:1;stroke:none;stroke-width:1px;stroke-linecap:butt;stroke-linejoin:miter;stroke-opacity:1;font-family:Sans;-inkscape-font-specification:Sans"
   x="265.99344"
   y="-151.79877"
   id="text3919"
   transform="scale(1,-1)"><tspan
     sodipodi:role="line"
     id="tspan3921"
     x="265.99344"
     y="-151.79877">client - mode connexió listen</tspan></text>


</g></svg>