<?xml version="1.0" encoding="UTF-8" standalone="no"?>
<!-- Created with Inkscape (http://www.inkscape.org/) -->
<svg
   xmlns:dc="http://purl.org/dc/elements/1.1/"
   xmlns:cc="http://creativecommons.org/ns#"
   xmlns:rdf="http://www.w3.org/1999/02/22-rdf-syntax-ns#"
   xmlns:svg="http://www.w3.org/2000/svg"
   xmlns="http://www.w3.org/2000/svg"
   xmlns:sodipodi="http://sodipodi.sourceforge.net/DTD/sodipodi-0.dtd"
   xmlns:inkscape="http://www.inkscape.org/namespaces/inkscape"
   id="svg2"
   sodipodi:version="0.32"
   inkscape:version="0.46"
   width="95.297142"
   height="91.973694"
   version="1.0"
   sodipodi:docname="hacker.svg"
   inkscape:output_extension="org.inkscape.output.svg.inkscape">
  <metadata
     id="metadata7">
    <rdf:RDF>
      <cc:Work
         rdf:about="">
        <dc:format>image/svg+xml</dc:format>
        <dc:type
           rdf:resource="http://purl.org/dc/dcmitype/StillImage" />
      </cc:Work>
    </rdf:RDF>
  </metadata>
  <defs
     id="defs5">
    <inkscape:perspective
       sodipodi:type="inkscape:persp3d"
       inkscape:vp_x="0 : 526.18109 : 1"
       inkscape:vp_y="0 : 1000 : 0"
       inkscape:vp_z="744.09448 : 526.18109 : 1"
       inkscape:persp3d-origin="372.04724 : 350.78739 : 1"
       id="perspective9" />
  </defs>
  <sodipodi:namedview
     inkscape:window-height="912"
     inkscape:window-width="937"
     inkscape:pageshadow="2"
     inkscape:pageopacity="0.0"
     guidetolerance="10.0"
     gridtolerance="10.0"
     objecttolerance="10.0"
     borderopacity="1.0"
     bordercolor="#666666"
     pagecolor="#ffffff"
     id="base"
     showgrid="false"
     inkscape:zoom="2.5333333"
     inkscape:cx="140.70127"
     inkscape:cy="101.93593"
     inkscape:window-x="331"
     inkscape:window-y="193"
     inkscape:current-layer="svg2" />
  <g
     id="g2384"
     transform="translate(-111.71053,-103.02631)">
    <path
       style="fill:#fbfbfb"
       d="M 111.71053,149.01315 L 111.71053,103.02631 L 159.35527,103.02631 L 207,103.02631 L 207,149.01315 L 207,195 L 159.35527,195 L 111.71053,195 L 111.71053,149.01315 z"
       id="path2400" />
    <path
       style="fill:#a7a7a7"
       d="M 171.55416,193.9787 C 170.41483,193.45364 168.4469,192.71707 167.18097,192.34188 C 165.91505,191.96669 164.15427,191.43656 163.26812,191.16379 C 161.41817,190.59436 154.27669,189.50029 145.08486,188.37812 C 139.11752,187.64961 138.85594,187.61139 136.08877,187.06386 C 134.70701,186.79046 131.29781,186.45748 128.51278,186.3239 C 125.72775,186.19032 122.94221,185.96946 122.3227,185.83311 C 120.1477,185.35439 118.1379,181.49984 119.58538,180.58325 C 119.89801,180.38528 119.9241,180.14672 119.65292,179.96584 C 119.05549,179.56734 113.38412,139.31653 113.86346,138.877 C 114.81264,138.00665 117.42844,137.55953 121.19611,137.62364 L 125.29043,137.69331 L 125.19579,139.57995 C 125.14373,140.61761 125.59517,145.39316 126.19899,150.1923 C 126.8028,154.99144 127.62609,161.67722 128.02851,165.04959 C 128.43094,168.42196 128.98612,171.89716 129.26225,172.77227 C 129.65883,174.02912 129.63284,174.4487 129.13854,174.7696 C 128.67899,175.06793 128.66562,175.17775 129.0882,175.18306 C 129.40468,175.18703 129.66679,175.56171 129.67067,176.01568 C 129.67609,176.65055 129.76794,176.69524 130.06858,176.20926 C 130.42954,175.62575 132.96465,175.52677 133.98398,176.05638 C 134.20811,176.17284 135.72033,176.35876 137.34448,176.46955 C 140.16669,176.66206 140.36271,176.60424 141.7705,175.16414 C 145.00381,171.85661 152.1249,170.25847 157.34397,171.6691 C 158.6639,172.02586 160.03859,172.14736 160.40141,171.93932 C 160.7682,171.729 161.80548,171.83397 162.73979,172.17595 C 164.78174,172.92336 168.42881,173.01559 169.09153,172.33657 C 169.35746,172.06409 171.23809,171.81903 173.27069,171.79199 C 176.29316,171.75178 177.20712,171.91711 178.28819,172.69961 C 179.33374,173.4564 179.78027,173.54558 180.42444,173.12627 C 181.05054,172.71872 181.5295,172.76622 182.49595,173.33172 C 183.7014,174.03707 183.79561,174.01462 184.78881,172.78546 C 185.97823,171.31347 186.17397,168.12541 185.30164,164.43305 C 184.40227,160.62619 183.65153,161.01146 183.87048,165.16751 C 183.90123,165.75118 183.77478,166.22874 183.5895,166.22874 C 182.92406,166.22874 182.24825,161.21105 182.47698,157.96856 C 182.68448,155.02698 182.5603,154.32181 181.35523,151.5987 L 180.00014,148.5366 L 177.04307,147.88325 C 173.75217,147.15614 172.47483,146.29404 172.47483,144.80006 C 172.47483,144.24945 172.14563,143.31739 171.74327,142.72882 C 171.34091,142.14024 171.13139,141.33912 171.27766,140.94856 C 171.42841,140.54607 171.34649,140.36328 171.08855,140.52661 C 170.83827,140.6851 170.63032,140.32469 170.62644,139.72571 C 170.61669,138.21897 170.15864,137.65686 168.62746,137.27253 C 167.2879,136.93631 167.17183,136.27177 168.07178,134.09114 C 168.30984,133.51431 167.80066,132.92733 166.05947,131.77132 C 164.77741,130.92014 163.72846,130.04722 163.72846,129.83149 C 163.72846,129.61577 163.33831,129.43927 162.86147,129.43927 C 161.27509,129.43927 161.41233,127.24262 163.03795,126.61456 C 163.6507,126.37783 165.10946,124.45621 165.10946,123.88578 C 165.10946,123.46204 168.21262,119.81588 172.11095,115.65915 C 173.05015,114.6577 174.75267,113.41498 175.89434,112.89754 C 177.03601,112.3801 178.13194,111.68679 178.32974,111.35685 C 179.2723,109.78459 182.12093,108.62727 185.04833,108.62727 C 189.68078,108.62727 191.7093,109.88947 194.96998,114.80078 C 196.44013,117.01515 197.97731,119.88815 198.38592,121.18522 C 199.47411,124.63944 200.50444,130.24415 200.24101,131.27633 C 200.05259,132.01456 200.34098,132.2289 201.88148,132.49556 C 202.90947,132.67351 204.25541,133.226 204.87247,133.72332 C 205.48952,134.22063 206.22065,134.62753 206.49719,134.62753 C 206.85548,134.62753 207,143.30403 207,164.81376 L 207,195 L 190.31284,194.96668 C 174.58774,194.93528 173.50624,194.87832 171.55416,193.9787 z M 132.54072,180.53783 C 132.22424,180.40698 131.70636,180.40698 131.38988,180.53783 C 131.0734,180.66867 131.33234,180.77573 131.9653,180.77573 C 132.59826,180.77573 132.8572,180.66867 132.54072,180.53783 z M 146.32201,176.28306 C 145.98971,176.14681 145.59267,176.16357 145.4397,176.3203 C 145.28674,176.47703 145.55862,176.5885 146.0439,176.56802 C 146.58016,176.54539 146.68924,176.43363 146.32201,176.28306 z M 184.26134,159.28158 C 184.10837,159.12485 183.99958,159.40343 184.01957,159.90063 C 184.04165,160.4501 184.15073,160.56185 184.29768,160.1856 C 184.43066,159.84512 184.41431,159.43831 184.26134,159.28158 z"
       id="path2398" />
    <path
       style="fill:#979797"
       d="M 174.54634,192.90113 C 171.25494,191.76052 167.63926,190.47877 166.51148,190.0528 C 164.48864,189.28875 156.51427,188.38244 143.47369,187.43449 C 139.80251,187.16763 135.65949,186.64613 134.26698,186.27561 C 132.87446,185.90509 129.37177,185.3841 126.48322,185.11786 C 120.35351,184.55287 118.80694,183.85204 119.32328,181.87332 C 119.50397,181.1809 119.62723,180.40212 119.59719,180.14271 C 119.53633,179.6172 114.2047,142.80163 113.84775,140.44215 C 113.55164,138.48487 113.99199,138.31014 120.08076,137.96891 C 124.87263,137.70037 125.00338,137.71969 125.19002,138.72406 C 125.29536,139.29097 125.2459,139.97968 125.08011,140.25454 C 124.81703,140.69069 126.21975,152.64288 128.48554,169.27112 C 128.96459,172.78679 129.03679,174.53255 128.71166,174.73843 C 128.44895,174.90479 128.29674,175.25258 128.3734,175.51131 C 128.54732,176.09828 126.27372,178.08429 124.14972,179.20075 C 122.55561,180.03868 122.55347,180.04415 123.65709,180.46244 C 124.26672,180.6935 125.71222,180.75402 126.86931,180.59692 C 128.27188,180.40649 128.76192,180.46196 128.33951,180.76334 C 127.89022,181.08389 128.51682,181.31183 130.49339,181.54688 C 133.29647,181.88021 135.39217,181.57084 134.97835,180.8848 C 134.65298,180.34538 136.49625,178.75407 138.8491,177.54316 C 139.97676,176.96281 141.27641,175.99686 141.73722,175.39663 C 142.19803,174.79639 143.69269,173.74503 145.05868,173.06028 C 147.25098,171.9613 148.1001,171.81447 152.29794,171.80847 C 154.91355,171.80473 158.40007,171.94961 160.04577,172.13043 C 163.07807,172.46359 166.26138,172.49458 173.46629,172.26107 C 176.7334,172.15519 177.61001,172.2804 178.33991,172.95721 C 178.98072,173.55139 179.63723,173.69898 180.68475,173.48432 C 181.59627,173.29753 182.40774,173.41421 182.85761,173.79675 C 183.46127,174.31007 183.75063,174.22552 184.67444,173.2659 C 185.55694,172.34918 185.7913,171.5674 185.86499,169.29453 C 185.91546,167.73805 185.71988,165.29721 185.43037,163.87044 C 185.14086,162.44367 184.75252,160.21508 184.56738,158.91801 L 184.23076,156.55971 L 184.1092,158.91801 C 184.04234,160.21508 183.85763,162.23142 183.69873,163.39878 C 183.23133,166.83251 182.67292,164.3753 182.62686,158.68218 C 182.5911,154.26299 182.45005,153.45044 181.31679,151.13562 C 180.05675,148.56186 180.02212,148.53516 176.90509,147.73454 C 173.33926,146.81864 172.48176,146.2582 172.45852,144.82838 C 172.44955,144.27646 172.15593,143.2949 171.80604,142.64713 C 171.3588,141.81915 171.31203,141.29386 171.64855,140.87841 C 171.99864,140.4462 171.9266,140.28744 171.38036,140.28744 C 170.8574,140.28744 170.63349,139.86325 170.63349,138.87246 C 170.63349,137.68298 170.45267,137.45748 169.49885,137.45748 C 168.01112,137.45748 167.18025,135.95086 167.90393,134.5654 C 168.36838,133.67622 168.19725,133.34656 166.42403,131.7145 C 165.32124,130.69949 163.79751,129.5684 163.03795,129.20095 C 162.2784,128.83351 161.91588,128.52456 162.23236,128.51441 C 162.54885,128.50425 162.80778,128.28447 162.80778,128.02599 C 162.80778,126.01267 174.27882,112.93117 176.04428,112.93117 C 176.52466,112.93117 177.37116,112.43662 177.92537,111.83217 C 178.47959,111.22771 179.88698,110.24502 181.05291,109.64841 C 184.82091,107.72028 190.5191,108.99224 193.00158,112.31562 C 197.40276,118.20763 199.27443,122.79181 199.92166,129.26457 C 200.18913,131.93939 200.32122,132.2222 201.42089,132.47456 C 202.08415,132.62676 203.60756,133.2265 204.80625,133.80732 L 206.98569,134.86336 L 206.99285,164.93168 L 207,195 L 193.76535,194.98749 L 180.53071,194.97497 L 174.54634,192.90113 z M 124.38596,177.2585 C 125.47221,176.52926 125.90295,175.65934 125.17535,175.66428 C 124.98546,175.66557 124.20864,176.18856 123.44909,176.82647 C 121.90889,178.12001 122.61658,178.44636 124.38596,177.2585 z M 146.69604,176.38423 C 146.69604,175.94599 146.42822,175.79685 145.96694,175.97821 C 145.37991,176.20902 145.35748,176.34258 145.85185,176.66367 C 146.66946,177.19471 146.69604,177.18591 146.69604,176.38423 z M 150.83906,175.66194 C 151.21883,175.41047 151.32241,175.20473 151.06923,175.20473 C 150.81604,175.20473 150.29816,175.41047 149.91839,175.66194 C 149.53861,175.91341 149.43503,176.11915 149.68822,176.11915 C 149.9414,176.11915 150.45928,175.91341 150.83906,175.66194 z M 127.19743,171.72151 C 127.59196,171.31623 127.15913,167.5265 125.46582,156.55971 C 124.22413,148.51791 122.96846,141.4607 122.67544,140.87702 C 122.2369,140.00348 121.7584,139.81578 119.97001,139.81578 C 117.87949,139.81578 117.78665,139.87423 117.51429,141.36179 C 117.3586,142.21209 117.46087,144.59987 117.74155,146.66796 C 118.02223,148.73606 118.32776,151.171 118.42051,152.07894 C 119.01174,157.86655 120.99039,174.1198 121.16762,174.64458 C 121.32787,175.11909 122.0452,174.89963 124.02649,173.76995 C 125.48121,172.9405 126.90814,172.01871 127.19743,171.72151 z M 130.38607,180.90317 C 130.24717,180.67289 131.30139,179.58103 132.7288,178.47682 C 134.1562,177.37261 135.18213,176.70449 135.00863,176.99212 C 134.83514,177.27975 133.74287,178.21242 132.58138,179.06472 L 130.46957,180.61437 L 132.02302,180.90602 L 133.57647,181.19768 L 132.10755,181.25977 C 131.29964,181.29392 130.52498,181.13345 130.38607,180.90317 z M 130.12395,178.77644 C 130.12395,178.65527 130.7972,178.07242 131.62005,177.48121 C 132.68154,176.71853 132.92655,176.64818 132.46349,177.23901 C 131.8047,178.07958 130.12395,179.18409 130.12395,178.77644 z"
       id="path2396" />
    <path
       style="fill:#6a6a6a"
       d="M 174.54634,192.89259 C 171.25494,191.76126 167.64603,190.48763 166.52654,190.06229 C 164.5876,189.3256 148.16368,187.48264 143.3586,187.46257 C 140.72847,187.45158 140.55459,186.8634 142.89827,185.90535 C 144.56783,185.22286 145.43663,185.21397 149.96715,185.83295 L 152.08742,186.12263 L 152.32275,183.1188 C 152.54832,180.23959 154.01657,176.32206 155.159,175.55125 C 155.44147,175.36066 154.98712,175.20147 154.14932,175.1975 C 153.31153,175.19353 152.74331,175.38465 152.8866,175.62221 C 153.0299,175.85977 152.50751,175.80676 151.72573,175.50441 C 150.51112,175.03467 150.21864,175.07476 149.71536,175.77998 C 149.06874,176.68603 147.32875,176.89928 147.07008,176.10417 C 146.96075,175.76812 146.53034,175.74984 145.76323,176.04866 C 145.13413,176.29373 143.79276,176.35657 142.78241,176.1883 L 140.94542,175.88236 L 142.5548,174.90202 C 145.04947,173.38242 146.64845,172.9079 150.30689,172.6015 C 152.53203,172.41515 153.90191,172.50063 154.31466,172.85161 C 154.65956,173.14489 155.1367,173.2614 155.37497,173.11052 C 155.94545,172.74927 158.66476,173.31502 158.66476,173.79495 C 158.66476,174.00032 158.0951,174.38153 157.39884,174.64208 C 156.70258,174.90263 156.40665,175.13256 156.74122,175.15304 C 157.07578,175.17352 157.62707,175.47465 157.96629,175.82222 C 158.35381,176.21928 159.15434,176.36077 160.12,176.20289 C 161.14613,176.03513 161.35095,175.89737 160.73627,175.78841 C 160.2299,175.69865 159.29793,175.51004 158.66522,175.36928 L 157.51484,175.11335 L 158.65944,174.48571 C 159.28897,174.1405 159.96201,173.95809 160.15508,174.08035 C 160.34814,174.2026 160.50611,173.73473 160.50611,173.04064 C 160.50611,171.95292 160.64914,171.82218 161.54186,172.09393 C 162.11153,172.26734 163.90334,172.59383 165.52367,172.81947 C 167.81256,173.1382 168.60934,173.08666 169.09562,172.58842 C 169.54591,172.12706 170.81737,171.98124 173.62714,172.06873 C 176.95032,172.1722 177.69753,172.34894 178.63767,173.25388 C 179.60347,174.18352 179.86464,174.23932 180.71206,173.69707 C 181.49788,173.19425 181.85838,173.18988 182.61497,173.674 C 183.39709,174.17446 183.72418,174.13551 184.63276,173.43371 C 186.04224,172.34501 186.49335,168.18847 185.55042,164.97829 C 185.19483,163.76769 184.88324,161.90888 184.85801,160.84761 C 184.83277,159.78633 184.64627,158.38739 184.44356,157.73886 C 184.17358,156.87511 184.05045,157.44281 183.98322,159.86133 C 183.93275,161.67722 183.74428,163.69357 183.5644,164.3421 C 183.24866,165.48043 183.22634,165.46614 182.91978,163.9294 C 182.74512,163.05388 182.60222,160.42733 182.60222,158.09263 C 182.60222,154.51807 182.40999,153.40883 181.38497,151.0686 C 180.55805,149.18064 179.85688,148.22512 179.19837,148.08876 C 174.66273,147.14959 173.32547,146.6946 172.94176,145.95997 C 172.70276,145.50243 172.62919,145.00311 172.77826,144.85037 C 172.92733,144.69763 172.61972,143.82667 172.09469,142.91491 C 171.50564,141.89198 171.31805,141.14445 171.60483,140.96285 C 171.89052,140.78194 171.80548,140.45883 171.3841,140.12425 C 171.00709,139.82489 170.63218,139.04934 170.55097,138.4008 C 170.44507,137.55503 170.07795,137.17487 169.25248,137.05619 C 167.75167,136.84041 167.37961,136.15779 168.00108,134.76026 C 168.45547,133.73846 168.30404,133.44211 166.462,131.748 C 165.33833,130.71457 163.79751,129.5684 163.03795,129.20095 C 162.2784,128.83351 161.91588,128.52456 162.23236,128.51441 C 162.54885,128.50425 162.80778,128.28447 162.80778,128.02599 C 162.80778,126.01267 174.27882,112.93117 176.04428,112.93117 C 176.52466,112.93117 177.37116,112.43662 177.92537,111.83217 C 178.47959,111.22771 179.88698,110.24502 181.05291,109.64841 C 184.82091,107.72028 190.5191,108.99224 193.00158,112.31562 C 197.40276,118.20763 199.27443,122.79181 199.92166,129.26457 C 200.18913,131.93939 200.32122,132.2222 201.42089,132.47456 C 202.08415,132.62676 203.60756,133.2265 204.80625,133.80732 L 206.98569,134.86336 L 206.99285,164.93168 L 207,195 L 193.76535,194.97477 L 180.53071,194.94954 L 174.54634,192.89259 z M 187.66591,180.2776 C 187.66591,179.61363 186.80727,180.31956 186.22039,181.46604 C 185.69428,182.49382 185.69746,182.49477 186.67825,181.6025 C 187.22146,181.10832 187.66591,180.51212 187.66591,180.2776 z M 178.57428,178.17953 C 178.2578,178.04868 177.73992,178.04868 177.42344,178.17953 C 177.10696,178.31037 177.3659,178.41743 177.99886,178.41743 C 178.63182,178.41743 178.89076,178.31037 178.57428,178.17953 z M 189.04691,176.48975 C 189.04691,176.22665 188.74159,176.27772 188.35641,176.60526 C 187.97663,176.9282 187.66591,177.40467 187.66591,177.66408 C 187.66591,177.92719 187.97123,177.87611 188.35641,177.54858 C 188.73619,177.22564 189.04691,176.74917 189.04691,176.48975 z M 164.15043,176.26706 C 164.25592,176.19366 163.79634,176.1336 163.12912,176.1336 C 162.23091,176.1336 161.98596,176.32037 162.18549,176.85313 C 162.40517,177.43971 162.59388,177.46437 163.20679,176.98659 C 163.6203,176.66426 164.04494,176.34047 164.15043,176.26706 z M 165.68488,177.23621 C 165.3684,177.10536 164.85052,177.10536 164.53404,177.23621 C 164.21756,177.36705 164.4765,177.47411 165.10946,177.47411 C 165.74242,177.47411 166.00136,177.36705 165.68488,177.23621 z M 169.01541,174.31955 C 168.57958,174.22977 167.89435,174.49304 167.49268,174.9046 C 166.82581,175.58786 166.89466,175.60205 168.2851,175.06783 C 169.33339,174.66507 169.56094,174.43193 169.01541,174.31955 z M 137.30114,186.57972 C 136.97342,186.03642 143.27391,181.90327 143.72511,182.36557 C 143.82002,182.46281 143.18083,182.93793 142.30468,183.42137 C 141.42853,183.90481 140.71167,184.44671 140.71167,184.62558 C 140.71167,184.80445 140.32486,185.40777 139.85209,185.96629 C 138.97411,187.00351 137.73631,187.30117 137.30114,186.57972 z M 127.18812,185.28355 C 120.35319,184.55666 118.79893,183.88273 119.32328,181.87332 C 119.50397,181.1809 119.62723,180.40212 119.59719,180.14271 C 119.53633,179.6172 114.2047,142.80163 113.84775,140.44215 C 113.55164,138.48487 113.99199,138.31014 120.08076,137.96891 C 124.87263,137.70037 125.00338,137.71969 125.19002,138.72406 C 125.29536,139.29097 125.2459,139.97968 125.08011,140.25454 C 124.81703,140.69069 126.21975,152.64288 128.48554,169.27112 C 128.96459,172.78679 129.03679,174.53255 128.71166,174.73843 C 128.44895,174.90479 128.29674,175.25258 128.3734,175.51131 C 128.54732,176.09828 126.27372,178.08429 124.14972,179.20075 C 122.55561,180.03868 122.55347,180.04415 123.65709,180.46244 C 124.26672,180.6935 125.71222,180.75402 126.86931,180.59692 C 128.27188,180.40649 128.76192,180.46196 128.33951,180.76334 C 127.89022,181.08389 128.51682,181.31183 130.49339,181.54688 C 133.81498,181.94187 134.84893,181.67249 135.611,180.2135 C 136.00114,179.4666 136.5936,179.12078 137.48307,179.12078 L 138.78437,179.12078 L 137.10109,180.5473 C 134.56306,182.6982 133.14561,184.60651 133.6796,185.15364 C 133.9794,185.46081 134.70967,185.04766 135.82035,183.94251 C 137.91477,181.85852 138.58449,181.71437 136.62328,183.7697 C 135.83368,184.59718 135.18765,185.44617 135.18765,185.65634 C 135.18765,186.11209 134.81614,186.09478 127.18812,185.28355 z M 124.38596,177.2585 C 125.47221,176.52926 125.90295,175.65934 125.17535,175.66428 C 124.98546,175.66557 124.20864,176.18856 123.44909,176.82647 C 121.90889,178.12001 122.61658,178.44636 124.38596,177.2585 z M 127.19743,171.72151 C 127.59196,171.31623 127.15913,167.5265 125.46582,156.55971 C 124.22413,148.51791 122.96846,141.4607 122.67544,140.87702 C 122.2369,140.00348 121.7584,139.81578 119.97001,139.81578 C 117.87949,139.81578 117.78665,139.87423 117.51429,141.36179 C 117.3586,142.21209 117.46087,144.59987 117.74155,146.66796 C 118.02223,148.73606 118.32776,151.171 118.42051,152.07894 C 119.01174,157.86655 120.99039,174.1198 121.16762,174.64458 C 121.32787,175.11909 122.0452,174.89963 124.02649,173.76995 C 125.48121,172.9405 126.90814,172.01871 127.19743,171.72151 z M 130.38607,180.90317 C 130.24717,180.67289 131.30139,179.58103 132.7288,178.47682 C 134.1562,177.37261 135.18213,176.70449 135.00863,176.99212 C 134.83514,177.27975 133.74287,178.21242 132.58138,179.06472 L 130.46957,180.61437 L 132.02302,180.90602 L 133.57647,181.19768 L 132.10755,181.25977 C 131.29964,181.29392 130.52498,181.13345 130.38607,180.90317 z M 130.12395,178.77644 C 130.12395,178.65527 130.7972,178.07242 131.62005,177.48121 C 132.68154,176.71853 132.92655,176.64818 132.46349,177.23901 C 131.8047,178.07958 130.12395,179.18409 130.12395,178.77644 z"
       id="path2394" />
    <path
       style="fill:#5c5c5c"
       d="M 174.54634,192.91317 C 171.25494,191.79317 167.81501,190.54097 166.90205,190.1305 C 165.98909,189.72004 162.88182,189.15339 159.99701,188.87129 C 157.11221,188.58918 152.72406,188.15476 150.24558,187.90591 C 147.76711,187.65705 144.8152,187.45344 143.6858,187.45344 C 141.30227,187.45344 141.03657,186.87741 143.02988,186.03144 C 144.38391,185.45679 147.28752,185.55964 150.72397,186.30398 C 152.19191,186.62193 152.22006,186.59629 152.22006,184.94148 C 152.22006,182.25764 153.12467,178.65511 154.21103,177.01261 C 155.31789,175.33911 155.85654,175.0259 156.69266,175.5696 C 157.1273,175.85223 157.10184,176.44618 156.57873,178.22708 C 156.06189,179.98666 156.0301,180.67494 156.44218,181.18368 C 156.87822,181.722 157.17362,181.37579 158.01192,179.34394 C 158.84001,177.33683 159.25767,176.84109 160.12057,176.84109 C 160.7124,176.84109 161.17189,177.05334 161.14168,177.31275 C 161.11148,177.57216 160.96129,178.47421 160.80794,179.3173 C 160.59591,180.48301 160.69177,180.8502 161.20812,180.8502 C 161.58157,180.8502 161.88711,180.44922 161.88711,179.95913 C 161.88711,179.46905 162.3172,178.567 162.84286,177.95457 C 163.36851,177.34216 163.68912,177.06976 163.5553,177.34925 C 163.39545,177.68312 164.3204,177.87308 166.25215,177.90309 C 168.86931,177.94375 169.27146,177.82499 169.91289,176.82195 C 170.90068,175.27731 170.82016,174.78459 169.52553,174.45167 C 167.98216,174.05478 166.34255,175.03145 166.63416,176.17398 C 166.82214,176.9105 166.61803,177.07692 165.5267,177.07692 C 164.79085,177.07692 164.18879,176.86467 164.18879,176.60526 C 164.18879,176.34585 163.66579,176.1336 163.02656,176.1336 C 161.87616,176.1336 161.62761,175.7795 160.74682,172.88567 C 160.42754,171.83665 160.49372,171.78308 161.72111,172.09701 C 162.44538,172.28226 163.38324,172.75257 163.80524,173.14215 C 164.39341,173.68512 164.78938,173.73158 165.50136,173.34116 C 166.13723,172.99249 166.81213,172.98063 167.64113,173.30357 C 169.23732,173.92537 169.39841,173.90193 169.09506,173.09195 C 168.74268,172.15108 169.7793,171.93179 173.95974,172.06286 C 176.98723,172.15777 177.68989,172.34158 178.68428,173.29874 C 179.58557,174.1663 179.97718,174.29527 180.3987,173.86339 C 181.15142,173.09215 182.375,173.1623 183.06679,174.01636 C 183.57928,174.64907 183.70697,174.64098 184.20416,173.9443 C 184.51219,173.51267 184.97469,173.2928 185.23194,173.4557 C 186.06631,173.98405 186.37328,167.19914 185.61225,165.04959 C 185.24488,164.01194 184.91456,162.20784 184.87821,161.04048 C 184.84186,159.87312 184.64627,158.38739 184.44356,157.73886 C 184.16663,156.85288 184.05005,157.32194 183.97465,159.6255 C 183.91945,161.31169 183.73214,163.32803 183.55839,164.10627 C 183.25943,165.44536 183.22368,165.40021 182.89178,163.26466 C 182.69888,162.02354 182.56934,159.47658 182.60391,157.60475 C 182.67159,153.93987 181.86231,149.5505 181.19665,149.97203 C 180.97182,150.1144 180.66263,149.71963 180.50956,149.09477 C 180.26853,148.11078 179.88809,147.92236 177.66848,147.68764 C 176.25895,147.53859 174.87627,147.1796 174.59585,146.88988 C 174.22151,146.50313 174.29512,146.44469 174.87279,146.66998 C 175.43566,146.88949 175.9056,146.56233 176.52399,145.52047 C 176.99941,144.71947 177.5117,144.19047 177.66243,144.3449 C 177.81316,144.49934 177.83363,144.23326 177.70792,143.75363 C 177.58221,143.274 176.2135,141.60809 174.66635,140.05161 C 173.1192,138.49514 172.09496,137.55955 172.39026,137.97254 C 172.68557,138.38553 172.79088,138.86309 172.62428,139.03378 C 171.97799,139.69597 171.05157,139.29167 170.63349,138.16497 C 170.37158,137.45916 169.8327,136.98582 169.29105,136.98582 C 167.90959,136.98582 167.77358,136.25655 169.13353,136.14123 C 170.8223,135.99803 170.95445,135.67253 169.54649,135.12406 C 168.87842,134.86381 168.33171,134.38031 168.33159,134.04962 C 168.33131,133.32371 164.19698,129.60011 162.71448,128.99056 C 162.13284,128.75141 161.91588,128.54229 162.23236,128.52584 C 162.54885,128.5094 162.80778,128.28447 162.80778,128.02599 C 162.80778,126.01267 174.27882,112.93117 176.04428,112.93117 C 176.52466,112.93117 177.37116,112.43662 177.92537,111.83217 C 178.47959,111.22771 179.88698,110.24502 181.05291,109.64841 C 184.82091,107.72028 190.5191,108.99224 193.00158,112.31562 C 197.40276,118.20763 199.27443,122.79181 199.92166,129.26457 C 200.18913,131.93939 200.32122,132.2222 201.42089,132.47456 C 202.08415,132.62676 203.60756,133.2265 204.80625,133.80732 C 206.86848,134.80656 206.98607,134.965 206.99285,136.75339 L 207,138.64343 L 204.98587,138.4793 C 203.26067,138.33871 202.79961,138.50537 201.77182,139.64106 C 200.77069,140.7473 200.68553,141.0321 201.25775,141.36022 C 201.63497,141.57651 202.18432,141.60105 202.47852,141.41475 C 202.83429,141.18946 202.917,141.33353 202.72547,141.8449 C 202.491,142.47098 202.66884,142.56663 203.683,142.35988 C 204.36802,142.22023 205.3428,142.06823 205.84916,142.02211 C 206.75861,141.93928 206.77129,142.26161 206.88875,168.46913 L 207.00767,195 L 193.76919,194.97477 L 180.53071,194.94954 L 174.54634,192.91317 z M 186.99753,181.74969 C 187.87125,180.01853 187.71671,179.73191 186.23665,180.33851 C 185.63023,180.58705 185.42911,180.80386 185.78972,180.8203 C 186.25299,180.84143 186.12812,181.19621 185.36423,182.02935 C 184.28498,183.20642 184.28482,183.2085 185.27217,183.2085 C 185.91217,183.2085 186.52111,182.69363 186.99753,181.74969 z M 177.34971,180.42536 C 176.42642,179.38003 177.02998,178.73461 178.48755,179.20861 C 179.23874,179.45289 179.31932,179.64914 178.8874,180.18237 C 178.21936,181.00711 178.42966,181.0157 180.23617,180.23744 L 181.65852,179.62467 L 180.2436,178.7683 C 178.65088,177.80431 176.35763,177.96443 174.69795,179.15551 L 173.68818,179.88019 L 175.2681,180.58256 C 177.56655,181.60437 178.33952,181.546 177.34971,180.42536 z M 188.40062,178.60259 C 188.67811,178.412 189.04279,177.67967 189.21101,176.97518 C 189.37923,176.27069 190.29152,175.10333 191.23831,174.38105 C 194.04314,172.24134 197.9321,167.85802 199.28925,165.3067 C 199.98543,163.99793 200.46877,162.92712 200.36332,162.92712 C 200.25788,162.92712 199.04196,164.57203 197.66128,166.58249 C 196.28061,168.59294 193.36325,171.89877 191.17826,173.92878 C 188.99329,175.95879 187.20557,177.92207 187.20557,178.29163 C 187.20557,179.02889 187.62211,179.13728 188.40062,178.60259 z M 185.45054,174.86808 C 185.11824,174.73183 184.7212,174.74859 184.56823,174.90532 C 184.41527,175.06205 184.68715,175.17352 185.17242,175.15304 C 185.70869,175.13041 185.81777,175.01865 185.45054,174.86808 z M 187.02336,158.80992 C 186.87039,158.65319 186.76159,158.93177 186.78158,159.42897 C 186.80367,159.97844 186.91275,160.09019 187.0597,159.71394 C 187.19267,159.37346 187.17632,158.96665 187.02336,158.80992 z M 186.74524,153.02226 C 186.74524,152.76285 186.52586,152.5506 186.25773,152.5506 C 185.9896,152.5506 185.89826,152.76285 186.05473,153.02226 C 186.21121,153.28168 186.43059,153.49392 186.54224,153.49392 C 186.65389,153.49392 186.74524,153.28168 186.74524,153.02226 z M 184.01219,150.25047 C 183.20425,148.62783 182.30434,147.834 181.27278,147.834 C 180.98116,147.834 184.47523,152.02689 184.79816,152.06446 C 184.86661,152.07243 184.51292,151.25613 184.01219,150.25047 z M 199.91375,147.48026 C 201.07529,146.37702 202.72188,143.58906 202.21192,143.58906 C 202.12117,143.58906 201.18672,144.75642 200.13536,146.18319 C 199.084,147.60996 198.29678,148.77732 198.38597,148.77732 C 198.47516,148.77732 199.16267,148.19364 199.91375,147.48026 z M 201.47598,142.15749 C 201.47598,141.48743 201.25562,141.59015 200.2814,142.71437 C 199.40917,143.7209 199.41002,143.72334 200.44022,143.16944 C 201.00989,142.86315 201.47598,142.40778 201.47598,142.15749 z M 204.57448,136.65897 C 204.12659,136.53938 203.50514,136.54725 203.19347,136.67645 C 202.88181,136.80564 203.24827,136.90349 204.00782,136.89388 C 204.76738,136.88426 205.02237,136.77856 204.57448,136.65897 z M 137.57391,186.48594 C 137.66264,186.21323 138.44283,185.53105 139.30768,184.96999 L 140.88014,183.94989 L 140.00615,185.46583 C 139.21495,186.83819 137.18192,187.69086 137.57391,186.48594 z M 127.18812,185.28355 C 120.35319,184.55666 118.79893,183.88273 119.32328,181.87332 C 119.50397,181.1809 119.62723,180.40212 119.59719,180.14271 C 119.53633,179.6172 114.2047,142.80163 113.84775,140.44215 C 113.55164,138.48487 113.99199,138.31014 120.08076,137.96891 C 124.87263,137.70037 125.00338,137.71969 125.19002,138.72406 C 125.29536,139.29097 125.2459,139.97968 125.08011,140.25454 C 124.81703,140.69069 126.21975,152.64288 128.48554,169.27112 C 128.96459,172.78679 129.03679,174.53255 128.71166,174.73843 C 128.44895,174.90479 128.29674,175.25258 128.3734,175.51131 C 128.54732,176.09828 126.27372,178.08429 124.14972,179.20075 C 122.55561,180.03868 122.55347,180.04415 123.65709,180.46244 C 124.26672,180.6935 125.71222,180.75402 126.86931,180.59692 C 128.29939,180.40276 128.7662,180.45859 128.32698,180.77127 C 127.57328,181.30784 133.39981,182.10681 134.23049,181.58079 C 135.03895,181.06885 134.80123,182.8147 133.92783,183.80353 C 133.16702,184.66491 133.17127,184.74083 134.01582,185.37357 C 135.08526,186.1748 135.63697,186.18207 127.18812,185.28355 z M 124.38596,177.2585 C 125.47221,176.52926 125.90295,175.65934 125.17535,175.66428 C 124.98546,175.66557 124.20864,176.18856 123.44909,176.82647 C 121.90889,178.12001 122.61658,178.44636 124.38596,177.2585 z M 127.19743,171.72151 C 127.59196,171.31623 127.15913,167.5265 125.46582,156.55971 C 124.22413,148.51791 122.96846,141.4607 122.67544,140.87702 C 122.2369,140.00348 121.7584,139.81578 119.97001,139.81578 C 117.87949,139.81578 117.78665,139.87423 117.51429,141.36179 C 117.3586,142.21209 117.46087,144.59987 117.74155,146.66796 C 118.02223,148.73606 118.32776,151.171 118.42051,152.07894 C 119.01174,157.86655 120.99039,174.1198 121.16762,174.64458 C 121.32787,175.11909 122.0452,174.89963 124.02649,173.76995 C 125.48121,172.9405 126.90814,172.01871 127.19743,171.72151 z M 130.38607,180.90317 C 130.24717,180.67289 131.30139,179.58103 132.7288,178.47682 C 134.1562,177.37261 135.18213,176.70449 135.00863,176.99212 C 134.83514,177.27975 133.74287,178.21242 132.58138,179.06472 L 130.46957,180.61437 L 132.02302,180.90602 L 133.57647,181.19768 L 132.10755,181.25977 C 131.29964,181.29392 130.52498,181.13345 130.38607,180.90317 z M 130.12395,178.77644 C 130.12395,178.65527 130.7972,178.07242 131.62005,177.48121 C 132.68154,176.71853 132.92655,176.64818 132.46349,177.23901 C 131.8047,178.07958 130.12395,179.18409 130.12395,178.77644 z M 148.41348,176.30978 C 148.26805,176.06867 148.49935,175.39557 148.92748,174.81402 C 149.97855,173.38631 154.01683,172.81946 154.9479,173.96893 C 155.82141,175.04735 155.48184,175.21975 152.41028,175.25734 C 150.54245,175.2802 149.55909,175.51344 149.19813,176.01923 C 148.91201,176.42014 148.55892,176.55089 148.41348,176.30978 z M 143.70386,174.96489 C 146.49086,173.56018 147.15637,173.50211 147.15637,174.66361 C 147.15637,175.67648 145.96789,176.1197 143.24352,176.12285 L 141.40218,176.12497 L 143.70386,174.96489 z M 171.49544,141.82034 C 170.92284,141.07226 170.93913,141.05558 171.66924,141.64226 C 172.43605,142.25842 172.6799,142.64574 172.30103,142.64574 C 172.20544,142.64574 171.84292,142.27431 171.49544,141.82034 z M 172.24466,140.7591 C 172.40114,140.49969 172.73632,140.28744 172.9895,140.28744 C 173.24269,140.28744 173.32181,140.49969 173.16534,140.7591 C 173.00886,141.01852 172.67368,141.23076 172.4205,141.23076 C 172.16731,141.23076 172.08819,141.01852 172.24466,140.7591 z"
       id="path2392" />
    <path
       style="fill:#4b4b4b"
       d="M 174.31617,192.58504 C 164.04257,188.91247 163.85415,188.8641 157.97426,188.38968 C 154.93605,188.14454 150.37872,187.73296 147.84688,187.47504 C 145.31503,187.21714 142.82922,186.99312 142.32285,186.97723 C 141.50097,186.95145 141.52567,186.87602 142.55302,186.27429 C 143.9684,185.44528 146.34513,185.39155 149.42103,186.11902 C 150.70522,186.42273 151.84264,186.58192 151.94863,186.47276 C 152.05461,186.3636 152.34445,184.7707 152.59272,182.93298 C 153.1846,178.55187 154.59539,175.66194 156.14227,175.66194 C 156.77009,175.66194 157.28151,175.715 157.27877,175.77985 C 157.27603,175.84471 156.96583,176.9379 156.58943,178.20917 C 156.06414,179.98332 156.02991,180.6747 156.44218,181.18368 C 156.87822,181.722 157.17362,181.37579 158.01192,179.34394 C 158.84001,177.33683 159.25767,176.84109 160.12057,176.84109 C 160.7124,176.84109 161.17189,177.05334 161.14168,177.31275 C 161.11148,177.57216 160.96129,178.47421 160.80794,179.3173 C 160.59591,180.48301 160.69177,180.8502 161.20812,180.8502 C 161.58157,180.8502 161.88711,180.44922 161.88711,179.95913 C 161.88711,179.46905 162.30182,178.567 162.80869,177.95457 C 163.55134,177.05727 163.67021,177.01636 163.42097,177.74386 C 163.18314,178.43802 163.26064,178.5523 163.75633,178.23841 C 164.1109,178.01389 165.59617,177.87854 167.05691,177.93765 C 168.63425,178.00148 169.71282,177.84853 169.71282,177.56102 C 169.71282,177.29476 170.13084,176.64862 170.64174,176.12514 L 171.57067,175.17336 L 170.31446,174.684 C 168.60006,174.01615 167.02371,174.5103 166.40092,175.91078 C 165.91023,177.01422 164.18879,177.57903 164.18879,176.63659 C 164.18879,176.3944 163.6502,176.12909 162.99193,176.04701 C 162.06158,175.931 161.65617,175.48168 161.17132,174.02918 C 160.82827,173.00147 160.61944,172.08698 160.70726,171.997 C 160.79508,171.90702 161.66614,172.1893 162.64294,172.6243 C 164.79966,173.58474 169.25269,173.81138 169.25257,172.9607 C 169.25252,172.61151 169.93722,172.37038 170.97874,172.3528 C 171.92818,172.33677 173.67083,172.30422 174.85128,172.28046 C 176.38954,172.24949 177.41052,172.53855 178.45531,173.3008 C 179.69957,174.20859 180.08575,174.28375 181.09207,173.81396 C 182.10234,173.34232 182.42064,173.40753 183.31625,174.2696 C 183.90604,174.83732 184.73031,175.17814 185.20808,175.05185 C 185.86328,174.87865 185.80778,174.81567 184.96261,174.77333 C 184.04949,174.72759 183.96373,174.60351 184.43935,174.01632 C 184.75223,173.63006 185.16379,173.41254 185.35393,173.53295 C 186.10641,174.00945 186.29583,166.97592 185.59395,164.62088 C 185.21442,163.34745 184.90389,161.18444 184.90389,159.81421 C 184.90389,158.44397 184.69674,157.1917 184.44356,157.03137 C 184.1652,156.85511 183.97274,157.54332 183.95669,158.77226 C 183.9421,159.89007 183.77258,161.65364 183.57997,162.69129 L 183.22978,164.57793 L 182.87061,162.54351 C 182.67307,161.42458 182.57951,159.19599 182.6627,157.59108 C 182.81883,154.57937 181.87084,149.5451 181.22465,149.95429 C 181.02359,150.08161 180.73927,149.69663 180.59281,149.09878 C 180.39164,148.27751 179.77532,147.85799 178.07168,147.38266 L 175.81682,146.75354 L 176.55017,145.44431 C 176.95352,144.72423 177.42516,144.22477 177.59827,144.33438 C 177.77137,144.444 177.80519,144.11129 177.67343,143.59502 C 177.54166,143.07875 177.21825,142.79288 176.95473,142.95975 C 176.68139,143.13284 176.6128,143.03571 176.79503,142.7336 C 177.13557,142.16904 173.79482,138.21403 172.24466,137.34658 C 171.40622,136.8774 171.38302,136.90468 171.9849,137.65204 C 172.54399,138.34628 172.548,138.53463 172.01095,138.87471 C 171.573,139.15203 171.22165,138.95932 170.87815,138.25337 C 170.60428,137.69052 169.9711,137.15447 169.47109,137.06214 C 167.8081,136.75505 167.75276,136.13368 169.39546,136.21284 C 171.15881,136.29782 171.18318,135.76163 169.44673,135.08519 C 168.78528,134.82752 168.44652,134.39841 168.59389,134.0049 C 168.72919,133.64365 168.36546,133.03403 167.77951,132.63998 C 167.19713,132.24833 166.04207,131.27769 165.2127,130.48301 C 164.38334,129.68832 163.49947,128.96801 163.24854,128.88231 C 162.7243,128.70326 163.96439,126.0235 165.61186,123.7753 C 168.01547,120.49523 175.06601,113.34745 176.15561,113.08612 C 176.78962,112.93407 177.82623,112.34504 178.4592,111.77717 C 181.03871,109.46294 182.27412,108.96945 185.36423,109.01894 C 190.22879,109.09684 191.97371,110.37571 195.85052,116.70445 C 197.93624,120.1093 199.67383,125.88399 199.7907,129.79924 C 199.86271,132.21158 199.91031,132.29476 201.47598,132.74449 C 202.36212,132.99903 203.34609,133.20847 203.66257,133.20991 C 203.97905,133.21136 204.23799,133.63704 204.23799,134.15587 C 204.23799,134.88956 203.9311,135.09919 202.85698,135.09919 C 202.09743,135.09919 201.47598,135.31143 201.47598,135.57085 C 201.47598,136.25516 203.40754,136.12125 204.37447,135.3699 C 205.34646,134.61463 207,134.92435 207,135.86169 C 207,136.34054 206.23439,136.53184 204.12291,136.58057 L 201.24581,136.64698 L 203.54749,136.94272 C 206.03025,137.26173 207,137.69532 207,138.48639 C 207,138.83363 206.82294,138.83772 206.42458,138.4997 C 205.71865,137.90067 201.81199,138.54711 201.56586,139.30367 C 201.47279,139.58976 200.68946,140.69109 199.82513,141.75108 C 198.9608,142.81106 198.25363,143.74558 198.25363,143.82779 C 198.25363,144.33132 199.95854,143.56017 201.3372,142.43304 C 202.94173,141.12127 202.95353,141.11936 202.6103,142.22741 C 202.32468,143.14944 202.37655,143.25064 202.90566,142.80372 C 203.25867,142.50556 204.27252,142.18885 205.15866,142.09993 L 206.76984,141.93825 L 206.88875,168.46913 L 207.00767,195 L 193.99936,194.98557 L 180.99104,194.97114 L 174.31617,192.58504 z M 187.21062,181.6756 C 188.35935,179.7452 188.36606,179.27053 187.23583,179.89029 C 185.61344,180.77993 182.92566,180.45493 181.03834,179.14092 C 179.51649,178.08136 178.93635,177.94266 177.00593,178.17691 C 175.76579,178.32741 174.43289,178.77659 174.04394,179.17511 C 173.40793,179.82677 173.44395,179.94364 174.40189,180.33657 C 178.09823,181.85271 178.73424,181.94336 177.73456,180.81155 C 177.29226,180.3108 177.03757,179.79127 177.16857,179.65705 C 177.54173,179.27472 178.94229,179.95923 178.67921,180.39537 C 178.17615,181.22936 179.47791,181.36656 180.08636,180.54369 C 180.46362,180.03346 180.73767,179.91591 180.74623,180.26062 C 180.75429,180.58489 180.91624,180.82506 181.10613,180.79434 C 181.29601,180.76362 182.57503,180.76362 183.94838,180.79434 L 186.44539,180.8502 L 185.36423,182.02935 L 184.28307,183.2085 L 185.29075,183.2085 C 185.93362,183.2085 186.62867,182.65354 187.21062,181.6756 z M 189.49885,176.85888 C 190.04576,175.7013 191.15179,174.33457 191.95667,173.82171 C 194.51796,172.18967 200.09497,165.40352 200.09497,163.91897 C 200.09497,163.71225 200.51058,163.05212 201.01856,162.45201 C 201.52654,161.8519 201.83726,161.25344 201.70906,161.12208 C 201.41354,160.81929 201.63842,160.52423 198.24559,165.66656 C 195.67916,169.55639 190.90095,174.71862 189.86692,174.71862 C 189.65946,174.71862 189.594,174.13494 189.72146,173.42155 C 189.84893,172.70817 189.64996,173.05809 189.27931,174.19917 C 188.90866,175.34024 188.29044,176.63044 187.90548,177.06626 C 187.02775,178.06 187.00372,178.96356 187.85501,178.96356 C 188.2122,178.96356 188.95193,178.01645 189.49885,176.85888 z M 182.60222,175.16244 C 182.60222,174.88772 182.39506,174.79412 182.14188,174.95445 C 181.8887,175.11478 181.68154,175.33955 181.68154,175.45395 C 181.68154,175.56834 181.8887,175.66194 182.14188,175.66194 C 182.39506,175.66194 182.60222,175.43716 182.60222,175.16244 z M 193.6197,160.09716 C 193.59335,159.03233 190.51168,167.84338 190.19745,169.88205 C 190.04733,170.85598 190.75986,169.21199 191.78086,166.22874 C 192.80186,163.24549 193.62934,160.48628 193.6197,160.09716 z M 187.05011,159.03593 C 186.92241,158.71166 186.81792,158.97697 186.81792,159.6255 C 186.81792,160.27403 186.92241,160.53934 187.05011,160.21508 C 187.17781,159.89081 187.17781,159.36019 187.05011,159.03593 z M 186.36929,152.44841 C 186.03898,152.10996 185.82457,152.08212 185.82457,152.37766 C 185.82457,153.00722 186.36896,153.56501 186.67619,153.25023 C 186.807,153.1162 186.6689,152.75538 186.36929,152.44841 z M 184.44356,151.13562 C 184.17256,150.6168 184.10045,150.1923 184.28332,150.1923 C 184.46619,150.1923 184.03539,149.57157 183.32599,148.81291 C 181.21911,146.5597 180.74713,147.61667 182.81674,149.95336 C 184.90388,152.30983 185.15051,152.48907 184.44356,151.13562 z M 201.60147,145.47001 C 201.99808,144.43549 202.26891,143.58906 202.20332,143.58906 C 202.13772,143.58906 201.12904,144.84909 199.96181,146.38913 L 197.83957,149.18919 L 199.35996,148.27007 C 200.30471,147.69894 201.15338,146.6388 201.60147,145.47001 z M 138.17983,185.78193 C 138.6862,185.36618 139.50971,184.79625 140.00987,184.51542 C 140.88063,184.02649 140.88816,184.05299 140.18728,185.13955 C 139.78471,185.76365 138.96119,186.33359 138.35724,186.40607 C 137.27633,186.53579 137.27355,186.52603 138.17983,185.78193 z M 125.99127,185.01494 C 120.64437,184.49578 119.49056,183.84883 119.5838,181.42228 C 119.62081,180.4591 118.38234,170.90949 116.83165,160.20093 C 115.28096,149.49237 114.01221,140.33345 114.01221,139.84778 C 114.01221,138.61388 116.50707,137.7431 117.8554,138.5064 C 118.72561,138.99903 118.74802,139.08803 118.04014,139.24016 C 116.83803,139.49851 116.97689,142.21585 119.0759,159.50868 C 120.08864,167.85219 120.91724,174.91724 120.91724,175.2088 C 120.91724,175.54228 121.51319,175.65661 122.52394,175.51705 C 123.42133,175.39314 124.01696,175.48366 123.87314,175.72209 C 123.73151,175.95688 123.45309,176.04605 123.25443,175.92025 C 123.05576,175.79445 122.66358,176.2079 122.38292,176.83904 C 122.0431,177.6032 122.02808,178.08499 122.33796,178.28122 C 122.63987,178.4724 122.60375,178.82222 122.23512,179.27733 C 121.78274,179.83582 121.78876,180.05591 122.26465,180.35726 C 122.73946,180.65793 132.97965,182.2713 134.38206,182.26639 C 135.35849,182.26297 134.53059,183.23973 133.23122,183.62413 C 132.40837,183.86757 132.09764,184.08588 132.54072,184.10928 C 132.98379,184.13268 133.3463,184.47019 133.3463,184.85931 C 133.3463,185.65908 132.75431,185.6716 125.99127,185.01494 z M 124.54703,183.25197 C 125.05488,182.92244 124.97942,182.7257 124.17626,182.28528 C 123.62165,181.98117 122.92043,181.83547 122.61798,181.96152 C 122.31554,182.08757 122.4306,182.20746 122.87367,182.22794 C 123.31674,182.24842 123.67926,182.47742 123.67926,182.73684 C 123.67926,183.38641 122.94994,183.32807 122.20509,182.61892 C 121.44316,181.89352 120.45691,181.65329 120.45691,182.1931 C 120.45691,182.66958 122.24342,183.60612 123.21892,183.64101 C 123.5987,183.6546 124.19635,183.47953 124.54703,183.25197 z M 125.98093,176.65572 C 125.98093,176.42406 126.29166,176.11236 126.67144,175.96303 C 127.05121,175.81371 127.36194,175.36651 127.36194,174.96925 C 127.36194,174.57199 127.56909,174.24696 127.82228,174.24696 C 128.58068,174.24696 128.34235,175.74731 127.47703,176.42034 C 126.52993,177.15698 125.98093,177.24335 125.98093,176.65572 z M 148.41348,176.30978 C 148.26805,176.06867 148.49935,175.39557 148.92748,174.81402 C 149.97855,173.38631 154.01683,172.81946 154.9479,173.96893 C 155.82141,175.04735 155.48184,175.21975 152.41028,175.25734 C 150.54245,175.2802 149.55909,175.51344 149.19813,176.01923 C 148.91201,176.42014 148.55892,176.55089 148.41348,176.30978 z M 143.70386,174.96489 C 146.49086,173.56018 147.15637,173.50211 147.15637,174.66361 C 147.15637,175.67648 145.96789,176.1197 143.24352,176.12285 L 141.40218,176.12497 L 143.70386,174.96489 z M 128.51189,173.63944 C 128.25822,173.32504 128.01606,172.53719 127.97375,171.88866 C 127.93145,171.24013 127.4567,168.05642 126.91875,164.81376 C 126.3808,161.5711 125.53104,156.1588 125.0304,152.78643 C 123.45105,142.14778 123.26672,141.1506 122.765,140.5312 C 122.40658,140.0887 122.4615,139.85252 122.96924,139.65289 C 123.35121,139.50271 123.55852,139.09891 123.42993,138.75556 C 123.28155,138.35937 123.55047,138.13128 124.16596,138.13128 C 124.98586,138.13128 125.10296,138.35265 124.92337,139.56311 C 124.72504,140.89983 128.37213,170.85393 129.01712,173.18572 C 129.34357,174.36594 129.20122,174.49378 128.51189,173.63944 z M 199.1743,143.17516 C 199.1743,142.94751 199.51894,142.46995 199.94017,142.11392 C 200.63463,141.52695 200.65458,141.56554 200.15414,142.52783 C 199.58337,143.62536 199.1743,143.89561 199.1743,143.17516 z M 172.24466,140.7591 C 172.40114,140.49969 172.73632,140.28744 172.9895,140.28744 C 173.24269,140.28744 173.32181,140.49969 173.16534,140.7591 C 173.00886,141.01852 172.67368,141.23076 172.4205,141.23076 C 172.16731,141.23076 172.08819,141.01852 172.24466,140.7591 z"
       id="path2390" />
    <path
       style="fill:#383838"
       d="M 175.00668,192.80835 C 171.46209,191.61751 168.47483,190.56138 168.36831,190.46139 C 168.26179,190.3614 168.5675,189.89743 169.04766,189.43036 C 169.78446,188.71363 170.15278,188.66289 171.40829,189.10513 C 172.22648,189.39333 173.28173,189.98688 173.75329,190.42413 C 174.48271,191.1005 174.73649,191.12487 175.45383,190.58743 C 176.11267,190.09382 176.16557,189.87251 175.69579,189.57502 C 175.31984,189.33696 175.20649,189.37982 175.39325,189.68944 C 175.5575,189.96175 175.40172,190.29864 175.04706,190.43808 C 174.42841,190.68132 173.88533,189.72105 173.17264,187.12376 C 172.9772,186.41154 172.65543,186.17805 172.14558,186.37851 C 171.65109,186.57293 171.5143,186.48613 171.73598,186.11861 C 171.91905,185.81511 171.86672,185.5668 171.61969,185.5668 C 171.37266,185.5668 171.06606,185.83211 170.93836,186.15637 C 170.81066,186.48064 170.68982,186.14974 170.66983,185.42105 C 170.64543,184.53147 170.80857,184.20701 171.16634,184.43356 C 171.54428,184.67289 171.6015,184.44103 171.36316,183.636 C 171.17835,183.01175 171.00762,182.2357 170.98376,181.91143 C 170.9599,181.58717 170.74239,181.32186 170.5004,181.32186 C 170.25841,181.32186 170.30571,181.01903 170.60551,180.64891 C 170.90531,180.27879 171.16242,179.09839 171.17687,178.0258 C 171.19602,176.6039 171.36902,176.14088 171.81554,176.31644 C 173.08231,176.8145 171.91104,175.26082 170.60041,174.70458 C 169.78652,174.35916 169.25248,173.78145 169.25248,173.24642 C 169.25248,172.13221 170.87743,172.04789 171.46923,173.13139 C 171.84701,173.82306 171.99339,173.79692 172.89068,172.87757 C 174.229,171.50632 176.59733,171.94971 179.33098,174.0833 C 181.32703,175.6412 182.60222,176.08357 182.60222,175.21812 C 182.60222,174.97401 182.39506,174.64312 182.14188,174.48279 C 181.60483,174.14271 181.52247,173.30175 182.0268,173.30773 C 182.21668,173.30998 183.12706,174.04513 184.04985,174.9414 L 185.72765,176.57098 L 186.04975,171.95999 C 186.30116,168.36091 186.21078,166.79326 185.63787,164.81662 C 185.23418,163.42382 184.90389,161.16794 184.90389,159.80356 C 184.90389,155.85167 184.1345,156.44383 183.74432,160.69604 C 183.48113,163.56425 183.29748,164.27002 183.04105,163.39878 C 182.31705,160.93896 182.73372,154.17334 183.57636,154.70693 C 183.79433,154.84496 183.84977,154.62972 183.69955,154.22862 C 183.54932,153.82751 183.24334,153.61527 183.01959,153.75696 C 182.79583,153.89865 182.73714,153.68248 182.88916,153.27658 C 183.04117,152.87069 182.94721,152.26903 182.68034,151.93956 C 182.41348,151.6101 181.98113,150.76382 181.71956,150.05893 C 181.03911,148.22519 181.91381,148.43357 183.17341,150.40528 C 184.06751,151.80488 184.82116,152.41282 186.90502,153.41544 C 188.38597,154.12798 184.803,150.04671 176.21482,141.23847 C 167.19498,131.98752 165.4642,130.34593 163.28642,128.97629 C 162.70713,128.61196 162.72304,128.43034 163.40151,127.6622 C 163.83451,127.17196 164.18879,126.49833 164.18879,126.16524 C 164.18879,124.62246 175.05402,112.93117 176.48779,112.93117 C 177.00369,112.93117 177.70705,112.58393 178.05082,112.15953 C 178.39459,111.73513 179.50749,110.84558 180.52395,110.18275 C 182.04705,109.18953 182.89823,108.98545 185.36423,109.02223 C 190.2272,109.09476 191.97209,110.37306 195.85052,116.70445 C 197.93624,120.1093 199.67383,125.88399 199.7907,129.79924 C 199.86271,132.21158 199.91031,132.29476 201.47598,132.74449 C 202.36212,132.99903 203.34609,133.20847 203.66257,133.20991 C 204.43405,133.21344 204.38728,133.59862 203.50571,134.50188 C 202.89285,135.12982 202.70922,135.14571 202.37963,134.59932 C 202.06165,134.07215 201.92385,134.11199 201.66383,134.80626 C 201.47542,135.30932 201.57679,135.81484 201.90815,136.02467 C 202.30174,136.27391 202.1818,136.46171 201.51489,136.6404 C 200.98712,136.78181 200.55531,137.24537 200.55531,137.67053 C 200.55531,138.29412 200.88901,138.39488 202.28156,138.19177 L 204.00782,137.93999 L 202.4577,138.43406 C 201.60514,138.7058 200.25866,139.57723 199.46552,140.37057 C 198.67239,141.16392 198.33419,141.63716 198.71396,141.42222 C 199.30964,141.08509 199.30579,141.19085 198.68598,142.19233 C 196.37183,145.93147 195.96332,146.84389 196.25488,147.62237 C 196.44434,148.12824 196.38738,148.34556 196.11117,148.17066 C 195.85801,148.01035 195.66883,148.34453 195.68769,148.91869 C 195.70644,149.48947 195.48409,149.91067 195.19357,149.85468 C 194.86935,149.7922 194.76403,150.13944 194.92083,150.75384 C 195.06134,151.30436 194.98831,151.63742 194.75854,151.49396 C 194.52877,151.3505 194.27846,152.53773 194.20231,154.13225 C 194.06292,157.05055 192.69635,162.50187 191.48817,164.95908 C 191.13,165.68755 190.41498,168.34064 189.89924,170.85483 C 189.30344,173.75937 188.61973,175.80479 188.02409,176.46469 C 187.4428,177.10869 187.1809,177.87262 187.33475,178.47542 C 187.50138,179.12831 187.29415,179.60588 186.70371,179.92965 C 185.9149,180.3622 185.81662,180.22829 185.74718,178.62641 L 185.6698,176.84109 L 185.48922,178.60981 C 185.26509,180.80523 184.291,180.92939 181.31423,179.14198 C 179.55277,178.08429 178.91104,177.94682 176.87815,178.19162 C 175.07137,178.4092 174.23084,178.2894 173.37304,177.69206 C 172.25257,176.9118 172.25045,176.91309 173.07012,177.87665 C 173.80517,178.74071 173.81602,178.87829 173.16917,179.13262 C 172.51789,179.38868 172.52691,179.55328 173.25638,180.72379 C 173.70387,181.44185 174.45004,182.31668 174.91451,182.66786 C 175.379,183.01904 175.65973,183.57151 175.53836,183.89556 C 175.3181,184.48369 176.73223,186.03846 177.48742,186.03846 C 177.70671,186.03846 178.1103,186.31521 178.38428,186.65345 C 178.9447,187.34534 182.14188,187.15579 182.14188,186.43068 C 182.14188,186.18434 181.93473,186.11396 181.68154,186.27429 C 181.42836,186.43461 181.22121,186.34102 181.22121,186.06629 C 181.22121,185.45572 185.20525,185.39331 185.5701,185.99817 C 185.71321,186.23543 185.57007,186.53704 185.25201,186.66843 C 184.93395,186.79981 185.12952,186.92406 185.68661,186.94454 C 186.24369,186.96502 186.91983,187.35321 187.18913,187.80718 C 187.56062,188.4334 187.61963,188.06346 187.43371,186.27429 C 187.29891,184.97722 187.44066,182.90019 187.7487,181.65867 C 188.2919,179.46934 188.35109,179.41067 189.7136,179.71092 C 190.48625,179.88118 191.71742,180.33429 192.44952,180.71782 C 194.09714,181.58096 196.86499,184.612 196.87747,185.5668 C 196.88569,186.19568 196.9363,186.19568 197.33296,185.5668 C 197.65721,185.0527 197.78112,185.02808 197.78624,185.47672 C 197.79012,185.8163 197.97874,185.9767 198.20539,185.83317 C 198.43204,185.68965 198.73627,185.88937 198.88145,186.27699 C 199.02662,186.66462 199.47434,186.98178 199.87638,186.98178 C 200.52828,186.98178 200.5207,186.83148 199.80636,185.59245 C 199.36582,184.82831 198.8386,184.30872 198.63477,184.43779 C 198.43094,184.56687 198.37414,184.37885 198.50855,184.01997 C 198.64358,183.65942 197.94933,182.49323 196.95691,181.41355 C 195.9691,180.3389 195.28709,179.33033 195.44134,179.17229 C 195.59558,179.01425 195.51463,178.93691 195.26145,179.00042 C 195.00826,179.06393 194.17966,178.83409 193.4201,178.48967 C 191.82108,177.76459 191.58135,177.68723 190.6867,177.60754 C 189.51387,177.50307 190.08162,175.56727 191.45915,174.97382 C 192.16633,174.66916 192.58612,174.22879 192.39201,173.99523 C 192.19791,173.76166 192.44137,173.88194 192.93305,174.26251 C 193.42472,174.64308 193.68065,174.70442 193.50179,174.39883 C 193.30322,174.0596 193.58254,173.72073 194.21901,173.5287 C 194.79235,173.35572 195.83111,172.56881 196.52737,171.78002 C 197.22363,170.99123 197.79329,170.61285 197.79329,170.93918 C 197.79329,171.4131 197.93225,171.41434 198.48379,170.94534 C 198.86357,170.6224 199.17747,170.54335 199.18135,170.76967 C 199.19741,171.70716 200.08145,169.67757 200.08792,168.68836 C 200.09407,167.74882 200.21594,167.67686 201.03776,168.12751 C 201.70092,168.49116 201.90699,168.95073 201.73252,169.677 C 201.59609,170.24488 201.6034,170.4442 201.74875,170.11993 C 201.89411,169.79567 202.29621,169.53036 202.6423,169.53036 C 202.9884,169.53036 203.46035,169.18473 203.69108,168.7623 C 203.97896,168.23523 204.21165,168.16178 204.43267,168.5282 C 204.61579,168.83179 205.2391,168.93761 205.87738,168.77347 C 206.80145,168.53584 207,168.66067 207,169.47923 C 207,170.02618 206.74107,170.49044 206.42458,170.51092 C 205.96425,170.54071 205.96425,170.59573 206.42458,170.78605 C 207.08022,171.05711 207.13775,173.76482 206.56326,177.31275 C 206.34739,178.64591 206.35986,180.0174 206.59194,180.46783 C 206.84902,180.96675 206.82158,181.37917 206.51856,181.57105 C 206.18289,181.78361 206.18936,182.06853 206.53967,182.50101 C 206.90734,182.95492 206.90251,183.21456 206.52191,183.45557 C 206.14545,183.69396 206.13919,183.93015 206.49956,184.29939 C 206.79815,184.60532 207,186.86681 207,189.90607 L 207,195 L 194.22569,194.98675 L 181.45138,194.97351 L 175.00668,192.80835 z M 177.53852,191.22672 C 177.15875,190.97525 176.64087,190.7695 176.38769,190.7695 C 176.1345,190.7695 176.23808,190.97525 176.61785,191.22672 C 176.99763,191.47819 177.51551,191.68393 177.76869,191.68393 C 178.02188,191.68393 177.9183,191.47819 177.53852,191.22672 z M 203.96664,186.46252 C 203.48292,185.91433 202.29861,185.14231 201.33482,184.74692 C 200.25683,184.30466 199.67057,183.79285 199.81137,183.41691 C 199.93725,183.08081 199.75846,182.5662 199.41406,182.27334 C 198.92095,181.85403 198.82146,181.92187 198.94587,182.5926 C 199.03276,183.06105 199.11996,183.55045 199.13964,183.68016 C 199.26186,184.48567 201.50747,186.51012 202.27876,186.51012 C 202.78797,186.51012 203.46662,186.83361 203.78689,187.22901 C 204.10715,187.6244 204.4765,187.83794 204.60766,187.70356 C 204.73882,187.56917 204.45036,187.0107 203.96664,186.46252 z M 195.29579,184.56654 C 195.43338,184.33844 195.2911,184.15182 194.97961,184.15182 C 194.66812,184.15182 194.03317,183.79937 193.56861,183.36861 C 192.47926,182.35851 191.97653,182.88252 192.62846,184.34856 C 193.0017,185.1879 193.39136,185.42452 194.09142,185.23694 C 194.61623,185.09633 195.1582,184.79464 195.29579,184.56654 z M 187.79452,172.34161 C 187.65947,171.8125 187.44612,171.48497 187.32041,171.61378 C 187.07137,171.86894 187.51126,173.30364 187.83853,173.30364 C 187.94937,173.30364 187.92956,172.87073 187.79452,172.34161 z M 205.619,170.94534 C 205.619,170.35439 205.13047,170.35439 204.23799,170.94534 C 203.67962,171.31506 203.74569,171.40393 204.58324,171.40978 C 205.15291,171.41375 205.619,171.20475 205.619,170.94534 z M 186.58685,161.85691 C 186.46075,161.53758 186.36526,161.91305 186.37464,162.69129 C 186.38403,163.46953 186.4872,163.7308 186.60391,163.27189 C 186.72062,162.81298 186.71295,162.17624 186.58685,161.85691 z M 187.36782,158.44635 C 187.55644,156.85884 187.51107,156.39637 187.22899,157.03137 C 186.83062,157.92814 186.55609,161.41484 186.91642,161.00118 C 187.01057,160.89309 187.2137,159.74342 187.36782,158.44635 z M 186.07366,155.82084 C 186.56911,154.99947 186.00483,154.82553 185.37346,155.60499 C 185.01037,156.05325 184.97545,156.32388 185.2807,156.32388 C 185.54994,156.32388 185.90677,156.09751 186.07366,155.82084 z M 164.64913,189.23798 C 163.5098,189.00797 162.26689,188.69805 161.88711,188.54927 C 161.50734,188.4005 160.22105,188.3206 159.0287,188.37172 C 157.83634,188.42284 154.93623,188.24841 152.584,187.9841 C 150.23176,187.71979 146.90703,187.36904 145.1957,187.20465 C 143.48438,187.04026 142.19695,186.71884 142.33476,186.49038 C 142.82989,185.66953 145.82437,185.47439 148.75782,186.07181 C 150.40178,186.40662 151.876,186.54821 152.03387,186.38646 C 152.19174,186.2247 152.47595,184.64511 152.66546,182.87626 C 153.1201,178.63274 154.5721,175.66194 156.19152,175.66194 C 157.14619,175.66194 157.31589,175.82558 157.04751,176.48734 C 155.99205,179.08981 155.44241,181.82078 155.44241,184.46261 C 155.44241,187.06105 155.55444,187.45344 156.29632,187.45344 C 157.01933,187.45344 157.19084,186.95702 157.4152,184.21503 C 157.73097,180.35594 158.68583,177.7763 159.92102,177.44534 C 160.7458,177.22435 160.78974,177.36475 160.45296,179.14524 C 160.25106,180.21267 160.07684,182.30645 160.06582,183.79807 C 160.04846,186.14613 160.16203,186.51012 160.91199,186.51012 C 161.66502,186.51012 161.81986,185.99787 162.0969,182.59028 C 162.52284,177.3511 162.94598,176.84984 163.881,180.47681 L 164.64601,183.44433 L 164.47004,181.16844 C 164.26127,178.4683 164.88742,177.98378 167.15427,179.09135 C 168.51997,179.75863 168.67886,180.0609 168.91946,182.4495 C 169.22203,185.45321 168.68861,187.93962 167.52364,188.95577 C 166.89811,189.5014 166.26282,189.56377 164.64913,189.23798 z M 137.48932,186.2864 C 137.48932,186.16335 138.11828,185.72944 138.887,185.32214 C 140.2553,184.59715 140.27232,184.60186 139.69694,185.54586 C 139.19352,186.37178 137.48932,186.94346 137.48932,186.2864 z M 130.08559,185.39064 C 129.9801,185.29375 128.02943,185.06976 125.75077,184.89288 C 120.63696,184.49591 119.49048,183.85071 119.5838,181.42228 C 119.62081,180.4591 118.38234,170.90949 116.83165,160.20093 C 115.28096,149.49237 114.01221,140.33345 114.01221,139.84778 C 114.01221,138.87108 116.33996,137.78801 117.4777,138.23534 C 118.24172,138.53573 118.40007,139.34412 117.69489,139.34412 C 116.87002,139.34412 117.19495,144.03664 119.11556,159.86117 C 120.86026,174.23626 121.32701,176.51279 122.39135,175.83881 C 122.89039,175.5228 122.85295,176.01494 122.297,177.0793 C 121.9835,177.6795 121.99067,178.0613 122.31936,178.26944 C 122.64818,178.47766 122.62118,178.80071 122.23512,179.27733 C 121.78274,179.83582 121.78876,180.05591 122.26465,180.35726 C 122.75035,180.66482 132.99069,182.27074 134.43843,182.26639 C 134.65931,182.26572 134.58216,182.58355 134.26698,182.97267 C 133.95179,183.36179 133.25318,183.68661 132.71452,183.6945 C 131.8281,183.70748 131.8116,183.75448 132.54072,184.1896 C 133.81188,184.9482 133.48449,185.5668 131.81185,185.5668 C 130.9679,185.5668 130.19109,185.48753 130.08559,185.39064 z M 124.54703,183.25197 C 125.0574,182.9208 124.9914,182.73227 124.21631,182.30725 C 123.18005,181.73901 120.45691,181.76423 120.45691,182.34207 C 120.45691,183.38541 123.34965,184.02895 124.54703,183.25197 z M 122.52842,182.73684 C 121.64993,182.35005 121.65521,182.32996 122.6435,182.29833 C 123.21317,182.2801 123.67926,182.47742 123.67926,182.73684 C 123.67926,182.99625 123.62747,183.19358 123.56417,183.17534 C 123.50088,183.15712 123.03479,182.95979 122.52842,182.73684 z M 184.54768,181.52295 C 184.98473,181.05411 185.46856,180.79987 185.62286,180.95797 C 185.77717,181.11607 185.41959,181.49967 184.82824,181.8104 C 183.80037,182.35051 183.78803,182.33786 184.54768,181.52295 z M 125.98093,176.65572 C 125.98093,176.42406 126.29166,176.11236 126.67144,175.96303 C 127.05121,175.81371 127.36194,175.36651 127.36194,174.96925 C 127.36194,174.57199 127.56909,174.24696 127.82228,174.24696 C 128.58068,174.24696 128.34235,175.74731 127.47703,176.42034 C 126.52993,177.15698 125.98093,177.24335 125.98093,176.65572 z M 164.51163,176.29206 C 164.71555,175.74758 164.63262,175.61672 164.24086,175.8648 C 163.93026,176.06148 163.17003,176.09226 162.55145,175.93319 C 161.74606,175.72607 161.42678,175.31967 161.42678,174.50164 C 161.42678,173.87336 161.21963,173.22814 160.96644,173.06781 C 160.71326,172.90748 160.50611,172.56228 160.50611,172.3007 C 160.50611,171.58695 162.46343,172.30749 163.34191,173.34463 C 164.18917,174.34492 165.1375,174.50123 165.86109,173.75984 C 166.12257,173.49192 166.66256,173.40091 167.06105,173.55758 C 167.69404,173.80646 167.66015,174.04424 166.79277,175.43972 C 165.76252,177.09723 163.95748,177.77168 164.51163,176.29206 z M 143.71651,175.52261 C 144.21592,175.18656 145.19419,174.6605 145.89045,174.35357 C 147.0132,173.85864 147.15637,173.89484 147.15637,174.67372 C 147.15637,175.58404 145.98243,176.11564 143.94668,176.12716 C 142.85479,176.13333 142.84543,176.10875 143.71651,175.52261 z M 149.45805,174.59798 C 149.45805,173.65573 154.32989,173.52606 154.6793,174.459 C 154.90786,175.06926 154.49849,175.19028 152.20562,175.19028 C 150.30771,175.19028 149.45805,175.00711 149.45805,174.59798 z M 184.44356,174.24696 C 184.44356,173.98755 184.65071,173.7753 184.90389,173.7753 C 185.15708,173.7753 185.36423,173.98755 185.36423,174.24696 C 185.36423,174.50637 185.15708,174.71862 184.90389,174.71862 C 184.65071,174.71862 184.44356,174.50637 184.44356,174.24696 z M 128.42537,173.57179 C 128.12411,173.22017 127.95259,172.85568 128.04422,172.7618 C 128.13585,172.66791 127.71324,169.62078 127.1051,165.99039 C 126.49695,162.35999 125.67265,157.16108 125.27331,154.43724 C 123.70565,143.74441 123.22874,141.10371 122.76097,140.52622 C 122.4077,140.09008 122.46464,139.85129 122.96924,139.65289 C 123.35121,139.50271 123.55852,139.09891 123.42993,138.75556 C 123.28155,138.35937 123.55047,138.13128 124.16596,138.13128 C 124.98649,138.13128 125.10266,138.35173 124.92051,139.56311 C 124.7198,140.89803 128.3682,170.84607 129.01657,173.18572 C 129.35135,174.3938 129.2092,174.48662 128.42537,173.57179 z M 190.12858,173.30364 C 190.2863,172.65511 190.41818,171.70583 190.42164,171.19414 C 190.42757,170.31584 190.46782,170.32215 191.14102,171.30692 C 191.80046,172.27156 191.7784,172.43031 190.84797,173.41642 L 189.84181,174.48279 L 190.12858,173.30364 z M 202.85698,164.81376 C 202.85698,164.55435 203.06413,164.3421 203.31732,164.3421 C 203.5705,164.3421 203.77765,164.55435 203.77765,164.81376 C 203.77765,165.07317 203.5705,165.28542 203.31732,165.28542 C 203.06413,165.28542 202.85698,165.07317 202.85698,164.81376 z M 204.13382,164.45656 C 203.98417,163.87022 204.17422,163.56892 204.72028,163.52677 C 205.22298,163.48797 205.48663,163.75414 205.41826,164.23144 C 205.26091,165.3299 204.39544,165.48159 204.13382,164.45656 z M 193.65027,163.36776 C 193.65027,163.12353 194.06457,162.13169 194.57094,161.16367 C 195.07731,160.19565 195.49161,159.0972 195.49161,158.72265 C 195.49161,157.73581 196.54243,154.9089 196.90925,154.9089 C 197.08085,154.9089 197.48347,154.2191 197.80395,153.37601 C 198.45396,151.666 200.78923,149.24898 201.7914,149.24898 C 202.52404,149.24898 202.62912,149.03957 199.47795,153.85922 C 198.25244,155.73361 196.95775,157.2672 196.60085,157.2672 C 196.24395,157.2672 195.95195,157.47945 195.95195,157.73886 C 195.95195,157.99827 196.38271,158.21052 196.9092,158.21052 C 197.75355,158.21052 197.82547,158.39131 197.51902,159.74342 C 197.32793,160.58651 197.16351,161.64774 197.15363,162.10172 C 197.13716,162.85857 196.73433,163.12817 195.83687,162.98297 C 195.64698,162.95226 195.49161,163.0942 195.49161,163.29841 C 195.49161,163.50262 195.07731,163.70168 194.57094,163.74076 C 194.06457,163.77984 193.65027,163.61199 193.65027,163.36776 z M 196.20401,149.60273 C 196.53792,148.47453 198.28412,146.29304 198.59682,146.61344 C 198.79837,146.81995 196.4193,150.66396 196.08993,150.66396 C 195.97991,150.66396 196.03125,150.18641 196.20401,149.60273 z M 168.79215,136.51416 C 169.69365,135.91723 170.30305,135.91723 169.94299,136.51416 C 169.78651,136.77358 169.30819,136.98257 168.88006,136.9786 C 168.20923,136.97238 168.19708,136.90819 168.79215,136.51416 z M 204.69833,136.27833 C 204.69833,135.61297 205.02376,135.33808 205.96425,135.20903 C 206.64857,135.11514 207,135.31244 207,135.79054 C 207,136.24797 206.57665,136.51416 205.84916,136.51416 C 205.2162,136.51416 204.69833,136.40804 204.69833,136.27833 z"
       id="path2388" />
    <path
       style="fill:#151515"
       d="M 182.27453,193.36998 C 178.23694,191.42877 175.95576,189.69619 174.23614,187.26475 C 171.97459,184.06707 172.79256,183.86199 175.8419,186.86215 C 178.75996,189.73314 184.53375,193.08673 186.81464,193.23544 C 187.40943,193.27422 188.51753,193.68631 189.27708,194.15121 L 190.65809,194.99647 L 188.12624,194.98129 C 186.23152,194.96993 184.75898,194.56446 182.27453,193.36998 z M 173.3966,192.17504 C 170.01808,190.90864 169.97715,190.87412 171.45888,190.54067 C 172.5857,190.28709 173.27668,190.42164 174.16239,191.06712 C 174.81679,191.54402 175.89591,192.30452 176.56044,192.75713 C 178.15347,193.84211 177.54576,193.73031 173.3966,192.17504 z M 165.355,188.51467 C 165.90649,185.65796 166.09482,185.09514 166.49924,185.09514 C 166.7476,185.09514 166.9508,185.73188 166.9508,186.51012 C 166.9508,187.28836 166.74365,187.9251 166.49047,187.9251 C 166.23728,187.9251 166.03013,188.24347 166.03013,188.63259 C 166.03013,189.02171 165.84238,189.34008 165.61289,189.34008 C 165.38341,189.34008 165.26736,188.96864 165.355,188.51467 z M 162.65434,188.55398 C 162.18567,188.07378 162.28887,179.52798 162.76699,179.22522 C 163.29132,178.8932 163.79415,181.84097 163.89328,185.8278 C 163.96368,188.65946 163.5804,189.50282 162.65434,188.55398 z M 157.15991,188.08738 C 157.47157,187.95818 158.09303,187.95032 158.54092,188.0699 C 158.98881,188.18949 158.73381,188.29519 157.97426,188.30481 C 157.21471,188.31442 156.84825,188.21658 157.15991,188.08738 z M 192.88845,187.66892 C 192.73853,187.26862 192.71872,186.8357 192.84444,186.7069 C 192.97015,186.57809 193.1835,186.90561 193.31854,187.43473 C 193.6054,188.55866 193.28667,188.73222 192.88845,187.66892 z M 149.68822,187.43174 C 148.4223,187.22971 146.40257,187.04582 145.19995,187.0231 C 143.99732,187.00037 143.01335,186.77915 143.01335,186.53149 C 143.01335,185.79943 146.05197,185.43336 147.70179,185.96665 C 148.54114,186.23796 149.95291,186.5243 150.83906,186.60295 L 152.45023,186.74595 L 152.70207,183.44433 C 152.96418,180.0082 154.18036,176.79004 155.53542,175.94695 C 156.79533,175.16307 156.93106,175.86014 156.04379,178.5578 C 155.54542,180.07306 155.21225,182.45568 155.21225,184.50447 L 155.21225,187.92292 L 153.60107,187.86098 C 152.71493,187.82693 150.95414,187.63376 149.68822,187.43174 z M 188.41639,186.86386 C 188.10655,185.67926 188.02473,182.9417 188.30831,183.2478 C 188.40844,183.35589 188.58988,184.2179 188.71151,185.16338 C 188.83314,186.10886 189.07416,187.11703 189.24712,187.40376 C 189.42008,187.6905 189.36637,187.9251 189.12777,187.9251 C 188.88918,187.9251 188.56905,187.44754 188.41639,186.86386 z M 138.17983,186.03846 C 138.33631,185.77904 138.67148,185.5668 138.92467,185.5668 C 139.17785,185.5668 139.25698,185.77904 139.1005,186.03846 C 138.94402,186.29787 138.60885,186.51012 138.35566,186.51012 C 138.10248,186.51012 138.02335,186.29787 138.17983,186.03846 z M 129.43345,185.23201 C 128.16753,185.1414 126.82105,184.94151 126.44127,184.78782 C 126.06149,184.63413 124.78656,184.51584 123.60807,184.52498 C 122.10269,184.53664 121.17849,184.26772 120.50081,183.62084 C 119.18899,182.36863 119.22736,180.85911 120.57199,180.8203 L 121.60775,180.79041 L 120.57199,180.36384 C 120.00233,180.12923 119.53624,179.80466 119.53624,179.64258 C 119.53624,179.4805 118.27484,170.4111 116.73314,159.48837 C 114.07141,140.63045 113.97138,139.59789 114.74961,139.01483 C 116.57971,137.64371 117.08233,138.18592 117.13171,141.58451 C 117.17519,144.57753 119.85447,167.86798 120.95676,174.83486 C 121.23366,176.58498 121.64953,178.13678 121.88092,178.2833 C 122.11231,178.42983 122.18371,179.03108 122.03959,179.61942 C 121.78339,180.66534 121.92174,180.70801 128.25949,181.53803 C 133.72313,182.25358 134.65697,182.49119 134.2039,183.05054 C 133.88566,183.44342 133.14461,183.62989 132.38741,183.50762 C 131.54846,183.37215 131.0201,183.537 130.85164,183.98678 C 130.7104,184.36391 130.78092,184.55463 131.00836,184.41061 C 131.59933,184.03639 132.9302,184.64023 132.62599,185.14456 C 132.48591,185.37679 132.22816,185.52854 132.05321,185.48178 C 131.87827,185.43503 130.69937,185.32263 129.43345,185.23201 z M 124.63617,183.42138 C 125.36117,182.96228 125.10744,182.43862 123.88305,181.86703 C 122.64306,181.28815 120.45691,181.58753 120.45691,182.33621 C 120.45691,183.69844 123.11054,184.38747 124.63617,183.42138 z M 130.58429,183.41649 C 130.58429,183.30209 130.37714,183.2085 130.12395,183.2085 C 129.87077,183.2085 129.66362,183.43327 129.66362,183.708 C 129.66362,183.98272 129.87077,184.07631 130.12395,183.91599 C 130.37714,183.75566 130.58429,183.53089 130.58429,183.41649 z M 168.11602,184.95688 C 167.91896,184.49172 167.88691,183.97879 168.04477,183.81704 C 168.51224,183.33807 168.88907,184.01086 168.67391,184.94031 C 168.48317,185.76427 168.45836,185.76501 168.11602,184.95688 z M 193.62941,182.94692 C 193.30275,182.54364 192.62563,181.98893 192.12469,181.71424 C 191.32908,181.27797 191.24607,181.34088 191.46831,182.21165 C 191.60825,182.75992 191.53892,183.2085 191.31427,183.2085 C 191.08961,183.2085 190.76761,182.64438 190.59872,181.95491 C 190.32549,180.83948 190.23015,180.7875 189.73362,181.48325 C 188.63458,183.02324 187.54659,182.047 188.55071,180.42185 C 188.89953,179.8573 189.22647,179.87713 190.73026,180.55405 C 193.8471,181.95709 194.72299,182.48766 194.91765,183.09058 C 195.18526,183.91944 194.34089,183.82528 193.62941,182.94692 z M 182.83238,179.92234 C 181.43324,179.31992 178.70937,176.48718 178.53336,175.45147 C 178.39821,174.65629 178.47667,174.61797 179.1199,175.16494 C 179.5283,175.51222 179.98728,175.66846 180.13986,175.51213 C 180.29243,175.3558 181.01246,175.54326 181.73991,175.92869 C 183.31611,176.76383 183.52918,176.09621 182.28074,174.23399 C 181.66285,173.31232 181.89597,173.41393 183.39261,174.71862 C 185.03987,176.15461 185.29137,176.63029 185.32526,178.37398 C 185.36668,180.50446 184.88264,180.8051 182.83238,179.92234 z M 171.55416,177.9924 C 171.55416,177.45827 171.76131,177.15242 172.0145,177.31275 C 172.26768,177.47308 172.47483,177.9101 172.47483,178.28391 C 172.47483,178.65772 172.26768,178.96356 172.0145,178.96356 C 171.76131,178.96356 171.55416,178.52654 171.55416,177.9924 z M 173.698,177.52261 C 173.02526,176.98041 172.47483,176.25957 172.47483,175.92076 C 172.47483,175.58194 171.85338,175.04098 171.09383,174.71862 C 170.22299,174.34904 169.71282,173.79065 169.71282,173.20711 C 169.71282,172.10718 170.5971,172.29209 171.29111,173.53714 C 171.56238,174.02381 172.28479,174.91715 172.89646,175.52232 L 174.0086,176.62265 L 175.01594,175.65303 C 175.70026,174.99432 175.95379,174.31094 175.80656,173.52186 C 175.52352,172.00477 176.81879,171.93269 177.60915,173.42155 C 178.41342,174.93662 178.40368,175.90861 177.57346,176.98192 C 176.4361,178.45231 175.08537,178.64076 173.698,177.52261 z M 164.87929,176.60526 C 164.72282,176.34585 164.91774,176.1336 165.31246,176.1336 C 165.70718,176.1336 166.03013,176.34585 166.03013,176.60526 C 166.03013,176.86467 165.83521,177.07692 165.59697,177.07692 C 165.35872,177.07692 165.03577,176.86467 164.87929,176.60526 z M 127.21529,175.3617 C 127.65268,174.67775 128.09134,174.36651 128.1901,174.67007 C 128.39185,175.29022 127.47075,176.60526 126.83463,176.60526 C 126.60661,176.60526 126.77791,176.04566 127.21529,175.3617 z M 144.59743,175.41111 C 145.595,174.63802 146.69604,174.49568 146.69604,175.13982 C 146.69604,175.6376 145.55491,176.13975 144.47179,176.1186 C 143.80935,176.10566 143.82661,176.00847 144.59743,175.41111 z M 162.71433,175.76647 C 162.28315,175.67563 161.8335,175.24352 161.7151,174.80622 C 161.5967,174.36892 161.36515,173.53128 161.20053,172.94479 C 160.9198,171.94459 160.97533,171.91303 162.09571,172.43607 C 163.87162,173.26513 164.40229,176.12209 162.71433,175.76647 z M 188.17347,175.81843 C 188.14749,175.51538 187.98747,174.89688 187.81785,174.44399 C 187.60759,173.88258 187.68083,173.72908 188.04801,173.96159 C 188.71487,174.38387 188.73362,173.9948 188.10447,172.79029 C 187.168,170.99745 186.89076,161.97624 187.64499,157.83969 C 187.86788,156.61728 187.96956,155.53447 187.87096,155.43344 C 187.49694,155.05022 186.7062,157.98922 186.4391,160.75532 C 186.04429,164.84406 185.51507,165.53669 185.15736,162.43283 C 184.74544,158.85852 184.93364,157.18709 185.87178,156.08805 C 186.31464,155.56923 186.81206,154.58682 186.97716,153.90492 C 187.23966,152.82069 186.74772,152.08087 183.05681,148.00917 C 178.79843,143.31146 174.03031,138.4613 166.91556,131.59019 C 164.78288,129.53054 163.27519,127.99053 163.56514,128.16795 C 164.17823,128.5431 164.73067,127.37583 164.38139,126.44324 C 164.24944,126.09094 164.66797,125.45278 165.31651,125.01739 C 165.96219,124.58392 166.49047,123.93823 166.49047,123.58252 C 166.49047,123.22682 167.1554,122.22354 167.96809,121.35301 C 168.78078,120.48249 169.45402,119.62874 169.46418,119.4558 C 169.47434,119.28286 169.66715,118.96449 169.89266,118.74831 C 170.13031,118.52049 170.175,118.90052 169.99897,119.65232 C 169.51035,121.73919 170.4852,121.14293 171.34846,118.82692 C 171.78357,117.65956 172.42216,116.70445 172.76754,116.70445 C 173.11292,116.70445 173.3955,116.50314 173.3955,116.25709 C 173.3955,115.41381 175.64484,113.31401 176.18306,113.65483 C 176.57323,113.9019 176.54871,114.10111 176.09158,114.39788 C 175.72318,114.63706 175.67991,114.80633 175.98607,114.81059 C 176.27155,114.81456 176.763,114.49944 177.07819,114.11032 C 177.39338,113.7212 178.09198,113.39608 178.63064,113.38783 C 179.58527,113.37321 179.58772,113.35553 178.72757,112.68866 C 177.8941,112.04247 177.96234,111.95136 179.95692,111.04736 C 181.11842,110.52093 182.14774,109.84739 182.24429,109.55059 C 182.35469,109.21124 183.56418,109.02665 185.50318,109.05323 C 189.63426,109.10986 191.56066,110.45598 195.10267,115.76113 C 197.26231,118.99579 197.96636,120.54468 198.74736,123.77935 C 199.27977,125.98436 199.76483,128.84969 199.82528,130.14676 C 199.93507,132.50255 199.93723,132.50553 201.85642,132.94939 C 203.97461,133.43927 204.43219,134.15587 202.62682,134.15587 C 201.94517,134.15587 201.47598,134.42611 201.47598,134.81873 C 201.47598,135.18331 200.75095,136.37074 199.8648,137.45748 C 198.97866,138.54422 198.22773,139.62554 198.19609,139.86041 C 198.09442,140.61488 197.96511,140.94069 196.49083,144.15684 C 195.69365,145.89588 194.72169,148.2306 194.33092,149.34509 C 193.31189,152.25145 192.24046,158.63619 192.55576,159.92338 C 192.71699,160.58157 192.25379,162.63435 191.39589,165.06359 C 190.61032,167.28802 189.95493,169.57447 189.93946,170.14459 C 189.90746,171.32418 188.24583,176.66271 188.17347,175.81843 z M 150.71885,174.61696 C 151.44455,174.25823 152.19366,174.25343 153.2507,174.60073 C 154.68584,175.07227 154.64049,175.09469 152.22006,175.11021 C 150.08399,175.1239 149.84932,175.0468 150.71885,174.61696 z M 128.77929,173.57877 C 128.7593,173.08157 128.8681,172.80299 129.02107,172.95972 C 129.17403,173.11645 129.19039,173.52325 129.05741,173.86374 C 128.91046,174.23999 128.80138,174.12823 128.77929,173.57877 z M 172.47483,173.53947 C 172.47483,173.15035 172.68198,172.83198 172.93517,172.83198 C 173.18835,172.83198 173.3955,173.15035 173.3955,173.53947 C 173.3955,173.92859 173.18835,174.24696 172.93517,174.24696 C 172.68198,174.24696 172.47483,173.92859 172.47483,173.53947 z M 127.85862,170.74881 C 127.83863,170.25161 127.94743,169.97303 128.1004,170.12976 C 128.25336,170.28649 128.26972,170.69329 128.13674,171.03378 C 127.98979,171.41003 127.88071,171.29827 127.85862,170.74881 z M 127.63225,168.53663 C 127.3933,167.79493 126.03286,158.97963 124.58286,148.77732 C 124.04826,145.01584 123.40001,141.53838 123.14229,141.04964 C 122.80688,140.41355 122.83336,140.05993 123.23547,139.80531 C 123.54442,139.60966 123.66611,139.23225 123.50587,138.9666 C 123.34113,138.69349 123.56555,138.54124 124.02232,138.61622 C 124.58731,138.70898 124.80318,139.12829 124.74055,140.01136 C 124.6913,140.70574 125.45697,147.46614 126.44204,155.03445 C 128.02996,167.23451 128.33778,170.72653 127.63225,168.53663 z M 183.59557,157.2672 C 183.59557,156.61867 183.70006,156.35336 183.82776,156.67763 C 183.95546,157.00189 183.95546,157.53251 183.82776,157.85678 C 183.70006,158.18104 183.59557,157.91573 183.59557,157.2672 z M 205.36173,135.79167 C 206.50032,134.9093 207,134.91388 207,135.80668 C 207,136.26768 206.55896,136.50894 205.73408,136.49916 C 204.52153,136.4848 204.50583,136.45497 205.36173,135.79167 z"
       id="path2386" />
  </g>
</svg>
